WaldbaYigezuBisratGothic-Regular.ufo
<glyph name="exclam" format="2">
  <advance width="1381"/>
  <unicode hex="0021"/>
  <outline>
    <contour>
      <point x="637" y="444" type="line"/>
      <point x="596" y="1314" type="line"/>
      <point x="787" y="1314" type="line"/>
      <point x="744" y="444" type="line"/>
    </contour>
    <contour>
      <point x="690" y="244" type="qcurve"/>
      <point x="760" y="244"/>
      <point x="850" y="161"/>
      <point x="850" y="101" type="qcurve"/>
      <point x="850" y="42"/>
      <point x="758" y="-39"/>
      <point x="690" y="-39" type="qcurve"/>
      <point x="624" y="-39"/>
      <point x="532" y="44"/>
      <point x="532" y="103" type="qcurve"/>
      <point x="532" y="163"/>
      <point x="624" y="244"/>
    </contour>
  </outline>
</glyph>
<glyph name="ampersand" format="2">
  <advance width="1381"/>
  <unicode hex="0026"/>
  <outline>
    <contour>
      <point x="1217" y="536" type="line"/>
      <point x="1080" y="536" type="line"/>
      <point x="1039" y="415"/>
      <point x="978" y="288"/>
      <point x="960" y="255" type="qcurve"/>
      <point x="1061" y="108" type="line"/>
      <point x="1234" y="108" type="line"/>
      <point x="1234" y="0" type="line"/>
      <point x="971" y="0" type="line"/>
      <point x="877" y="138" type="line"/>
      <point x="856" y="117"/>
      <point x="801" y="62"/>
      <point x="723" y="13"/>
      <point x="622" y="-18"/>
      <point x="560" y="-18" type="qcurve"/>
      <point x="479" y="-18"/>
      <point x="354" y="39"/>
      <point x="270" y="136"/>
      <point x="226" y="255"/>
      <point x="226" y="318" type="qcurve"/>
      <point x="226" y="435"/>
      <point x="369" y="642"/>
      <point x="499" y="690" type="qcurve"/>
      <point x="499" y="698"/>
      <point x="490" y="707" type="qcurve"/>
      <point x="451" y="764"/>
      <point x="402" y="837"/>
      <point x="375" y="898"/>
      <point x="366" y="949"/>
      <point x="366" y="980" type="qcurve"/>
      <point x="366" y="1094"/>
      <point x="525" y="1243"/>
      <point x="663" y="1243" type="qcurve"/>
      <point x="714" y="1243"/>
      <point x="801" y="1222"/>
      <point x="845" y="1204" type="qcurve"/>
      <point x="894" y="1186"/>
      <point x="925" y="1179"/>
      <point x="940" y="1179" type="qcurve"/>
      <point x="967" y="1179"/>
      <point x="1010" y="1193"/>
      <point x="1024" y="1197" type="qcurve"/>
      <point x="918" y="1032" type="line"/>
      <point x="874" y="1063"/>
      <point x="751" y="1133"/>
      <point x="663" y="1133" type="qcurve"/>
      <point x="615" y="1133"/>
      <point x="553" y="1105"/>
      <point x="516" y="1061"/>
      <point x="501" y="1010"/>
      <point x="501" y="990" type="qcurve"/>
      <point x="501" y="949"/>
      <point x="547" y="868"/>
      <point x="591" y="804" type="qcurve"/>
      <point x="891" y="359" type="line"/>
      <point x="912" y="402"/>
      <point x="937" y="459"/>
      <point x="958" y="514"/>
      <point x="980" y="584"/>
      <point x="999" y="644" type="qcurve"/>
      <point x="1217" y="644" type="line"/>
    </contour>
    <contour>
      <point x="562" y="608" type="line"/>
      <point x="529" y="593"/>
      <point x="465" y="547"/>
      <point x="413" y="483"/>
      <point x="378" y="398"/>
      <point x="378" y="345" type="qcurve"/>
      <point x="378" y="303"/>
      <point x="400" y="217"/>
      <point x="453" y="145"/>
      <point x="532" y="101"/>
      <point x="587" y="101" type="qcurve"/>
      <point x="631" y="101"/>
      <point x="705" y="129"/>
      <point x="760" y="171"/>
      <point x="801" y="214"/>
      <point x="815" y="230" type="qcurve"/>
    </contour>
  </outline>
</glyph>
<glyph name="quotesingle" format="2">
  <advance width="1381"/>
  <unicode hex="0027"/>
  <outline>
    <contour>
      <point x="776" y="646" type="line"/>
      <point x="604" y="646" type="line"/>
      <point x="560" y="1296" type="line"/>
      <point x="822" y="1296" type="line"/>
    </contour>
  </outline>
</glyph>
<glyph name="plus" format="2">
  <advance width="1381"/>
  <unicode hex="002B"/>
  <outline>
    <contour>
      <point x="749" y="755" type="line"/>
      <point x="1230" y="755" type="line"/>
      <point x="1230" y="640" type="line"/>
      <point x="749" y="640" type="line"/>
      <point x="749" y="169" type="line"/>
      <point x="633" y="169" type="line"/>
      <point x="633" y="640" type="line"/>
      <point x="152" y="640" type="line"/>
      <point x="152" y="755" type="line"/>
      <point x="633" y="755" type="line"/>
      <point x="633" y="1227" type="line"/>
      <point x="749" y="1227" type="line"/>
    </contour>
  </outline>
</glyph>
<glyph name="period" format="2">
  <advance width="1381"/>
  <unicode hex="002E"/>
  <outline>
    <contour>
      <point x="690" y="274" type="qcurve"/>
      <point x="725" y="274"/>
      <point x="787" y="251"/>
      <point x="837" y="209"/>
      <point x="868" y="152"/>
      <point x="868" y="117" type="qcurve"/>
      <point x="868" y="81"/>
      <point x="835" y="22"/>
      <point x="785" y="-18"/>
      <point x="720" y="-39"/>
      <point x="690" y="-39" type="qcurve"/>
      <point x="661" y="-39"/>
      <point x="598" y="-18"/>
      <point x="545" y="20"/>
      <point x="514" y="79"/>
      <point x="514" y="117" type="qcurve"/>
      <point x="514" y="154"/>
      <point x="545" y="211"/>
      <point x="596" y="253"/>
      <point x="659" y="274"/>
    </contour>
  </outline>
</glyph>
<glyph name="three" format="2">
  <advance width="1381"/>
  <unicode hex="0033"/>
  <outline>
    <contour>
      <point x="237" y="182" type="line"/>
      <point x="325" y="141"/>
      <point x="523" y="76"/>
      <point x="619" y="76" type="qcurve"/>
      <point x="681" y="76"/>
      <point x="804" y="115"/>
      <point x="900" y="196"/>
      <point x="958" y="314"/>
      <point x="958" y="389" type="qcurve"/>
      <point x="958" y="470"/>
      <point x="903" y="575"/>
      <point x="835" y="637"/>
      <point x="773" y="665"/>
      <point x="767" y="668" type="qcurve"/>
      <point x="707" y="688"/>
      <point x="598" y="692"/>
      <point x="543" y="688" type="qcurve"/>
      <point x="543" y="797" type="line"/>
      <point x="593" y="797"/>
      <point x="711" y="810"/>
      <point x="764" y="845" type="qcurve"/>
      <point x="822" y="883"/>
      <point x="883" y="1004"/>
      <point x="883" y="1070" type="qcurve"/>
      <point x="883" y="1188"/>
      <point x="727" y="1322"/>
      <point x="610" y="1322" type="qcurve"/>
      <point x="520" y="1322"/>
      <point x="373" y="1245"/>
      <point x="320" y="1213" type="qcurve"/>
      <point x="279" y="1188" type="line"/>
      <point x="221" y="1278" type="line"/>
      <point x="318" y="1340"/>
      <point x="501" y="1430"/>
      <point x="613" y="1430" type="qcurve"/>
      <point x="686" y="1430"/>
      <point x="826" y="1381"/>
      <point x="937" y="1289"/>
      <point x="1004" y="1158"/>
      <point x="1004" y="1072" type="qcurve"/>
      <point x="1004" y="997"/>
      <point x="960" y="886"/>
      <point x="900" y="810"/>
      <point x="841" y="769"/>
      <point x="826" y="760" type="qcurve"/>
      <point x="863" y="746"/>
      <point x="949" y="686"/>
      <point x="1024" y="596"/>
      <point x="1075" y="472"/>
      <point x="1075" y="393" type="qcurve"/>
      <point x="1075" y="297"/>
      <point x="1004" y="138"/>
      <point x="877" y="28"/>
      <point x="709" y="-33"/>
      <point x="613" y="-33" type="qcurve"/>
      <point x="560" y="-33"/>
      <point x="470" y="-18"/>
      <point x="375" y="11"/>
      <point x="265" y="53"/>
      <point x="193" y="81" type="qcurve"/>
    </contour>
  </outline>
</glyph>
<glyph name="four" format="2">
  <advance width="1381"/>
  <unicode hex="0034"/>
  <outline>
    <contour>
      <point x="1105" y="446" type="line"/>
      <point x="1105" y="336" type="line"/>
      <point x="898" y="336" type="line"/>
      <point x="898" y="108" type="line"/>
      <point x="1105" y="108" type="line"/>
      <point x="1105" y="0" type="line"/>
      <point x="477" y="0" type="line"/>
      <point x="477" y="108" type="line"/>
      <point x="787" y="108" type="line"/>
      <point x="787" y="336" type="line"/>
      <point x="171" y="336" type="line"/>
      <point x="171" y="470" type="line"/>
      <point x="741" y="1430" type="line"/>
      <point x="898" y="1430" type="line"/>
      <point x="898" y="446" type="line"/>
    </contour>
    <contour>
      <point x="787" y="1296" type="line"/>
      <point x="782" y="1296" type="line"/>
      <point x="283" y="446" type="line"/>
      <point x="787" y="446" type="line"/>
    </contour>
  </outline>
</glyph>
<glyph name="six" format="2">
  <advance width="1381"/>
  <unicode hex="0036"/>
  <outline>
    <contour>
      <point x="1118" y="1314" type="line"/>
      <point x="990" y="1322"/>
      <point x="741" y="1303"/>
      <point x="534" y="1184"/>
      <point x="389" y="921"/>
      <point x="364" y="683" type="qcurve"/>
      <point x="369" y="679" type="line"/>
      <point x="382" y="695"/>
      <point x="435" y="755"/>
      <point x="518" y="810"/>
      <point x="628" y="852"/>
      <point x="703" y="852" type="qcurve"/>
      <point x="792" y="852"/>
      <point x="942" y="778"/>
      <point x="1048" y="654"/>
      <point x="1105" y="492"/>
      <point x="1105" y="405" type="qcurve"/>
      <point x="1105" y="318"/>
      <point x="1045" y="158"/>
      <point x="937" y="39"/>
      <point x="787" y="-33"/>
      <point x="698" y="-33" type="qcurve"/>
      <point x="628" y="-33"/>
      <point x="465" y="28"/>
      <point x="327" y="173"/>
      <point x="235" y="415"/>
      <point x="235" y="598" type="qcurve"/>
      <point x="235" y="654"/>
      <point x="257" y="870"/>
      <point x="343" y="1112"/>
      <point x="518" y="1331"/>
      <point x="670" y="1386" type="qcurve"/>
      <point x="695" y="1395"/>
      <point x="767" y="1413"/>
      <point x="870" y="1427"/>
      <point x="1017" y="1434"/>
      <point x="1118" y="1430" type="qcurve"/>
    </contour>
    <contour>
      <point x="364" y="488" type="qcurve"/>
      <point x="371" y="369"/>
      <point x="444" y="211"/>
      <point x="543" y="119"/>
      <point x="654" y="83"/>
      <point x="698" y="83" type="qcurve"/>
      <point x="753" y="83"/>
      <point x="854" y="127"/>
      <point x="934" y="209"/>
      <point x="980" y="329"/>
      <point x="980" y="405" type="qcurve"/>
      <point x="980" y="470"/>
      <point x="940" y="591"/>
      <point x="868" y="681"/>
      <point x="764" y="736"/>
      <point x="703" y="736" type="qcurve"/>
      <point x="683" y="736"/>
      <point x="601" y="725"/>
      <point x="501" y="677"/>
      <point x="400" y="578"/>
    </contour>
  </outline>
</glyph>
<glyph name="eight" format="2">
  <advance width="1381"/>
  <unicode hex="0038"/>
  <outline>
    <contour>
      <point x="479" y="711" type="qcurve"/>
      <point x="456" y="723"/>
      <point x="384" y="778"/>
      <point x="320" y="863"/>
      <point x="272" y="978"/>
      <point x="272" y="1052" type="qcurve"/>
      <point x="272" y="1131"/>
      <point x="336" y="1266"/>
      <point x="448" y="1370"/>
      <point x="601" y="1430"/>
      <point x="690" y="1430" type="qcurve"/>
      <point x="780" y="1430"/>
      <point x="932" y="1370"/>
      <point x="1045" y="1266"/>
      <point x="1109" y="1131"/>
      <point x="1109" y="1052" type="qcurve"/>
      <point x="1109" y="960"/>
      <point x="1010" y="771"/>
      <point x="903" y="711" type="qcurve"/>
      <point x="964" y="683"/>
      <point x="1052" y="601"/>
      <point x="1109" y="507"/>
      <point x="1135" y="407"/>
      <point x="1135" y="364" type="qcurve"/>
      <point x="1135" y="299"/>
      <point x="1082" y="158"/>
      <point x="971" y="44"/>
      <point x="804" y="-33"/>
      <point x="690" y="-33" type="qcurve"/>
      <point x="575" y="-33"/>
      <point x="410" y="44"/>
      <point x="299" y="158"/>
      <point x="246" y="299"/>
      <point x="246" y="364" type="qcurve"/>
      <point x="246" y="472"/>
      <point x="375" y="665"/>
    </contour>
    <contour>
      <point x="690" y="1322" type="qcurve"/>
      <point x="610" y="1322"/>
      <point x="497" y="1268"/>
      <point x="428" y="1186"/>
      <point x="396" y="1091"/>
      <point x="396" y="1050" type="qcurve"/>
      <point x="396" y="997"/>
      <point x="437" y="896"/>
      <point x="514" y="815"/>
      <point x="624" y="764"/>
      <point x="690" y="764" type="qcurve"/>
      <point x="746" y="764"/>
      <point x="852" y="804"/>
      <point x="934" y="879"/>
      <point x="986" y="982"/>
      <point x="986" y="1050" type="qcurve"/>
      <point x="986" y="1118"/>
      <point x="932" y="1220"/>
      <point x="850" y="1287"/>
      <point x="744" y="1322"/>
    </contour>
    <contour>
      <point x="690" y="656" type="qcurve"/>
      <point x="610" y="656"/>
      <point x="490" y="604"/>
      <point x="410" y="518"/>
      <point x="371" y="415"/>
      <point x="371" y="364" type="qcurve"/>
      <point x="371" y="306"/>
      <point x="419" y="202"/>
      <point x="507" y="123"/>
      <point x="622" y="76"/>
      <point x="690" y="76" type="qcurve"/>
      <point x="760" y="76"/>
      <point x="874" y="123"/>
      <point x="962" y="202"/>
      <point x="1010" y="306"/>
      <point x="1010" y="364" type="qcurve"/>
      <point x="1010" y="415"/>
      <point x="969" y="520"/>
      <point x="889" y="604"/>
      <point x="769" y="656"/>
    </contour>
  </outline>
</glyph>
<glyph name="question" format="2">
  <advance width="1381"/>
  <unicode hex="003F"/>
  <outline>
    <contour>
      <point x="277" y="1236" type="line"/>
      <point x="336" y="1257"/>
      <point x="430" y="1287"/>
      <point x="516" y="1307"/>
      <point x="601" y="1316"/>
      <point x="650" y="1316" type="qcurve"/>
      <point x="760" y="1316"/>
      <point x="925" y="1252"/>
      <point x="1036" y="1149"/>
      <point x="1091" y="1010"/>
      <point x="1091" y="940" type="qcurve"/>
      <point x="1091" y="837"/>
      <point x="1004" y="703"/>
      <point x="877" y="615"/>
      <point x="732" y="564"/>
      <point x="674" y="547" type="qcurve"/>
      <point x="674" y="410" type="line"/>
      <point x="562" y="410" type="line"/>
      <point x="562" y="633" type="line"/>
      <point x="566" y="635"/>
      <point x="596" y="642"/>
      <point x="608" y="644" type="qcurve"/>
      <point x="665" y="659"/>
      <point x="795" y="698"/>
      <point x="900" y="764"/>
      <point x="971" y="868"/>
      <point x="971" y="946" type="qcurve"/>
      <point x="971" y="980"/>
      <point x="944" y="1070"/>
      <point x="872" y="1151"/>
      <point x="749" y="1204"/>
      <point x="652" y="1204" type="qcurve"/>
      <point x="566" y="1204"/>
      <point x="448" y="1171"/>
      <point x="391" y="1149" type="qcurve"/>
      <point x="391" y="1001" type="line"/>
      <point x="277" y="1001" type="line"/>
    </contour>
    <contour>
      <point x="613" y="244" type="qcurve"/>
      <point x="679" y="244"/>
      <point x="771" y="163"/>
      <point x="771" y="103" type="qcurve"/>
      <point x="771" y="42"/>
      <point x="677" y="-39"/>
      <point x="613" y="-39" type="qcurve"/>
      <point x="547" y="-39"/>
      <point x="453" y="42"/>
      <point x="453" y="103" type="qcurve"/>
      <point x="453" y="163"/>
      <point x="545" y="244"/>
    </contour>
  </outline>
</glyph>
<glyph name="A" format="2">
  <advance width="1381"/>
  <unicode hex="0041"/>
  <outline>
    <contour>
      <point x="1240.9" y="107.904" type="line"/>
      <point x="1357.79" y="107.904" type="line"/>
      <point x="1357.79" y="0" type="line"/>
      <point x="885.712" y="0" type="line"/>
      <point x="885.712" y="107.904" type="line"/>
      <point x="1120.63" y="107.904" type="line"/>
      <point x="990.244" y="428.244" type="line"/>
      <point x="388.904" y="428.244" type="line"/>
      <point x="259.644" y="107.904" type="line"/>
      <point x="494.56" y="107.904" type="line"/>
      <point x="494.56" y="0" type="line"/>
      <point x="22.48" y="0" type="line"/>
      <point x="22.48" y="107.904" type="line"/>
      <point x="144.996" y="107.904" type="line"/>
      <point x="588.976" y="1188.07" type="line"/>
      <point x="259.644" y="1188.07" type="line"/>
      <point x="259.644" y="1295.97" type="line"/>
      <point x="755.328" y="1295.97" type="line"/>
    </contour>
    <contour>
      <point x="430.492" y="529.404" type="line"/>
      <point x="950.904" y="529.404" type="line"/>
      <point x="690.136" y="1159.97" type="line"/>
    </contour>
  </outline>
</glyph>
<glyph name="C" format="2">
  <advance width="1381"/>
  <unicode hex="0043"/>
  <outline>
    <contour>
      <point x="1368" y="228" type="line"/>
      <point x="1270" y="136"/>
      <point x="1087" y="30"/>
      <point x="927" y="-26"/>
      <point x="804" y="-39"/>
      <point x="769" y="-39" type="qcurve"/>
      <point x="617" y="-39"/>
      <point x="384" y="74"/>
      <point x="228" y="268"/>
      <point x="147" y="520"/>
      <point x="147" y="663" type="qcurve"/>
      <point x="147" y="813"/>
      <point x="242" y="1061"/>
      <point x="407" y="1239"/>
      <point x="633" y="1335"/>
      <point x="764" y="1335" type="qcurve"/>
      <point x="833" y="1335"/>
      <point x="937" y="1309"/>
      <point x="1010" y="1276"/>
      <point x="1052" y="1243"/>
      <point x="1059" y="1236" type="qcurve"/>
      <point x="1082" y="1217"/>
      <point x="1094" y="1211"/>
      <point x="1098" y="1211" type="qcurve"/>
      <point x="1105" y="1211"/>
      <point x="1116" y="1234"/>
      <point x="1123" y="1268"/>
      <point x="1131" y="1305"/>
      <point x="1133" y="1322" type="qcurve"/>
      <point x="1217" y="1322" type="line"/>
      <point x="1213" y="1177"/>
      <point x="1230" y="973"/>
      <point x="1241" y="881" type="qcurve"/>
      <point x="1133" y="863" type="line"/>
      <point x="1125" y="903"/>
      <point x="1096" y="1024"/>
      <point x="1057" y="1085" type="qcurve"/>
      <point x="1024" y="1133"/>
      <point x="886" y="1220"/>
      <point x="760" y="1220" type="qcurve"/>
      <point x="644" y="1220"/>
      <point x="465" y="1133"/>
      <point x="338" y="980"/>
      <point x="272" y="778"/>
      <point x="272" y="665" type="qcurve"/>
      <point x="272" y="578"/>
      <point x="316" y="373"/>
      <point x="428" y="196"/>
      <point x="619" y="76"/>
      <point x="769" y="76" type="qcurve"/>
      <point x="925" y="76"/>
      <point x="1179" y="211"/>
      <point x="1291" y="310" type="qcurve"/>
    </contour>
  </outline>
</glyph>
<glyph name="E" format="2">
  <advance width="1381"/>
  <unicode hex="0045"/>
  <outline>
    <contour>
      <point x="1234.15" y="872.224" type="line"/>
      <point x="1128.5" y="872.224" type="line"/>
      <point x="1104.89" y="1188.07" type="line"/>
      <point x="441.732" y="1188.07" type="line"/>
      <point x="441.732" y="738.468" type="line"/>
      <point x="814.9" y="738.468" type="line"/>
      <point x="814.9" y="907.068" type="line"/>
      <point x="920.556" y="907.068" type="line"/>
      <point x="920.556" y="465.336" type="line"/>
      <point x="814.9" y="465.336" type="line"/>
      <point x="814.9" y="630.564" type="line"/>
      <point x="441.732" y="630.564" type="line"/>
      <point x="441.732" y="107.904" type="line"/>
      <point x="1128.5" y="107.904" type="line"/>
      <point x="1139.74" y="423.748" type="line"/>
      <point x="1245.39" y="423.748" type="line"/>
      <point x="1245.39" y="0" type="line"/>
      <point x="131.508" y="0" type="line"/>
      <point x="131.508" y="107.904" type="line"/>
      <point x="327.084" y="107.904" type="line"/>
      <point x="327.084" y="1188.07" type="line"/>
      <point x="131.508" y="1188.07" type="line"/>
      <point x="131.508" y="1295.97" type="line"/>
      <point x="1225.16" y="1295.97" type="line"/>
    </contour>
  </outline>
</glyph>
<glyph name="F" format="2">
  <advance width="1381"/>
  <unicode hex="0046"/>
  <outline>
    <contour>
      <point x="1257" y="881" type="line"/>
      <point x="1153" y="881" type="line"/>
      <point x="1125" y="1188" type="line"/>
      <point x="468" y="1188" type="line"/>
      <point x="468" y="738" type="line"/>
      <point x="841" y="738" type="line"/>
      <point x="841" y="907" type="line"/>
      <point x="946" y="907" type="line"/>
      <point x="946" y="465" type="line"/>
      <point x="841" y="465" type="line"/>
      <point x="841" y="631" type="line"/>
      <point x="468" y="631" type="line"/>
      <point x="468" y="108" type="line"/>
      <point x="767" y="108" type="line"/>
      <point x="767" y="0" type="line"/>
      <point x="165" y="0" type="line"/>
      <point x="165" y="108" type="line"/>
      <point x="352" y="108" type="line"/>
      <point x="352" y="1188" type="line"/>
      <point x="165" y="1188" type="line"/>
      <point x="165" y="1296" type="line"/>
      <point x="1245" y="1296" type="line"/>
    </contour>
  </outline>
</glyph>
<glyph name="I" format="2">
  <advance width="1381"/>
  <unicode hex="0049"/>
  <outline>
    <contour>
      <point x="1150.98" y="1188.07" type="line"/>
      <point x="748.584" y="1188.07" type="line"/>
      <point x="748.584" y="107.904" type="line"/>
      <point x="1150.98" y="107.904" type="line"/>
      <point x="1150.98" y="0" type="line"/>
      <point x="230.42" y="0" type="line"/>
      <point x="230.42" y="107.904" type="line"/>
      <point x="632.812" y="107.904" type="line"/>
      <point x="632.812" y="1188.07" type="line"/>
      <point x="230.42" y="1188.07" type="line"/>
      <point x="230.42" y="1295.97" type="line"/>
      <point x="1150.98" y="1295.97" type="line"/>
    </contour>
  </outline>
</glyph>
<glyph name="K" format="2">
  <advance width="1381"/>
  <unicode hex="004B"/>
  <outline>
    <contour>
      <point x="642" y="1188" type="line"/>
      <point x="446" y="1188" type="line"/>
      <point x="446" y="624" type="line"/>
      <point x="1026" y="1188" type="line"/>
      <point x="837" y="1188" type="line"/>
      <point x="837" y="1296" type="line"/>
      <point x="1287" y="1296" type="line"/>
      <point x="1287" y="1188" type="line"/>
      <point x="1184" y="1188" type="line"/>
      <point x="683" y="703" type="line"/>
      <point x="727" y="679"/>
      <point x="831" y="606"/>
      <point x="946" y="472"/>
      <point x="1072" y="265"/>
      <point x="1142" y="108" type="qcurve"/>
      <point x="1353" y="108" type="line"/>
      <point x="1353" y="0" type="line"/>
      <point x="1059" y="0" type="line"/>
      <point x="1022" y="97"/>
      <point x="934" y="270"/>
      <point x="909" y="310" type="qcurve"/>
      <point x="843" y="426"/>
      <point x="707" y="573"/>
      <point x="606" y="624" type="qcurve"/>
      <point x="446" y="472" type="line"/>
      <point x="446" y="108" type="line"/>
      <point x="642" y="108" type="line"/>
      <point x="642" y="0" type="line"/>
      <point x="138" y="0" type="line"/>
      <point x="138" y="108" type="line"/>
      <point x="332" y="108" type="line"/>
      <point x="332" y="1188" type="line"/>
      <point x="138" y="1188" type="line"/>
      <point x="138" y="1296" type="line"/>
      <point x="642" y="1296" type="line"/>
    </contour>
  </outline>
</glyph>
<glyph name="M" format="2">
  <advance width="1381"/>
  <unicode hex="004D"/>
  <outline>
    <contour>
      <point x="665" y="516" type="line"/>
      <point x="707" y="516" type="line"/>
      <point x="992" y="1296" type="line"/>
      <point x="1362" y="1296" type="line"/>
      <point x="1362" y="1188" type="line"/>
      <point x="1199" y="1188" type="line"/>
      <point x="1239" y="108" type="line"/>
      <point x="1379" y="108" type="line"/>
      <point x="1379" y="0" type="line"/>
      <point x="891" y="0" type="line"/>
      <point x="891" y="108" type="line"/>
      <point x="1137" y="108" type="line"/>
      <point x="1103" y="1188" type="line"/>
      <point x="1061" y="1188" type="line"/>
      <point x="738" y="332" type="line"/>
      <point x="619" y="332" type="line"/>
      <point x="320" y="1188" type="line"/>
      <point x="279" y="1188" type="line"/>
      <point x="244" y="108" type="line"/>
      <point x="490" y="108" type="line"/>
      <point x="490" y="0" type="line"/>
      <point x="2" y="0" type="line"/>
      <point x="2" y="108" type="line"/>
      <point x="143" y="108" type="line"/>
      <point x="182" y="1188" type="line"/>
      <point x="18" y="1188" type="line"/>
      <point x="18" y="1296" type="line"/>
      <point x="402" y="1296" type="line"/>
    </contour>
  </outline>
</glyph>
<glyph name="N" format="2">
  <advance width="1381"/>
  <unicode hex="004E"/>
  <outline>
    <contour>
      <point x="1063.3" y="96.664" type="line"/>
      <point x="1104.89" y="96.664" type="line"/>
      <point x="1104.89" y="1188.07" type="line"/>
      <point x="847.496" y="1188.07" type="line"/>
      <point x="847.496" y="1295.97" type="line"/>
      <point x="1360.04" y="1295.97" type="line"/>
      <point x="1360.04" y="1188.07" type="line"/>
      <point x="1210.55" y="1188.07" type="line"/>
      <point x="1210.55" y="-30.348" type="line"/>
      <point x="1005.98" y="-30.348" type="line"/>
      <point x="388.904" y="1188.07" type="line"/>
      <point x="349.564" y="1188.07" type="line"/>
      <point x="349.564" y="107.904" type="line"/>
      <point x="610.332" y="107.904" type="line"/>
      <point x="610.332" y="0" type="line"/>
      <point x="64.068" y="0" type="line"/>
      <point x="64.068" y="107.904" type="line"/>
      <point x="243.908" y="107.904" type="line"/>
      <point x="243.908" y="1188.07" type="line"/>
      <point x="64.068" y="1188.07" type="line"/>
      <point x="64.068" y="1295.97" type="line"/>
      <point x="458.592" y="1295.97" type="line"/>
    </contour>
  </outline>
</glyph>
<glyph name="O" format="2">
  <advance width="1381"/>
  <unicode hex="004F"/>
  <outline>
    <contour>
      <point x="98.912" y="646.3" type="qcurve"/>
      <point x="98.912" y="789.048"/>
      <point x="182.088" y="1040.82"/>
      <point x="336.076" y="1227.41"/>
      <point x="555.256" y="1335.31"/>
      <point x="690.136" y="1335.31" type="qcurve"/>
      <point x="828.388" y="1335.31"/>
      <point x="1047.57" y="1225.16"/>
      <point x="1201.56" y="1036.33"/>
      <point x="1282.48" y="786.8"/>
      <point x="1282.48" y="646.3" type="qcurve"/>
      <point x="1282.48" y="509.172"/>
      <point x="1199.31" y="257.396"/>
      <point x="1047.57" y="70.812"/>
      <point x="828.388" y="-39.34"/>
      <point x="690.136" y="-39.34" type="qcurve"/>
      <point x="555.256" y="-39.34"/>
      <point x="336.076" y="68.564"/>
      <point x="182.088" y="255.148"/>
      <point x="98.912" y="504.676"/>
    </contour>
    <contour>
      <point x="223.676" y="649.672" type="qcurve"/>
      <point x="223.676" y="545.14"/>
      <point x="283.248" y="340.572"/>
      <point x="400.144" y="177.592"/>
      <point x="575.488" y="76.432"/>
      <point x="690.136" y="76.432" type="qcurve"/>
      <point x="803.66" y="76.432"/>
      <point x="977.88" y="175.344"/>
      <point x="1098.15" y="336.076"/>
      <point x="1157.72" y="540.644"/>
      <point x="1157.72" y="649.672" type="qcurve"/>
      <point x="1157.72" y="757.576"/>
      <point x="1095.9" y="964.392"/>
      <point x="975.632" y="1122.88"/>
      <point x="803.66" y="1219.54"/>
      <point x="690.136" y="1219.54" type="qcurve"/>
      <point x="570.992" y="1219.54"/>
      <point x="395.648" y="1116.13"/>
      <point x="281" y="953.152"/>
      <point x="223.676" y="748.584"/>
    </contour>
  </outline>
</glyph>
<glyph name="Q" format="2">
  <advance width="1381"/>
  <unicode hex="0051"/>
  <outline>
    <contour>
      <point x="1259" y="-202" type="line"/>
      <point x="1220" y="-230"/>
      <point x="1107" y="-294"/>
      <point x="1026" y="-294" type="qcurve"/>
      <point x="973" y="-294"/>
      <point x="891" y="-265"/>
      <point x="771" y="-214"/>
      <point x="695" y="-193"/>
      <point x="652" y="-193" type="qcurve"/>
      <point x="575" y="-193"/>
      <point x="461" y="-242"/>
      <point x="380" y="-288" type="qcurve"/>
      <point x="327" y="-202" type="line"/>
      <point x="369" y="-175"/>
      <point x="437" y="-112"/>
      <point x="488" y="-60"/>
      <point x="518" y="-20"/>
      <point x="523" y="-16" type="qcurve"/>
      <point x="426" y="13"/>
      <point x="270" y="141"/>
      <point x="158" y="314"/>
      <point x="99" y="527"/>
      <point x="99" y="646" type="qcurve"/>
      <point x="99" y="810"/>
      <point x="196" y="1066"/>
      <point x="359" y="1243"/>
      <point x="573" y="1335"/>
      <point x="688" y="1335" type="qcurve"/>
      <point x="813" y="1335"/>
      <point x="1028" y="1236"/>
      <point x="1190" y="1054"/>
      <point x="1282" y="797"/>
      <point x="1282" y="637" type="qcurve"/>
      <point x="1282" y="520"/>
      <point x="1220" y="279"/>
      <point x="1072" y="81"/>
      <point x="831" y="-42"/>
      <point x="652" y="-39" type="qcurve"/>
      <point x="642" y="-51"/>
      <point x="633" y="-60"/>
      <point x="615" y="-79" type="qcurve"/>
      <point x="613" y="-83"/>
      <point x="608" y="-88"/>
      <point x="610" y="-83" type="qcurve"/>
      <point x="606" y="-83" type="line"/>
      <point x="606" y="-88" type="line"/>
      <point x="617" y="-88"/>
      <point x="637" y="-85"/>
      <point x="656" y="-85" type="qcurve"/>
      <point x="698" y="-85"/>
      <point x="799" y="-106"/>
      <point x="859" y="-132" type="qcurve"/>
      <point x="900" y="-147"/>
      <point x="949" y="-165"/>
      <point x="980" y="-178"/>
      <point x="1004" y="-180"/>
      <point x="1017" y="-180" type="qcurve"/>
      <point x="1075" y="-180"/>
      <point x="1155" y="-141"/>
      <point x="1188" y="-119" type="qcurve"/>
    </contour>
    <contour>
      <point x="224" y="650" type="qcurve"/>
      <point x="224" y="545"/>
      <point x="283" y="341"/>
      <point x="400" y="178"/>
      <point x="575" y="76"/>
      <point x="690" y="76" type="qcurve"/>
      <point x="804" y="76"/>
      <point x="978" y="175"/>
      <point x="1098" y="336"/>
      <point x="1158" y="541"/>
      <point x="1158" y="650" type="qcurve"/>
      <point x="1158" y="758"/>
      <point x="1096" y="964"/>
      <point x="976" y="1123"/>
      <point x="804" y="1220"/>
      <point x="690" y="1220" type="qcurve"/>
      <point x="571" y="1220"/>
      <point x="396" y="1116"/>
      <point x="281" y="953"/>
      <point x="224" y="749"/>
    </contour>
  </outline>
</glyph>
<glyph name="S" format="2">
  <advance width="1381"/>
  <unicode hex="0053"/>
  <outline>
    <contour>
      <point x="1167" y="1322" type="line"/>
      <point x="1155" y="1268"/>
      <point x="1146" y="1199"/>
      <point x="1146" y="1155" type="qcurve"/>
      <point x="1146" y="1116"/>
      <point x="1155" y="980"/>
      <point x="1167" y="881" type="qcurve"/>
      <point x="1063" y="863" type="line"/>
      <point x="1059" y="900"/>
      <point x="1032" y="1019"/>
      <point x="992" y="1080" type="qcurve"/>
      <point x="978" y="1100"/>
      <point x="934" y="1149"/>
      <point x="865" y="1190"/>
      <point x="769" y="1220"/>
      <point x="700" y="1220" type="qcurve"/>
      <point x="610" y="1220"/>
      <point x="479" y="1167"/>
      <point x="393" y="1087"/>
      <point x="352" y="992"/>
      <point x="352" y="949" type="qcurve"/>
      <point x="352" y="868"/>
      <point x="430" y="776"/>
      <point x="541" y="725"/>
      <point x="661" y="707"/>
      <point x="703" y="703" type="qcurve"/>
      <point x="831" y="688"/>
      <point x="978" y="659"/>
      <point x="1098" y="580"/>
      <point x="1181" y="451"/>
      <point x="1181" y="352" type="qcurve"/>
      <point x="1181" y="251"/>
      <point x="1096" y="103"/>
      <point x="962" y="7"/>
      <point x="795" y="-39"/>
      <point x="709" y="-39" type="qcurve"/>
      <point x="640" y="-39"/>
      <point x="536" y="-16"/>
      <point x="461" y="18"/>
      <point x="410" y="53"/>
      <point x="393" y="66" type="qcurve"/>
      <point x="391" y="69"/>
      <point x="380" y="76"/>
      <point x="375" y="76" type="qcurve"/>
      <point x="369" y="76"/>
      <point x="356" y="62"/>
      <point x="352" y="57" type="qcurve"/>
      <point x="347" y="42"/>
      <point x="341" y="11"/>
      <point x="332" y="-46" type="qcurve"/>
      <point x="228" y="-46" type="line"/>
      <point x="239" y="9"/>
      <point x="248" y="110"/>
      <point x="248" y="136" type="qcurve"/>
      <point x="248" y="158" type="line"/>
      <point x="248" y="178"/>
      <point x="244" y="239"/>
      <point x="237" y="310"/>
      <point x="230" y="378"/>
      <point x="228" y="402" type="qcurve"/>
      <point x="332" y="402" type="line"/>
      <point x="341" y="359"/>
      <point x="371" y="248"/>
      <point x="410" y="198" type="qcurve"/>
      <point x="442" y="156"/>
      <point x="569" y="76"/>
      <point x="692" y="76" type="qcurve"/>
      <point x="799" y="76"/>
      <point x="940" y="127"/>
      <point x="1022" y="205"/>
      <point x="1057" y="299"/>
      <point x="1057" y="343" type="qcurve"/>
      <point x="1057" y="419"/>
      <point x="990" y="509"/>
      <point x="894" y="558"/>
      <point x="780" y="575"/>
      <point x="736" y="580" type="qcurve"/>
      <point x="670" y="587"/>
      <point x="492" y="615"/>
      <point x="336" y="688"/>
      <point x="228" y="824"/>
      <point x="228" y="940" type="qcurve"/>
      <point x="228" y="1017"/>
      <point x="297" y="1160"/>
      <point x="419" y="1270"/>
      <point x="587" y="1335"/>
      <point x="686" y="1335" type="qcurve"/>
      <point x="749" y="1335"/>
      <point x="845" y="1312"/>
      <point x="914" y="1282"/>
      <point x="960" y="1250"/>
      <point x="971" y="1241" type="qcurve"/>
      <point x="999" y="1220"/>
      <point x="1017" y="1208"/>
      <point x="1024" y="1208" type="qcurve"/>
      <point x="1041" y="1208"/>
      <point x="1048" y="1236"/>
      <point x="1059" y="1291" type="qcurve"/>
      <point x="1061" y="1303"/>
      <point x="1063" y="1316"/>
      <point x="1063" y="1322" type="qcurve"/>
    </contour>
  </outline>
</glyph>
<glyph name="T" format="2">
  <advance width="1381"/>
  <unicode hex="0054"/>
  <outline>
    <contour>
      <point x="1282" y="753" type="line"/>
      <point x="1171" y="738" type="line"/>
      <point x="1140" y="1188" type="line"/>
      <point x="749" y="1188" type="line"/>
      <point x="749" y="108" type="line"/>
      <point x="1026" y="108" type="line"/>
      <point x="1026" y="0" type="line"/>
      <point x="354" y="0" type="line"/>
      <point x="354" y="108" type="line"/>
      <point x="633" y="108" type="line"/>
      <point x="633" y="1188" type="line"/>
      <point x="242" y="1188" type="line"/>
      <point x="209" y="738" type="line"/>
      <point x="99" y="753" type="line"/>
      <point x="138" y="1296" type="line"/>
      <point x="1243" y="1296" type="line"/>
    </contour>
  </outline>
</glyph>
<glyph name="U" format="2">
  <advance width="1381"/>
  <unicode hex="0055"/>
  <outline>
    <contour>
      <point x="570.992" y="1188.07" type="line"/>
      <point x="336.076" y="1188.07" type="line"/>
      <point x="336.076" y="538.396" type="line"/>
      <point x="336.076" y="467.584"/>
      <point x="347.316" y="305.728"/>
      <point x="379.912" y="239.412" type="qcurve"/>
      <point x="412.508" y="170.848"/>
      <point x="555.256" y="76.432"/>
      <point x="687.888" y="76.432" type="qcurve"/>
      <point x="823.892" y="76.432"/>
      <point x="968.888" y="156.236"/>
      <point x="1001.48" y="221.428" type="qcurve"/>
      <point x="1036.33" y="283.248"/>
      <point x="1047.57" y="437.236"/>
      <point x="1047.57" y="515.916" type="qcurve"/>
      <point x="1047.57" y="1188.07" type="line"/>
      <point x="812.652" y="1188.07" type="line"/>
      <point x="812.652" y="1295.97" type="line"/>
      <point x="1328.57" y="1295.97" type="line"/>
      <point x="1328.57" y="1188.07" type="line"/>
      <point x="1162.22" y="1188.07" type="line"/>
      <point x="1162.22" y="515.916" type="line"/>
      <point x="1162.22" y="428.244"/>
      <point x="1150.98" y="305.728"/>
      <point x="1128.5" y="216.932"/>
      <point x="1098.15" y="153.988"/>
      <point x="1080.16" y="129.26" type="qcurve"/>
      <point x="1061.06" y="101.16"/>
      <point x="992.492" y="43.836"/>
      <point x="893.58" y="-6.744"/>
      <point x="766.568" y="-39.34"/>
      <point x="690.136" y="-39.34" type="qcurve"/>
      <point x="649.672" y="-39.34"/>
      <point x="545.14" y="-25.852"/>
      <point x="439.484" y="15.736"/>
      <point x="338.324" y="85.424"/>
      <point x="298.984" y="140.5" type="qcurve"/>
      <point x="269.76" y="182.088"/>
      <point x="237.164" y="287.744"/>
      <point x="223.676" y="395.648"/>
      <point x="221.428" y="499.056"/>
      <point x="221.428" y="538.396" type="qcurve"/>
      <point x="221.428" y="1188.07" type="line"/>
      <point x="55.076" y="1188.07" type="line"/>
      <point x="55.076" y="1295.97" type="line"/>
      <point x="570.992" y="1295.97" type="line"/>
    </contour>
  </outline>
</glyph>
<glyph name="V" format="2">
  <advance width="1381"/>
  <unicode hex="0056"/>
  <outline>
    <contour>
      <point x="507" y="1188" type="line"/>
      <point x="290" y="1188" type="line"/>
      <point x="698" y="129" type="line"/>
      <point x="1112" y="1188" type="line"/>
      <point x="877" y="1188" type="line"/>
      <point x="877" y="1296" type="line"/>
      <point x="1368" y="1296" type="line"/>
      <point x="1368" y="1188" type="line"/>
      <point x="1222" y="1188" type="line"/>
      <point x="767" y="0" type="line"/>
      <point x="624" y="0" type="line"/>
      <point x="173" y="1188" type="line"/>
      <point x="13" y="1188" type="line"/>
      <point x="13" y="1296" type="line"/>
      <point x="507" y="1296" type="line"/>
    </contour>
  </outline>
</glyph>
<glyph name="W" format="2">
  <advance width="1381"/>
  <unicode hex="0057"/>
  <outline>
    <contour>
      <point x="459" y="1188" type="line"/>
      <point x="226" y="1188" type="line"/>
      <point x="354" y="221" type="line"/>
      <point x="359" y="221" type="line"/>
      <point x="656" y="1059" type="line"/>
      <point x="734" y="1059" type="line"/>
      <point x="1024" y="221" type="line"/>
      <point x="1028" y="221" type="line"/>
      <point x="1162" y="1188" type="line"/>
      <point x="927" y="1188" type="line"/>
      <point x="927" y="1296" type="line"/>
      <point x="1377" y="1296" type="line"/>
      <point x="1377" y="1188" type="line"/>
      <point x="1270" y="1188" type="line"/>
      <point x="1098" y="0" type="line"/>
      <point x="982" y="0" type="line"/>
      <point x="690" y="837" type="line"/>
      <point x="686" y="837" type="line"/>
      <point x="389" y="0" type="line"/>
      <point x="274" y="0" type="line"/>
      <point x="112" y="1188" type="line"/>
      <point x="4" y="1188" type="line"/>
      <point x="4" y="1296" type="line"/>
      <point x="459" y="1296" type="line"/>
    </contour>
  </outline>
</glyph>
<glyph name="X" format="2">
  <advance width="1381"/>
  <unicode hex="0058"/>
  <outline>
    <contour>
      <point x="566" y="1188" type="line"/>
      <point x="378" y="1188" type="line"/>
      <point x="692" y="767" type="line"/>
      <point x="1015" y="1188" type="line"/>
      <point x="841" y="1188" type="line"/>
      <point x="841" y="1296" type="line"/>
      <point x="1261" y="1296" type="line"/>
      <point x="1261" y="1188" type="line"/>
      <point x="1144" y="1188" type="line"/>
      <point x="758" y="681" type="line"/>
      <point x="1186" y="108" type="line"/>
      <point x="1305" y="108" type="line"/>
      <point x="1305" y="0" type="line"/>
      <point x="841" y="0" type="line"/>
      <point x="841" y="108" type="line"/>
      <point x="1048" y="108" type="line"/>
      <point x="692" y="596" type="line"/>
      <point x="323" y="108" type="line"/>
      <point x="566" y="108" type="line"/>
      <point x="566" y="0" type="line"/>
      <point x="76" y="0" type="line"/>
      <point x="76" y="108" type="line"/>
      <point x="193" y="108" type="line"/>
      <point x="628" y="681" type="line"/>
      <point x="242" y="1188" type="line"/>
      <point x="119" y="1188" type="line"/>
      <point x="119" y="1296" type="line"/>
      <point x="566" y="1296" type="line"/>
    </contour>
  </outline>
</glyph>
<glyph name="Y" format="2">
  <advance width="1381"/>
  <unicode hex="0059"/>
  <outline>
    <contour>
      <point x="524.908" y="1188.07" type="line"/>
      <point x="349.564" y="1188.07" type="line"/>
      <point x="698.004" y="617.076" type="line"/>
      <point x="1040.82" y="1188.07" type="line"/>
      <point x="860.984" y="1188.07" type="line"/>
      <point x="860.984" y="1295.97" type="line"/>
      <point x="1307.21" y="1295.97" type="line"/>
      <point x="1307.21" y="1188.07" type="line"/>
      <point x="1162.22" y="1188.07" type="line"/>
      <point x="750.832" y="501.304" type="line"/>
      <point x="750.832" y="107.904" type="line"/>
      <point x="1021.72" y="107.904" type="line"/>
      <point x="1021.72" y="0" type="line"/>
      <point x="361.928" y="0" type="line"/>
      <point x="361.928" y="107.904" type="line"/>
      <point x="635.06" y="107.904" type="line"/>
      <point x="635.06" y="501.304" type="line"/>
      <point x="219.18" y="1188.07" type="line"/>
      <point x="74.184" y="1188.07" type="line"/>
      <point x="74.184" y="1295.97" type="line"/>
      <point x="524.908" y="1295.97" type="line"/>
    </contour>
  </outline>
</glyph>
<glyph name="Z" format="2">
  <advance width="1381"/>
  <unicode hex="005A"/>
  <outline>
    <contour>
      <point x="1135" y="1202" type="line"/>
      <point x="332" y="108" type="line"/>
      <point x="1080" y="108" type="line"/>
      <point x="1080" y="481" type="line"/>
      <point x="1188" y="481" type="line"/>
      <point x="1188" y="0" type="line"/>
      <point x="193" y="0" type="line"/>
      <point x="193" y="108" type="line"/>
      <point x="988" y="1188" type="line"/>
      <point x="318" y="1188" type="line"/>
      <point x="318" y="852" type="line"/>
      <point x="209" y="852" type="line"/>
      <point x="209" y="1296" type="line"/>
      <point x="1135" y="1296" type="line"/>
    </contour>
  </outline>
</glyph>
<glyph name="grave" format="2">
  <advance width="1381"/>
  <unicode hex="0060"/>
  <outline>
    <contour>
      <point x="860.984" y="1157.72" type="line"/>
      <point x="740.716" y="1157.72" type="line"/>
      <point x="437.236" y="1422.98" type="line"/>
      <point x="683.392" y="1422.98" type="line"/>
    </contour>
  </outline>
</glyph>
<glyph name="a" format="2">
  <advance width="1381"/>
  <unicode hex="0061"/>
  <outline>
    <contour>
      <point x="1265.62" y="107.904" type="line"/>
      <point x="1265.62" y="0" type="line"/>
      <point x="946.408" y="0" type="line"/>
      <point x="946.408" y="165.228" type="line"/>
      <point x="911.564" y="133.756"/>
      <point x="817.148" y="61.82"/>
      <point x="706.996" y="4.496"/>
      <point x="577.736" y="-32.596"/>
      <point x="506.924" y="-32.596" type="qcurve"/>
      <point x="419.252" y="-32.596"/>
      <point x="283.248" y="25.852"/>
      <point x="186.584" y="116.896"/>
      <point x="136.004" y="232.668"/>
      <point x="136.004" y="292.24" type="qcurve"/>
      <point x="136.004" y="338.324"/>
      <point x="182.088" y="458.592"/>
      <point x="292.24" y="566.496"/>
      <point x="481.072" y="639.556"/>
      <point x="623.82" y="639.556" type="qcurve"/>
      <point x="630.564" y="639.556"/>
      <point x="694.632" y="637.308"/>
      <point x="784.552" y="630.564"/>
      <point x="893.58" y="619.324"/>
      <point x="946.408" y="610.332" type="qcurve"/>
      <point x="946.408" y="681.144" type="line"/>
      <point x="946.408" y="709.244"/>
      <point x="937.416" y="792.42"/>
      <point x="885.712" y="869.976"/>
      <point x="771.064" y="925.052"/>
      <point x="667.656" y="925.052" type="qcurve"/>
      <point x="605.836" y="925.052"/>
      <point x="412.508" y="889.084"/>
      <point x="274.256" y="828.388" type="qcurve"/>
      <point x="230.42" y="931.796" type="line"/>
      <point x="303.48" y="964.392"/>
      <point x="531.652" y="1036.33"/>
      <point x="669.904" y="1036.33" type="qcurve"/>
      <point x="817.148" y="1036.33"/>
      <point x="975.632" y="950.904"/>
      <point x="1049.82" y="832.884"/>
      <point x="1061.06" y="715.988"/>
      <point x="1061.06" y="681.144" type="qcurve"/>
      <point x="1061.06" y="107.904" type="line"/>
    </contour>
    <contour>
      <point x="946.408" y="504.676" type="line"/>
      <point x="907.068" y="511.42"/>
      <point x="744.088" y="529.404"/>
      <point x="646.3" y="529.404" type="qcurve"/>
      <point x="504.676" y="529.404"/>
      <point x="347.316" y="463.088"/>
      <point x="274.256" y="377.664"/>
      <point x="259.644" y="298.984"/>
      <point x="259.644" y="289.992" type="qcurve"/>
      <point x="259.644" y="246.156"/>
      <point x="298.984" y="170.848"/>
      <point x="368.672" y="112.4"/>
      <point x="456.344" y="78.68"/>
      <point x="504.676" y="78.68" type="qcurve"/>
      <point x="531.652" y="78.68"/>
      <point x="621.572" y="92.168"/>
      <point x="736.22" y="140.5"/>
      <point x="872.224" y="237.164"/>
      <point x="946.408" y="320.34" type="qcurve"/>
    </contour>
  </outline>
</glyph>
<glyph name="e" format="2">
  <advance width="1381"/>
  <unicode hex="0065"/>
  <outline>
    <contour>
      <point x="1286.98" y="131.508" type="line"/>
      <point x="1240.9" y="105.656"/>
      <point x="1116.13" y="48.332"/>
      <point x="971.136" y="0"/>
      <point x="810.404" y="-32.596"/>
      <point x="729.476" y="-32.596" type="qcurve"/>
      <point x="588.976" y="-32.596"/>
      <point x="379.912" y="55.076"/>
      <point x="239.412" y="200.072"/>
      <point x="170.848" y="391.152"/>
      <point x="170.848" y="492.312" type="qcurve"/>
      <point x="170.848" y="597.968"/>
      <point x="246.156" y="792.42"/>
      <point x="386.656" y="939.664"/>
      <point x="588.976" y="1023.96"/>
      <point x="715.988" y="1023.96" type="qcurve"/>
      <point x="847.496" y="1023.96"/>
      <point x="1043.07" y="941.912"/>
      <point x="1173.46" y="808.156"/>
      <point x="1238.65" y="644.052"/>
      <point x="1238.65" y="566.496" type="qcurve"/>
      <point x="1238.65" y="538.396"/>
      <point x="1234.15" y="474.328"/>
      <point x="1234.15" y="463.088" type="qcurve"/>
      <point x="294.488" y="463.088" type="line"/>
      <point x="296.736" y="417.004"/>
      <point x="333.828" y="285.496"/>
      <point x="430.492" y="165.228"/>
      <point x="597.968" y="78.68"/>
      <point x="731.724" y="78.68" type="qcurve"/>
      <point x="803.66" y="78.68"/>
      <point x="953.152" y="112.4"/>
      <point x="1086.91" y="160.732"/>
      <point x="1197.06" y="213.56"/>
      <point x="1234.15" y="232.668" type="qcurve"/>
    </contour>
    <contour>
      <point x="1113.88" y="570.992" type="line"/>
      <point x="1113.88" y="626.068"/>
      <point x="1065.55" y="748.584"/>
      <point x="968.888" y="849.744"/>
      <point x="819.396" y="913.812"/>
      <point x="715.988" y="913.812" type="qcurve"/>
      <point x="601.34" y="913.812"/>
      <point x="446.228" y="835.132"/>
      <point x="349.564" y="727.228"/>
      <point x="301.232" y="610.332"/>
      <point x="294.488" y="570.992" type="qcurve"/>
    </contour>
  </outline>
</glyph>
<glyph name="f" format="2">
  <advance width="600"/>
  <unicode hex="0066"/>
  <outline>
    <contour>
      <point x="201" y="474" type="line"/>
      <point x="201" y="505"/>
      <point x="210" y="560"/>
      <point x="241" y="601"/>
      <point x="304" y="625"/>
      <point x="358" y="625" type="qcurve"/>
      <point x="400" y="625"/>
      <point x="474" y="615"/>
      <point x="506" y="609" type="qcurve"/>
      <point x="485" y="559" type="line"/>
      <point x="452" y="567"/>
      <point x="377" y="575"/>
      <point x="345" y="575" type="qcurve"/>
      <point x="310" y="575"/>
      <point x="272" y="558"/>
      <point x="254" y="529"/>
      <point x="251" y="491"/>
      <point x="251" y="471" type="qcurve"/>
      <point x="251" y="418" type="line"/>
      <point x="464" y="418" type="line"/>
      <point x="464" y="371" type="line"/>
      <point x="251" y="371" type="line"/>
      <point x="251" y="47" type="line"/>
      <point x="464" y="47" type="line"/>
      <point x="464" y="0" type="line"/>
      <point x="97" y="0" type="line"/>
      <point x="97" y="47" type="line"/>
      <point x="201" y="47" type="line"/>
      <point x="201" y="371" type="line"/>
      <point x="97" y="371" type="line"/>
      <point x="97" y="418" type="line"/>
      <point x="201" y="418" type="line"/>
    </contour>
  </outline>
</glyph>
<glyph name="m" format="2">
  <advance width="1381"/>
  <unicode hex="006D"/>
  <outline>
    <contour>
      <point x="262" y="909" type="line"/>
      <point x="292" y="934" type="line"/>
      <point x="294" y="937"/>
      <point x="327" y="962"/>
      <point x="378" y="992"/>
      <point x="448" y="1015"/>
      <point x="490" y="1015" type="qcurve"/>
      <point x="564" y="1015"/>
      <point x="688" y="940"/>
      <point x="720" y="870" type="qcurve"/>
      <point x="771" y="930"/>
      <point x="903" y="1015"/>
      <point x="982" y="1015" type="qcurve"/>
      <point x="1043" y="1015"/>
      <point x="1158" y="962"/>
      <point x="1188" y="916" type="qcurve"/>
      <point x="1204" y="891"/>
      <point x="1227" y="843"/>
      <point x="1241" y="780"/>
      <point x="1248" y="690"/>
      <point x="1248" y="626" type="qcurve"/>
      <point x="1248" y="108" type="line"/>
      <point x="1379" y="108" type="line"/>
      <point x="1379" y="0" type="line"/>
      <point x="1133" y="0" type="line"/>
      <point x="1133" y="626" type="line"/>
      <point x="1133" y="674"/>
      <point x="1128" y="771"/>
      <point x="1100" y="852"/>
      <point x="1041" y="900"/>
      <point x="986" y="900" type="qcurve"/>
      <point x="937" y="900"/>
      <point x="824" y="837"/>
      <point x="760" y="749" type="qcurve"/>
      <point x="760" y="108" type="line"/>
      <point x="903" y="108" type="line"/>
      <point x="903" y="0" type="line"/>
      <point x="644" y="0" type="line"/>
      <point x="644" y="635" type="line"/>
      <point x="644" y="672"/>
      <point x="640" y="767"/>
      <point x="613" y="845"/>
      <point x="550" y="900"/>
      <point x="492" y="900" type="qcurve"/>
      <point x="451" y="900"/>
      <point x="382" y="872"/>
      <point x="327" y="833"/>
      <point x="285" y="789"/>
      <point x="272" y="771" type="qcurve"/>
      <point x="272" y="108" type="line"/>
      <point x="428" y="108" type="line"/>
      <point x="428" y="0" type="line"/>
      <point x="0" y="0" type="line"/>
      <point x="0" y="108" type="line"/>
      <point x="156" y="108" type="line"/>
      <point x="156" y="881" type="line"/>
      <point x="0" y="881" type="line"/>
      <point x="0" y="990" type="line"/>
      <point x="262" y="990" type="line"/>
    </contour>
  </outline>
</glyph>
<glyph name="n" format="2">
  <advance width="1381"/>
  <unicode hex="006E"/>
  <outline>
    <contour>
      <point x="382.16" y="860.984" type="line"/>
      <point x="419.252" y="889.084"/>
      <point x="506.924" y="946.408"/>
      <point x="605.836" y="994.74"/>
      <point x="715.988" y="1023.96"/>
      <point x="777.808" y="1023.96" type="qcurve"/>
      <point x="856.488" y="1023.96"/>
      <point x="982.376" y="968.888"/>
      <point x="1072.3" y="867.728"/>
      <point x="1120.63" y="727.228"/>
      <point x="1120.63" y="644.052" type="qcurve"/>
      <point x="1120.63" y="107.904" type="line"/>
      <point x="1304.96" y="107.904" type="line"/>
      <point x="1304.96" y="0" type="line"/>
      <point x="808.156" y="0" type="line"/>
      <point x="808.156" y="107.904" type="line"/>
      <point x="1005.98" y="107.904" type="line"/>
      <point x="1005.98" y="635.06" type="line"/>
      <point x="1005.98" y="762.072"/>
      <point x="883.464" y="909.316"/>
      <point x="780.056" y="909.316" type="qcurve"/>
      <point x="753.08" y="909.316"/>
      <point x="678.896" y="898.076"/>
      <point x="582.232" y="858.736"/>
      <point x="460.84" y="786.8"/>
      <point x="382.16" y="724.98" type="qcurve"/>
      <point x="382.16" y="107.904" type="line"/>
      <point x="575.488" y="107.904" type="line"/>
      <point x="575.488" y="0" type="line"/>
      <point x="78.68" y="0" type="line"/>
      <point x="78.68" y="107.904" type="line"/>
      <point x="267.512" y="107.904" type="line"/>
      <point x="267.512" y="881.216" type="line"/>
      <point x="78.68" y="881.216" type="line"/>
      <point x="78.68" y="990.244" type="line"/>
      <point x="382.16" y="990.244" type="line"/>
    </contour>
  </outline>
</glyph>
<glyph name="o" format="2">
  <advance width="1381"/>
  <unicode hex="006F"/>
  <outline>
    <contour>
      <point x="119.144" y="501.304" type="qcurve"/>
      <point x="119.144" y="605.836"/>
      <point x="193.328" y="799.164"/>
      <point x="336.076" y="946.408"/>
      <point x="549.636" y="1036.33"/>
      <point x="690.136" y="1036.33" type="qcurve"/>
      <point x="835.132" y="1036.33"/>
      <point x="1049.82" y="944.16"/>
      <point x="1190.32" y="792.42"/>
      <point x="1261.13" y="601.34"/>
      <point x="1261.13" y="501.304" type="qcurve"/>
      <point x="1261.13" y="402.392"/>
      <point x="1190.32" y="211.312"/>
      <point x="1049.82" y="59.572"/>
      <point x="835.132" y="-32.596"/>
      <point x="690.136" y="-32.596" type="qcurve"/>
      <point x="549.636" y="-32.596"/>
      <point x="336.076" y="57.324"/>
      <point x="193.328" y="206.816"/>
      <point x="119.144" y="397.896"/>
    </contour>
    <contour>
      <point x="243.908" y="501.304" type="qcurve"/>
      <point x="243.908" y="421.5"/>
      <point x="301.232" y="269.76"/>
      <point x="414.756" y="151.74"/>
      <point x="582.232" y="83.176"/>
      <point x="690.136" y="83.176" type="qcurve"/>
      <point x="801.412" y="83.176"/>
      <point x="968.888" y="153.988"/>
      <point x="1080.16" y="272.008"/>
      <point x="1137.49" y="421.5"/>
      <point x="1137.49" y="501.304" type="qcurve"/>
      <point x="1137.49" y="579.984"/>
      <point x="1080.16" y="731.724"/>
      <point x="968.888" y="849.744"/>
      <point x="801.412" y="920.556"/>
      <point x="690.136" y="920.556" type="qcurve"/>
      <point x="582.232" y="920.556"/>
      <point x="417.004" y="851.992"/>
      <point x="301.232" y="733.972"/>
      <point x="243.908" y="584.48"/>
    </contour>
  </outline>
</glyph>
<glyph name="q" format="2">
  <advance width="1381"/>
  <unicode hex="0071"/>
  <outline>
    <contour>
      <point x="1149" y="881" type="line"/>
      <point x="1149" y="-253" type="line"/>
      <point x="1338" y="-253" type="line"/>
      <point x="1338" y="-362" type="line"/>
      <point x="690" y="-362" type="line"/>
      <point x="690" y="-253" type="line"/>
      <point x="1034" y="-253" type="line"/>
      <point x="1034" y="182" type="line"/>
      <point x="1028" y="182" type="line"/>
      <point x="969" y="108"/>
      <point x="841" y="28"/>
      <point x="725" y="-9"/>
      <point x="642" y="-16"/>
      <point x="628" y="-16" type="qcurve"/>
      <point x="534" y="-16"/>
      <point x="352" y="60"/>
      <point x="209" y="198"/>
      <point x="119" y="389"/>
      <point x="119" y="505" type="qcurve"/>
      <point x="119" y="604"/>
      <point x="191" y="787"/>
      <point x="327" y="932"/>
      <point x="516" y="1019"/>
      <point x="633" y="1019" type="qcurve"/>
      <point x="725" y="1019"/>
      <point x="861" y="973"/>
      <point x="958" y="912"/>
      <point x="1015" y="847"/>
      <point x="1028" y="826" type="qcurve"/>
      <point x="1034" y="826" type="line"/>
      <point x="1034" y="990" type="line"/>
      <point x="1338" y="990" type="line"/>
      <point x="1338" y="881" type="line"/>
    </contour>
    <contour>
      <point x="1043" y="511" type="qcurve"/>
      <point x="1043" y="589"/>
      <point x="980" y="734"/>
      <point x="872" y="841"/>
      <point x="720" y="905"/>
      <point x="631" y="905" type="qcurve"/>
      <point x="534" y="905"/>
      <point x="389" y="833"/>
      <point x="292" y="720"/>
      <point x="244" y="578"/>
      <point x="244" y="507" type="qcurve"/>
      <point x="244" y="419"/>
      <point x="306" y="270"/>
      <point x="415" y="161"/>
      <point x="555" y="99"/>
      <point x="633" y="99" type="qcurve"/>
      <point x="700" y="99"/>
      <point x="845" y="152"/>
      <point x="964" y="255"/>
      <point x="1043" y="410"/>
    </contour>
  </outline>
</glyph>
<glyph name="s" format="2">
  <advance width="600"/>
  <unicode hex="0073"/>
  <outline>
    <contour>
      <point x="482" y="443" type="line"/>
      <point x="479" y="427"/>
      <point x="473" y="386"/>
      <point x="473" y="357" type="qcurve"/>
      <point x="473" y="336"/>
      <point x="476" y="307"/>
      <point x="478" y="294" type="qcurve"/>
      <point x="434" y="289" type="line"/>
      <point x="431" y="304"/>
      <point x="420" y="340"/>
      <point x="389" y="371"/>
      <point x="329" y="393"/>
      <point x="277" y="393" type="qcurve"/>
      <point x="217" y="393"/>
      <point x="153" y="350"/>
      <point x="153" y="319" type="qcurve"/>
      <point x="153" y="292"/>
      <point x="184" y="261"/>
      <point x="240" y="244"/>
      <point x="315" y="238"/>
      <point x="359" y="236" type="qcurve"/>
      <point x="368" y="236"/>
      <point x="415" y="230"/>
      <point x="465" y="208"/>
      <point x="504" y="163"/>
      <point x="504" y="124" type="qcurve"/>
      <point x="504" y="88"/>
      <point x="469" y="35"/>
      <point x="413" y="1"/>
      <point x="346" y="-15"/>
      <point x="313" y="-15" type="qcurve"/>
      <point x="286" y="-15"/>
      <point x="240" y="-6"/>
      <point x="202" y="8"/>
      <point x="175" y="22"/>
      <point x="166" y="27" type="qcurve"/>
      <point x="166" y="27"/>
      <point x="164" y="28" type="qcurve"/>
      <point x="163" y="29"/>
      <point x="161" y="29" type="qcurve"/>
      <point x="154" y="29"/>
      <point x="146" y="4"/>
      <point x="141" y="-13" type="qcurve"/>
      <point x="97" y="-13" type="line"/>
      <point x="99" y="0"/>
      <point x="103" y="25"/>
      <point x="103" y="50" type="qcurve"/>
      <point x="103" y="82"/>
      <point x="99" y="132"/>
      <point x="97" y="149" type="qcurve"/>
      <point x="141" y="154" type="line"/>
      <point x="143" y="141"/>
      <point x="155" y="101"/>
      <point x="188" y="63"/>
      <point x="250" y="35"/>
      <point x="302" y="35" type="qcurve"/>
      <point x="317" y="35"/>
      <point x="367" y="41"/>
      <point x="415" y="59"/>
      <point x="450" y="93"/>
      <point x="450" y="122" type="qcurve"/>
      <point x="450" y="144"/>
      <point x="429" y="170"/>
      <point x="391" y="183"/>
      <point x="338" y="187"/>
      <point x="307" y="188" type="qcurve"/>
      <point x="287" y="189"/>
      <point x="217" y="196"/>
      <point x="149" y="221"/>
      <point x="99" y="272"/>
      <point x="99" y="317" type="qcurve"/>
      <point x="99" y="344"/>
      <point x="125" y="390"/>
      <point x="171" y="424"/>
      <point x="237" y="443"/>
      <point x="276" y="443" type="qcurve"/>
      <point x="321" y="443"/>
      <point x="377" y="422"/>
      <point x="391" y="414" type="qcurve"/>
      <point x="393" y="412"/>
      <point x="407" y="405"/>
      <point x="413" y="405" type="qcurve"/>
      <point x="421" y="405"/>
      <point x="429" y="424"/>
      <point x="431" y="429" type="qcurve"/>
      <point x="433" y="439"/>
      <point x="435" y="445"/>
      <point x="437" y="450" type="qcurve"/>
    </contour>
  </outline>
</glyph>
<glyph name="u" format="2">
  <advance width="1381"/>
  <unicode hex="0075"/>
  <outline>
    <contour>
      <point x="377.664" y="379.912" type="line"/>
      <point x="377.664" y="356.308"/>
      <point x="384.408" y="257.396"/>
      <point x="428.244" y="158.484"/>
      <point x="520.412" y="83.176"/>
      <point x="608.084" y="83.176" type="qcurve"/>
      <point x="704.748" y="83.176"/>
      <point x="881.216" y="179.84"/>
      <point x="977.88" y="283.248" type="qcurve"/>
      <point x="977.88" y="881.216" type="line"/>
      <point x="780.056" y="881.216" type="line"/>
      <point x="780.056" y="990.244" type="line"/>
      <point x="1093.65" y="990.244" type="line"/>
      <point x="1093.65" y="107.904" type="line"/>
      <point x="1280.24" y="107.904" type="line"/>
      <point x="1280.24" y="0" type="line"/>
      <point x="977.88" y="0" type="line"/>
      <point x="977.88" y="127.012" type="line"/>
      <point x="953.152" y="105.656"/>
      <point x="883.464" y="50.58"/>
      <point x="794.668" y="2.248"/>
      <point x="683.392" y="-32.596"/>
      <point x="617.076" y="-32.596" type="qcurve"/>
      <point x="509.172" y="-32.596"/>
      <point x="370.92" y="46.084"/>
      <point x="292.24" y="165.228"/>
      <point x="261.892" y="310.224"/>
      <point x="261.892" y="379.912" type="qcurve"/>
      <point x="261.892" y="881.216" type="line"/>
      <point x="74.184" y="881.216" type="line"/>
      <point x="74.184" y="990.244" type="line"/>
      <point x="377.664" y="990.244" type="line"/>
    </contour>
  </outline>
</glyph>
<glyph name="v" format="2">
  <advance width="1381"/>
  <unicode hex="0076"/>
  <outline>
    <contour>
      <point x="538" y="881" type="line"/>
      <point x="352" y="881" type="line"/>
      <point x="698" y="134" type="line"/>
      <point x="1048" y="881" type="line"/>
      <point x="865" y="881" type="line"/>
      <point x="865" y="990" type="line"/>
      <point x="1333" y="990" type="line"/>
      <point x="1333" y="881" type="line"/>
      <point x="1162" y="881" type="line"/>
      <point x="746" y="0" type="line"/>
      <point x="637" y="0" type="line"/>
      <point x="219" y="881" type="line"/>
      <point x="48" y="881" type="line"/>
      <point x="48" y="990" type="line"/>
      <point x="538" y="990" type="line"/>
    </contour>
  </outline>
</glyph>
<glyph name="x" format="2">
  <advance width="600"/>
  <unicode hex="0078"/>
  <outline>
    <contour>
      <point x="234" y="383" type="line"/>
      <point x="173" y="383" type="line"/>
      <point x="298" y="258" type="line"/>
      <point x="423" y="383" type="line"/>
      <point x="365" y="383" type="line"/>
      <point x="365" y="430" type="line"/>
      <point x="549" y="430" type="line"/>
      <point x="549" y="383" type="line"/>
      <point x="488" y="383" type="line"/>
      <point x="331" y="225" type="line"/>
      <point x="511" y="47" type="line"/>
      <point x="574" y="47" type="line"/>
      <point x="574" y="0" type="line"/>
      <point x="371" y="0" type="line"/>
      <point x="371" y="47" type="line"/>
      <point x="442" y="47" type="line"/>
      <point x="298" y="193" type="line"/>
      <point x="153" y="47" type="line"/>
      <point x="223" y="47" type="line"/>
      <point x="223" y="0" type="line"/>
      <point x="26" y="0" type="line"/>
      <point x="26" y="47" type="line"/>
      <point x="88" y="47" type="line"/>
      <point x="264" y="225" type="line"/>
      <point x="105" y="383" type="line"/>
      <point x="41" y="383" type="line"/>
      <point x="41" y="430" type="line"/>
      <point x="234" y="430" type="line"/>
    </contour>
  </outline>
</glyph>
<glyph name="y" format="2">
  <advance width="1381"/>
  <unicode hex="0079"/>
  <outline>
    <contour>
      <point x="485.568" y="881.216" type="line"/>
      <point x="327.084" y="881.216" type="line"/>
      <point x="690.136" y="182.088" type="line"/>
      <point x="1091.4" y="881.216" type="line"/>
      <point x="934.044" y="881.216" type="line"/>
      <point x="934.044" y="990.244" type="line"/>
      <point x="1355.54" y="990.244" type="line"/>
      <point x="1355.54" y="881.216" type="line"/>
      <point x="1221.79" y="881.216" type="line"/>
      <point x="577.736" y="-243.908" type="line"/>
      <point x="782.304" y="-243.908" type="line"/>
      <point x="782.304" y="-351.812" type="line"/>
      <point x="92.168" y="-351.812" type="line"/>
      <point x="92.168" y="-243.908" type="line"/>
      <point x="446.228" y="-243.908" type="line"/>
      <point x="623.82" y="61.82" type="line"/>
      <point x="195.576" y="881.216" type="line"/>
      <point x="55.076" y="881.216" type="line"/>
      <point x="55.076" y="990.244" type="line"/>
      <point x="485.568" y="990.244" type="line"/>
    </contour>
  </outline>
</glyph>
<glyph name="braceleft" format="2">
  <advance width="1381"/>
  <unicode hex="007B"/>
  <outline>
    <contour>
      <point x="1061" y="1390" type="line"/>
      <point x="1019" y="1390"/>
      <point x="927" y="1384"/>
      <point x="852" y="1349"/>
      <point x="801" y="1280"/>
      <point x="801" y="1217" type="qcurve"/>
      <point x="801" y="1181"/>
      <point x="810" y="1105"/>
      <point x="828" y="1032" type="qcurve"/>
      <point x="847" y="951" type="line"/>
      <point x="850" y="940"/>
      <point x="859" y="877"/>
      <point x="859" y="850" type="qcurve"/>
      <point x="859" y="808"/>
      <point x="835" y="744"/>
      <point x="799" y="695"/>
      <point x="753" y="656"/>
      <point x="732" y="640" type="qcurve"/>
      <point x="753" y="624"/>
      <point x="797" y="587"/>
      <point x="835" y="538"/>
      <point x="859" y="474"/>
      <point x="859" y="433" type="qcurve"/>
      <point x="859" y="405"/>
      <point x="850" y="343"/>
      <point x="847" y="332" type="qcurve"/>
      <point x="828" y="251" type="line"/>
      <point x="810" y="178"/>
      <point x="801" y="101"/>
      <point x="801" y="62" type="qcurve"/>
      <point x="801" y="0"/>
      <point x="854" y="-69"/>
      <point x="934" y="-101"/>
      <point x="1024" y="-108"/>
      <point x="1061" y="-108" type="qcurve"/>
      <point x="1061" y="-219" type="line"/>
      <point x="969" y="-219" type="line"/>
      <point x="932" y="-219"/>
      <point x="872" y="-200" type="qcurve"/>
      <point x="780" y="-171"/>
      <point x="681" y="-26"/>
      <point x="681" y="66" type="qcurve"/>
      <point x="681" y="83"/>
      <point x="686" y="143"/>
      <point x="695" y="182" type="qcurve"/>
      <point x="695" y="196"/>
      <point x="711" y="262"/>
      <point x="716" y="277" type="qcurve"/>
      <point x="723" y="314"/>
      <point x="736" y="398"/>
      <point x="736" y="437" type="qcurve"/>
      <point x="736" y="483"/>
      <point x="688" y="538"/>
      <point x="624" y="569"/>
      <point x="558" y="580"/>
      <point x="541" y="582" type="qcurve"/>
      <point x="541" y="700" type="line"/>
      <point x="628" y="709"/>
      <point x="736" y="778"/>
      <point x="736" y="850" type="qcurve"/>
      <point x="736" y="870"/>
      <point x="732" y="916"/>
      <point x="725" y="962"/>
      <point x="718" y="997"/>
      <point x="716" y="1006" type="qcurve"/>
      <point x="707" y="1054"/>
      <point x="692" y="1114"/>
      <point x="686" y="1155"/>
      <point x="681" y="1188"/>
      <point x="681" y="1208" type="qcurve"/>
      <point x="681" y="1324"/>
      <point x="782" y="1443"/>
      <point x="914" y="1496"/>
      <point x="1039" y="1501"/>
      <point x="1061" y="1501" type="qcurve"/>
    </contour>
  </outline>
</glyph>
<glyph name="bar" format="2">
  <advance width="1381"/>
  <unicode hex="007C"/>
  <outline>
    <contour>
      <point x="631" y="-426" type="line"/>
      <point x="631" y="1549" type="line"/>
      <point x="753" y="1549" type="line"/>
      <point x="753" y="-426" type="line"/>
    </contour>
  </outline>
</glyph>
<glyph name="cent" format="2">
  <advance width="1381"/>
  <unicode hex="00A2"/>
  <outline>
    <contour>
      <point x="764" y="314" type="line"/>
      <point x="815" y="323"/>
      <point x="891" y="341"/>
      <point x="967" y="369"/>
      <point x="1054" y="415"/>
      <point x="1116" y="453" type="qcurve"/>
      <point x="1171" y="359" type="line"/>
      <point x="1169" y="359"/>
      <point x="1160" y="352"/>
      <point x="1158" y="352" type="qcurve"/>
      <point x="1103" y="316"/>
      <point x="1017" y="268"/>
      <point x="932" y="235"/>
      <point x="833" y="211"/>
      <point x="764" y="200" type="qcurve"/>
      <point x="764" y="-132" type="line"/>
      <point x="652" y="-132" type="line"/>
      <point x="652" y="200" type="line"/>
      <point x="587" y="214"/>
      <point x="492" y="244"/>
      <point x="422" y="285"/>
      <point x="364" y="343"/>
      <point x="336" y="382" type="qcurve"/>
      <point x="301" y="435"/>
      <point x="255" y="564"/>
      <point x="255" y="646" type="qcurve"/>
      <point x="255" y="727"/>
      <point x="308" y="877"/>
      <point x="407" y="997"/>
      <point x="555" y="1080"/>
      <point x="652" y="1096" type="qcurve"/>
      <point x="652" y="1408" type="line"/>
      <point x="764" y="1408" type="line"/>
      <point x="764" y="1096" type="line"/>
      <point x="819" y="1091"/>
      <point x="905" y="1063"/>
      <point x="962" y="1034"/>
      <point x="997" y="1004"/>
      <point x="1001" y="999" type="qcurve"/>
      <point x="1006" y="997"/>
      <point x="1010" y="990"/>
      <point x="1015" y="990" type="qcurve"/>
      <point x="1022" y="990"/>
      <point x="1028" y="1006"/>
      <point x="1036" y="1024"/>
      <point x="1036" y="1034" type="qcurve"/>
      <point x="1039" y="1041"/>
      <point x="1039" y="1043" type="qcurve"/>
      <point x="1041" y="1054"/>
      <point x="1043" y="1068"/>
      <point x="1043" y="1070" type="qcurve"/>
      <point x="1151" y="1059" type="line"/>
      <point x="1144" y="1017"/>
      <point x="1131" y="918"/>
      <point x="1131" y="872" type="qcurve"/>
      <point x="1131" y="850"/>
      <point x="1133" y="787"/>
      <point x="1137" y="734" type="qcurve"/>
      <point x="1028" y="720" type="line"/>
      <point x="1028" y="741"/>
      <point x="1024" y="797"/>
      <point x="1006" y="854"/>
      <point x="971" y="912"/>
      <point x="942" y="932" type="qcurve"/>
      <point x="896" y="964"/>
      <point x="795" y="990"/>
      <point x="764" y="990" type="qcurve"/>
    </contour>
    <contour>
      <point x="652" y="982" type="line"/>
      <point x="547" y="960"/>
      <point x="435" y="856"/>
      <point x="384" y="746"/>
      <point x="375" y="656"/>
      <point x="375" y="650" type="qcurve"/>
      <point x="375" y="598"/>
      <point x="413" y="479"/>
      <point x="453" y="426" type="qcurve"/>
      <point x="499" y="366"/>
      <point x="601" y="327"/>
      <point x="652" y="316" type="qcurve"/>
    </contour>
  </outline>
</glyph>
<glyph name="dieresis" format="2">
  <advance width="1381"/>
  <unicode hex="00A8"/>
  <outline>
    <contour>
      <point x="623.82" y="1429.73" type="line"/>
      <point x="623.82" y="1181.32" type="line"/>
      <point x="458.592" y="1181.32" type="line"/>
      <point x="458.592" y="1429.73" type="line"/>
    </contour>
    <contour>
      <point x="922.804" y="1429.73" type="line"/>
      <point x="922.804" y="1181.32" type="line"/>
      <point x="757.576" y="1181.32" type="line"/>
      <point x="757.576" y="1429.73" type="line"/>
    </contour>
  </outline>
</glyph>
<glyph name="copyright" format="2">
  <advance width="1381"/>
  <unicode hex="00A9"/>
  <outline>
    <contour>
      <point x="925" y="787" type="line"/>
      <point x="921" y="837"/>
      <point x="914" y="907"/>
      <point x="903" y="925" type="qcurve"/>
      <point x="883" y="955"/>
      <point x="787" y="995"/>
      <point x="727" y="995" type="qcurve"/>
      <point x="656" y="995"/>
      <point x="547" y="944"/>
      <point x="474" y="856"/>
      <point x="437" y="741"/>
      <point x="437" y="677" type="qcurve"/>
      <point x="437" y="610"/>
      <point x="477" y="488"/>
      <point x="550" y="396"/>
      <point x="654" y="343"/>
      <point x="720" y="343" type="qcurve"/>
      <point x="776" y="343"/>
      <point x="854" y="378"/>
      <point x="907" y="428"/>
      <point x="942" y="483"/>
      <point x="953" y="507" type="qcurve"/>
      <point x="1008" y="483" type="line"/>
      <point x="967" y="373"/>
      <point x="789" y="272"/>
      <point x="688" y="272" type="qcurve"/>
      <point x="604" y="272"/>
      <point x="468" y="336"/>
      <point x="371" y="444"/>
      <point x="320" y="587"/>
      <point x="320" y="668" type="qcurve"/>
      <point x="320" y="744"/>
      <point x="371" y="886"/>
      <point x="470" y="995"/>
      <point x="619" y="1061"/>
      <point x="718" y="1061" type="qcurve"/>
      <point x="776" y="1061"/>
      <point x="930" y="1032"/>
      <point x="990" y="1010" type="qcurve"/>
      <point x="990" y="787" type="line"/>
    </contour>
    <contour>
      <point x="690" y="1335" type="qcurve"/>
      <point x="828" y="1335"/>
      <point x="1072" y="1232"/>
      <point x="1252" y="1050"/>
      <point x="1358" y="806"/>
      <point x="1358" y="668" type="qcurve"/>
      <point x="1358" y="529"/>
      <point x="1252" y="285"/>
      <point x="1072" y="103"/>
      <point x="828" y="-2"/>
      <point x="690" y="-2" type="qcurve"/>
      <point x="553" y="-2"/>
      <point x="310" y="103"/>
      <point x="129" y="285"/>
      <point x="22" y="529"/>
      <point x="22" y="668" type="qcurve"/>
      <point x="22" y="808"/>
      <point x="129" y="1052"/>
      <point x="310" y="1232"/>
      <point x="555" y="1335"/>
    </contour>
    <contour>
      <point x="690" y="1248" type="qcurve"/>
      <point x="571" y="1248"/>
      <point x="362" y="1158"/>
      <point x="202" y="999"/>
      <point x="110" y="787"/>
      <point x="110" y="665" type="qcurve"/>
      <point x="110" y="545"/>
      <point x="202" y="334"/>
      <point x="362" y="178"/>
      <point x="571" y="85"/>
      <point x="690" y="85" type="qcurve"/>
      <point x="810" y="85"/>
      <point x="1019" y="178"/>
      <point x="1179" y="334"/>
      <point x="1270" y="545"/>
      <point x="1270" y="665" type="qcurve"/>
      <point x="1270" y="785"/>
      <point x="1179" y="999"/>
      <point x="1022" y="1155"/>
      <point x="810" y="1248"/>
    </contour>
  </outline>
</glyph>
<glyph name="guillemotleft" format="2">
  <advance width="533"/>
  <unicode hex="00AB"/>
  <outline>
    <contour>
      <point x="201" y="575" type="line"/>
      <point x="296" y="575" type="line"/>
      <point x="149" y="349" type="line"/>
      <point x="268" y="167" type="line"/>
      <point x="272" y="161"/>
      <point x="292" y="143"/>
      <point x="301" y="142" type="qcurve"/>
      <point x="301" y="120" type="line"/>
      <point x="289" y="120"/>
      <point x="258" y="107"/>
      <point x="228" y="88"/>
      <point x="204" y="68"/>
      <point x="200" y="61" type="qcurve"/>
      <point x="140" y="137" type="line"/>
      <point x="147" y="149" type="line"/>
      <point x="156" y="136" type="line"/>
      <point x="184" y="165" type="line"/>
      <point x="56" y="352" type="line"/>
    </contour>
    <contour>
      <point x="368" y="574" type="line"/>
      <point x="462" y="574" type="line"/>
      <point x="316" y="348" type="line"/>
      <point x="434" y="166" type="line"/>
      <point x="438" y="160"/>
      <point x="458" y="142"/>
      <point x="467" y="141" type="qcurve"/>
      <point x="467" y="119" type="line"/>
      <point x="455" y="119"/>
      <point x="424" y="106"/>
      <point x="395" y="87"/>
      <point x="371" y="67"/>
      <point x="367" y="60" type="qcurve"/>
      <point x="316" y="128" type="line"/>
      <point x="352" y="164" type="line"/>
      <point x="222" y="350" type="line"/>
    </contour>
  </outline>
</glyph>
<glyph name="logicalnot" format="2">
  <advance width="1381"/>
  <unicode hex="00AC"/>
  <outline>
    <contour>
      <point x="1195" y="389" type="line"/>
      <point x="1080" y="389" type="line"/>
      <point x="1080" y="894" type="line"/>
      <point x="207" y="894" type="line"/>
      <point x="207" y="1008" type="line"/>
      <point x="1195" y="1008" type="line"/>
    </contour>
  </outline>
</glyph>
<glyph name="plusminus" format="2">
  <advance width="1381"/>
  <unicode hex="00B1"/>
  <outline>
    <contour>
      <point x="749" y="874" type="line"/>
      <point x="1230" y="874" type="line"/>
      <point x="1230" y="760" type="line"/>
      <point x="749" y="760" type="line"/>
      <point x="749" y="308" type="line"/>
      <point x="633" y="308" type="line"/>
      <point x="633" y="760" type="line"/>
      <point x="152" y="760" type="line"/>
      <point x="152" y="874" type="line"/>
      <point x="633" y="874" type="line"/>
      <point x="633" y="1326" type="line"/>
      <point x="749" y="1326" type="line"/>
    </contour>
    <contour>
      <point x="1230" y="71" type="line"/>
      <point x="152" y="71" type="line"/>
      <point x="152" y="187" type="line"/>
      <point x="1230" y="187" type="line"/>
    </contour>
  </outline>
</glyph>
<glyph name="acute" format="2">
  <advance width="1381"/>
  <unicode hex="00B4"/>
  <outline>
    <contour>
      <point x="494.56" y="1157.72" type="line"/>
      <point x="700.252" y="1422.98" type="line"/>
      <point x="946.408" y="1422.98" type="line"/>
      <point x="617.076" y="1157.72" type="line"/>
    </contour>
  </outline>
</glyph>
<glyph name="paragraph" format="2">
  <advance width="1381"/>
  <unicode hex="00B6"/>
  <outline>
    <contour>
      <point x="1142" y="-108" type="line"/>
      <point x="1142" y="-178" type="line"/>
      <point x="874" y="-178" type="line"/>
      <point x="874" y="-108" type="line"/>
      <point x="918" y="-108" type="line"/>
      <point x="918" y="1227" type="line"/>
      <point x="729" y="1227" type="line"/>
      <point x="729" y="-108" type="line"/>
      <point x="773" y="-108" type="line"/>
      <point x="773" y="-178" type="line"/>
      <point x="483" y="-178" type="line"/>
      <point x="483" y="-108" type="line"/>
      <point x="626" y="-108" type="line"/>
      <point x="626" y="601" type="line"/>
      <point x="560" y="596"/>
      <point x="422" y="624"/>
      <point x="306" y="703"/>
      <point x="233" y="843"/>
      <point x="233" y="953" type="qcurve"/>
      <point x="233" y="1080"/>
      <point x="310" y="1220"/>
      <point x="433" y="1285"/>
      <point x="582" y="1296"/>
      <point x="656" y="1296" type="qcurve"/>
      <point x="1133" y="1296" type="line"/>
      <point x="1133" y="1227" type="line"/>
      <point x="1022" y="1227" type="line"/>
      <point x="1022" y="-108" type="line"/>
    </contour>
    <contour>
      <point x="626" y="1227" type="line"/>
      <point x="587" y="1227"/>
      <point x="514" y="1217"/>
      <point x="456" y="1179"/>
      <point x="419" y="1096"/>
      <point x="419" y="1019" type="qcurve"/>
      <point x="419" y="881" type="line"/>
      <point x="419" y="868"/>
      <point x="428" y="795"/>
      <point x="470" y="718"/>
      <point x="553" y="663"/>
      <point x="626" y="670" type="qcurve"/>
    </contour>
  </outline>
</glyph>
<glyph name="middot" format="2">
  <advance width="1381"/>
  <unicode hex="00B7"/>
  <outline>
    <contour>
      <point x="690" y="854" type="qcurve"/>
      <point x="725" y="854"/>
      <point x="787" y="831"/>
      <point x="837" y="789"/>
      <point x="868" y="732"/>
      <point x="868" y="698" type="qcurve"/>
      <point x="868" y="661"/>
      <point x="835" y="604"/>
      <point x="785" y="562"/>
      <point x="720" y="541"/>
      <point x="690" y="541" type="qcurve"/>
      <point x="661" y="541"/>
      <point x="598" y="562"/>
      <point x="545" y="601"/>
      <point x="514" y="659"/>
      <point x="514" y="698" type="qcurve"/>
      <point x="514" y="734"/>
      <point x="545" y="792"/>
      <point x="596" y="833"/>
      <point x="659" y="854"/>
    </contour>
  </outline>
</glyph>
<glyph name="cedilla" format="2">
  <advance width="1381"/>
  <unicode hex="00B8"/>
  <outline>
    <contour>
      <point x="741" y="-57" type="line"/>
      <point x="799" y="-66"/>
      <point x="863" y="-108"/>
      <point x="896" y="-154"/>
      <point x="903" y="-193"/>
      <point x="903" y="-200" type="qcurve"/>
      <point x="903" y="-211"/>
      <point x="894" y="-255"/>
      <point x="859" y="-299"/>
      <point x="782" y="-334"/>
      <point x="718" y="-334" type="qcurve"/>
      <point x="633" y="-334"/>
      <point x="497" y="-306"/>
      <point x="465" y="-299" type="qcurve"/>
      <point x="481" y="-198" type="line"/>
      <point x="518" y="-207"/>
      <point x="642" y="-230"/>
      <point x="716" y="-230" type="qcurve"/>
      <point x="736" y="-230" type="line"/>
      <point x="755" y="-230"/>
      <point x="795" y="-217"/>
      <point x="795" y="-200" type="qcurve"/>
      <point x="795" y="-169"/>
      <point x="695" y="-147"/>
      <point x="628" y="-143" type="qcurve"/>
      <point x="644" y="-4" type="line"/>
      <point x="749" y="-4" type="line"/>
    </contour>
  </outline>
</glyph>
<glyph name="guillemotright" format="2">
  <advance width="1227"/>
  <unicode hex="00BB"/>
  <outline>
    <contour>
      <point x="773" y="1324" type="line"/>
      <point x="555" y="1324" type="line"/>
      <point x="894" y="804" type="line"/>
      <point x="619" y="384" type="line"/>
      <point x="610" y="371"/>
      <point x="564" y="329"/>
      <point x="543" y="327" type="qcurve"/>
      <point x="543" y="277" type="line"/>
      <point x="571" y="277"/>
      <point x="642" y="246"/>
      <point x="711" y="202"/>
      <point x="764" y="156"/>
      <point x="776" y="141" type="qcurve"/>
      <point x="914" y="316" type="line"/>
      <point x="898" y="343" type="line"/>
      <point x="877" y="314" type="line"/>
      <point x="813" y="380" type="line"/>
      <point x="1107" y="810" type="line"/>
    </contour>
    <contour>
      <point x="389" y="1322" type="line"/>
      <point x="173" y="1322" type="line"/>
      <point x="509" y="801" type="line"/>
      <point x="237" y="382" type="line"/>
      <point x="228" y="369"/>
      <point x="182" y="327"/>
      <point x="161" y="325" type="qcurve"/>
      <point x="161" y="274" type="line"/>
      <point x="189" y="274"/>
      <point x="260" y="244"/>
      <point x="327" y="200"/>
      <point x="380" y="154"/>
      <point x="391" y="138" type="qcurve"/>
      <point x="509" y="294" type="line"/>
      <point x="426" y="378" type="line"/>
      <point x="725" y="806" type="line"/>
    </contour>
  </outline>
</glyph>
<glyph name="threequarters" format="2">
  <advance width="1381"/>
  <unicode hex="00BE"/>
  <outline>
    <contour>
      <point x="1155" y="555" type="line"/>
      <point x="891" y="106" type="line"/>
      <point x="1160" y="106" type="line"/>
      <point x="1160" y="555" type="line"/>
    </contour>
    <contour>
      <point x="1370" y="106" type="line"/>
      <point x="1370" y="20" type="line"/>
      <point x="1248" y="20" type="line"/>
      <point x="1248" y="-94" type="line"/>
      <point x="1370" y="-94" type="line"/>
      <point x="1370" y="-178" type="line"/>
      <point x="1006" y="-178" type="line"/>
      <point x="1006" y="-94" type="line"/>
      <point x="1160" y="-94" type="line"/>
      <point x="1160" y="20" type="line"/>
      <point x="795" y="20" type="line"/>
      <point x="795" y="112" type="line"/>
      <point x="1137" y="681" type="line"/>
      <point x="1248" y="681" type="line"/>
      <point x="1248" y="106" type="line"/>
    </contour>
    <contour>
      <point x="66" y="1338" type="line"/>
      <point x="149" y="1390"/>
      <point x="255" y="1432"/>
      <point x="314" y="1432" type="qcurve"/>
      <point x="364" y="1432"/>
      <point x="453" y="1397"/>
      <point x="520" y="1340"/>
      <point x="558" y="1259"/>
      <point x="558" y="1213" type="qcurve"/>
      <point x="558" y="1155"/>
      <point x="514" y="1070"/>
      <point x="465" y="1032" type="qcurve"/>
      <point x="598" y="955"/>
      <point x="598" y="815" type="qcurve"/>
      <point x="598" y="698"/>
      <point x="437" y="555"/>
      <point x="314" y="555" type="qcurve"/>
      <point x="288" y="555"/>
      <point x="244" y="560"/>
      <point x="193" y="573"/>
      <point x="134" y="593"/>
      <point x="92" y="610" type="qcurve"/>
      <point x="51" y="626" type="line"/>
      <point x="85" y="707" type="line"/>
      <point x="163" y="670"/>
      <point x="268" y="642"/>
      <point x="318" y="642" type="qcurve"/>
      <point x="400" y="642"/>
      <point x="507" y="736"/>
      <point x="507" y="815" type="qcurve"/>
      <point x="507" y="894"/>
      <point x="410" y="982"/>
      <point x="314" y="978" type="qcurve"/>
      <point x="262" y="976" type="line"/>
      <point x="262" y="1061" type="line"/>
      <point x="323" y="1063"/>
      <point x="380" y="1075"/>
      <point x="405" y="1094" type="qcurve"/>
      <point x="465" y="1135"/>
      <point x="465" y="1211" type="qcurve"/>
      <point x="465" y="1270"/>
      <point x="380" y="1344"/>
      <point x="314" y="1344" type="qcurve"/>
      <point x="274" y="1344"/>
      <point x="200" y="1316"/>
      <point x="145" y="1285" type="qcurve"/>
      <point x="110" y="1263" type="line"/>
    </contour>
    <contour>
      <point x="219" y="-207" type="line"/>
      <point x="154" y="-156" type="line"/>
      <point x="1329" y="1457" type="line"/>
      <point x="1393" y="1411" type="line"/>
    </contour>
  </outline>
</glyph>
<glyph name="Oslash" format="2">
  <advance width="1381"/>
  <unicode hex="00D8"/>
  <outline>
    <contour>
      <point x="147" y="9" type="line"/>
      <point x="262" y="158" type="line"/>
      <point x="233" y="198"/>
      <point x="173" y="292"/>
      <point x="127" y="410"/>
      <point x="99" y="555"/>
      <point x="99" y="644" type="qcurve"/>
      <point x="99" y="787"/>
      <point x="182" y="1039"/>
      <point x="336" y="1227"/>
      <point x="555" y="1335"/>
      <point x="692" y="1335" type="qcurve"/>
      <point x="771" y="1335"/>
      <point x="889" y="1305"/>
      <point x="976" y="1261"/>
      <point x="1041" y="1211"/>
      <point x="1066" y="1193" type="qcurve"/>
      <point x="1155" y="1305" type="line"/>
      <point x="1236" y="1245" type="line"/>
      <point x="1135" y="1116" type="line"/>
      <point x="1190" y="1050"/>
      <point x="1250" y="898"/>
      <point x="1278" y="760"/>
      <point x="1282" y="659"/>
      <point x="1282" y="642" type="qcurve"/>
      <point x="1282" y="507"/>
      <point x="1202" y="257"/>
      <point x="1050" y="71"/>
      <point x="833" y="-39"/>
      <point x="700" y="-39" type="qcurve"/>
      <point x="631" y="-39"/>
      <point x="444" y="2"/>
      <point x="341" y="85" type="qcurve"/>
      <point x="226" y="-53" type="line"/>
    </contour>
    <contour>
      <point x="407" y="180" type="line"/>
      <point x="424" y="165"/>
      <point x="472" y="132"/>
      <point x="541" y="99"/>
      <point x="631" y="76"/>
      <point x="690" y="76" type="qcurve"/>
      <point x="797" y="76"/>
      <point x="969" y="165"/>
      <point x="1091" y="320"/>
      <point x="1158" y="527"/>
      <point x="1158" y="644" type="qcurve"/>
      <point x="1158" y="845"/>
      <point x="1057" y="1015" type="qcurve"/>
    </contour>
    <contour>
      <point x="992" y="1098" type="line"/>
      <point x="958" y="1137"/>
      <point x="877" y="1186"/>
      <point x="797" y="1211"/>
      <point x="718" y="1220"/>
      <point x="688" y="1220" type="qcurve"/>
      <point x="578" y="1220"/>
      <point x="405" y="1123"/>
      <point x="285" y="964"/>
      <point x="224" y="760"/>
      <point x="224" y="652" type="qcurve"/>
      <point x="224" y="619"/>
      <point x="233" y="520"/>
      <point x="260" y="410"/>
      <point x="306" y="299"/>
      <point x="341" y="257" type="qcurve"/>
    </contour>
  </outline>
</glyph>
<glyph name="ydieresis" format="2">
  <advance width="1381"/>
  <unicode hex="00FF"/>
  <outline>
    <contour>
      <point x="55" y="990" type="line"/>
      <point x="55" y="881" type="line"/>
      <point x="196" y="881" type="line"/>
      <point x="624" y="62" type="line"/>
      <point x="446" y="-244" type="line"/>
      <point x="92" y="-244" type="line"/>
      <point x="92" y="-352" type="line"/>
      <point x="782" y="-352" type="line"/>
      <point x="782" y="-244" type="line"/>
      <point x="578" y="-244" type="line"/>
      <point x="1222" y="881" type="line"/>
      <point x="1356" y="881" type="line"/>
      <point x="1356" y="990" type="line"/>
      <point x="934" y="990" type="line"/>
      <point x="934" y="881" type="line"/>
      <point x="1091" y="881" type="line"/>
      <point x="690" y="182" type="line"/>
      <point x="327" y="881" type="line"/>
      <point x="486" y="881" type="line"/>
      <point x="486" y="990" type="line"/>
    </contour>
    <contour>
      <point x="459" y="1181" type="line"/>
      <point x="624" y="1181" type="line"/>
      <point x="624" y="1430" type="line"/>
      <point x="459" y="1430" type="line"/>
    </contour>
    <contour>
      <point x="758" y="1181" type="line"/>
      <point x="923" y="1181" type="line"/>
      <point x="923" y="1430" type="line"/>
      <point x="758" y="1430" type="line"/>
    </contour>
  </outline>
</glyph>
<glyph name="OE" format="2">
  <advance width="600"/>
  <unicode hex="0152"/>
  <outline>
    <contour>
      <point x="537" y="383" type="line"/>
      <point x="493" y="383" type="line"/>
      <point x="484" y="516" type="line"/>
      <point x="352" y="516" type="line"/>
      <point x="352" y="322" type="line"/>
      <point x="417" y="322" type="line"/>
      <point x="417" y="395" type="line"/>
      <point x="463" y="395" type="line"/>
      <point x="463" y="202" type="line"/>
      <point x="417" y="202" type="line"/>
      <point x="417" y="275" type="line"/>
      <point x="352" y="275" type="line"/>
      <point x="352" y="47" type="line"/>
      <point x="498" y="47" type="line"/>
      <point x="504" y="185" type="line"/>
      <point x="550" y="185" type="line"/>
      <point x="550" y="0" type="line"/>
      <point x="242" y="0" type="line"/>
      <point x="183" y="0"/>
      <point x="98" y="54"/>
      <point x="43" y="136"/>
      <point x="16" y="233"/>
      <point x="16" y="277" type="qcurve"/>
      <point x="16" y="337"/>
      <point x="54" y="441"/>
      <point x="123" y="519"/>
      <point x="220" y="563"/>
      <point x="279" y="563" type="qcurve"/>
      <point x="537" y="563" type="line"/>
    </contour>
    <contour>
      <point x="276" y="516" type="line"/>
      <point x="226" y="516"/>
      <point x="149" y="478"/>
      <point x="97" y="413"/>
      <point x="70" y="327"/>
      <point x="70" y="280" type="qcurve"/>
      <point x="70" y="243"/>
      <point x="91" y="161"/>
      <point x="136" y="92"/>
      <point x="207" y="47"/>
      <point x="258" y="47" type="qcurve"/>
      <point x="302" y="47" type="line"/>
      <point x="302" y="516" type="line"/>
    </contour>
  </outline>
</glyph>
<glyph name="circumflex" format="2">
  <advance width="1381"/>
  <unicode hex="02C6"/>
  <outline>
    <contour>
      <point x="985.748" y="1212.8" type="line"/>
      <point x="911.564" y="1155.47" type="line"/>
      <point x="678.896" y="1307.21" type="line"/>
      <point x="469.832" y="1155.47" type="line"/>
      <point x="393.4" y="1210.55" type="line"/>
      <point x="595.72" y="1429.73" type="line"/>
      <point x="773.312" y="1429.73" type="line"/>
    </contour>
  </outline>
</glyph>
<glyph name="tilde" format="2">
  <advance width="1381"/>
  <unicode hex="02DC"/>
  <outline>
    <contour>
      <point x="1058.81" y="1394.88" type="line"/>
      <point x="1054.31" y="1390.39"/>
      <point x="1054.31" y="1379.15" type="qcurve"/>
      <point x="1026.21" y="1282.48"/>
      <point x="902.572" y="1183.57"/>
      <point x="828.388" y="1183.57" type="qcurve"/>
      <point x="789.048" y="1183.57"/>
      <point x="718.236" y="1215.04"/>
      <point x="665.408" y="1256.63" type="qcurve"/>
      <point x="610.332" y="1298.22"/>
      <point x="564.248" y="1324.07"/>
      <point x="538.396" y="1324.07" type="qcurve"/>
      <point x="492.312" y="1324.07"/>
      <point x="437.236" y="1249.89"/>
      <point x="419.252" y="1203.8" type="qcurve"/>
      <point x="419.252" y="1201.56"/>
      <point x="417.004" y="1197.06" type="qcurve"/>
      <point x="414.756" y="1190.32" type="line"/>
      <point x="322.588" y="1221.79" type="line"/>
      <point x="354.06" y="1309.46"/>
      <point x="452.972" y="1427.48"/>
      <point x="538.396" y="1427.48" type="qcurve"/>
      <point x="593.472" y="1427.48"/>
      <point x="672.152" y="1381.4"/>
      <point x="709.244" y="1348.8" type="qcurve"/>
      <point x="753.08" y="1316.2"/>
      <point x="810.404" y="1286.98"/>
      <point x="835.132" y="1286.98" type="qcurve"/>
      <point x="865.48" y="1286.98"/>
      <point x="909.316" y="1316.2"/>
      <point x="939.664" y="1360.04"/>
      <point x="959.896" y="1406.12"/>
      <point x="966.64" y="1425.23" type="qcurve"/>
    </contour>
  </outline>
</glyph>
<glyph name="uni1200" format="2">
  <advance width="596"/>
  <unicode hex="1200"/>
  <outline>
    <contour>
      <point x="381" y="59" type="qcurve"/>
      <point x="381" y="39" type="line"/>
      <point x="394" y="39"/>
      <point x="429" y="27"/>
      <point x="462" y="10"/>
      <point x="488" y="-8"/>
      <point x="493" y="-14" type="qcurve"/>
      <point x="564" y="58" type="line"/>
      <point x="556" y="69" type="line"/>
      <point x="538" y="53" type="line"/>
      <point x="511" y="79" type="line"/>
      <point x="511" y="538" type="line"/>
      <point x="542" y="538"/>
      <point x="586" y="580"/>
      <point x="586" y="608" type="qcurve"/>
      <point x="586" y="630"/>
      <point x="564" y="649"/>
      <point x="549" y="654" type="qcurve"/>
      <point x="544" y="647" type="line"/>
      <point x="555" y="645"/>
      <point x="571" y="629"/>
      <point x="571" y="620" type="qcurve"/>
      <point x="571" y="608"/>
      <point x="549" y="591"/>
      <point x="533" y="591" type="qcurve"/>
      <point x="519" y="591"/>
      <point x="485" y="606"/>
      <point x="452" y="631"/>
      <point x="426" y="665"/>
      <point x="422" y="684" type="qcurve"/>
      <point x="406" y="684" type="line"/>
      <point x="401" y="661"/>
      <point x="360" y="613"/>
      <point x="337" y="601" type="qcurve"/>
      <point x="337" y="588" type="line"/>
      <point x="346" y="588"/>
      <point x="366" y="582"/>
      <point x="384" y="573"/>
      <point x="396" y="560"/>
      <point x="396" y="554" type="qcurve"/>
      <point x="396" y="97" type="line"/>
      <point x="277" y="40" type="line"/>
      <point x="220" y="80" type="line"/>
      <point x="220" y="563" type="line"/>
      <point x="220" y="598"/>
      <point x="202" y="645"/>
      <point x="170" y="673"/>
      <point x="128" y="684"/>
      <point x="104" y="684" type="qcurve"/>
      <point x="86" y="684"/>
      <point x="49" y="668"/>
      <point x="19" y="642"/>
      <point x="0" y="608"/>
      <point x="0" y="591" type="qcurve"/>
      <point x="0" y="579"/>
      <point x="2" y="575" type="qcurve"/>
      <point x="7" y="575" type="line"/>
      <point x="7" y="593"/>
      <point x="41" y="616"/>
      <point x="61" y="616" type="qcurve"/>
      <point x="79" y="616"/>
      <point x="104" y="587"/>
      <point x="104" y="558" type="qcurve"/>
      <point x="104" y="100" type="line"/>
      <point x="104" y="80"/>
      <point x="89" y="80" type="qcurve"/>
      <point x="89" y="60" type="line"/>
      <point x="106" y="60"/>
      <point x="140" y="44"/>
      <point x="172" y="21"/>
      <point x="200" y="-4"/>
      <point x="211" y="-13" type="qcurve"/>
      <point x="396" y="80" type="line"/>
      <point x="396" y="79" type="line"/>
      <point x="396" y="59"/>
    </contour>
  </outline>
</glyph>
<glyph name="uni1201" format="2">
  <advance width="1424"/>
  <unicode hex="1201"/>
  <outline>
    <contour>
      <point x="727" y="109" type="qcurve"/>
      <point x="727" y="71" type="line"/>
      <point x="752" y="71"/>
      <point x="819" y="48"/>
      <point x="881" y="15"/>
      <point x="931" y="-19"/>
      <point x="941" y="-31" type="qcurve"/>
      <point x="1076" y="107" type="line"/>
      <point x="1061" y="128" type="line"/>
      <point x="1027" y="97" type="line"/>
      <point x="975" y="147" type="line"/>
      <point x="975" y="664" type="line"/>
      <point x="1053" y="717" type="line"/>
      <point x="1138" y="648" type="line"/>
      <point x="1127" y="635"/>
      <point x="1124" y="579"/>
      <point x="1124" y="568" type="qcurve"/>
      <point x="1124" y="540"/>
      <point x="1147" y="490"/>
      <point x="1185" y="450"/>
      <point x="1235" y="428"/>
      <point x="1262" y="428" type="qcurve"/>
      <point x="1330" y="428"/>
      <point x="1404" y="466"/>
      <point x="1404" y="515" type="qcurve"/>
      <point x="1404" y="536"/>
      <point x="1397" y="553"/>
      <point x="1391" y="559" type="qcurve"/>
      <point x="1366" y="559" type="line"/>
      <point x="1370" y="553"/>
      <point x="1380" y="528"/>
      <point x="1380" y="521" type="qcurve"/>
      <point x="1380" y="500"/>
      <point x="1345" y="483"/>
      <point x="1324" y="483" type="qcurve"/>
      <point x="1305" y="483"/>
      <point x="1271" y="542"/>
      <point x="1271" y="579" type="qcurve"/>
      <point x="1271" y="599"/>
      <point x="1313" y="670"/>
      <point x="1347" y="697" type="qcurve"/>
      <point x="1347" y="721" type="line"/>
      <point x="1330" y="721"/>
      <point x="1273" y="746"/>
      <point x="1218" y="779"/>
      <point x="1176" y="812"/>
      <point x="1176" y="825" type="qcurve"/>
      <point x="1149" y="825" type="line"/>
      <point x="975" y="708" type="line"/>
      <point x="975" y="1027" type="line"/>
      <point x="1034" y="1027"/>
      <point x="1118" y="1107"/>
      <point x="1118" y="1160" type="qcurve"/>
      <point x="1118" y="1202"/>
      <point x="1076" y="1238"/>
      <point x="1047" y="1248" type="qcurve"/>
      <point x="1038" y="1235" type="line"/>
      <point x="1059" y="1231"/>
      <point x="1089" y="1200"/>
      <point x="1089" y="1183" type="qcurve"/>
      <point x="1089" y="1160"/>
      <point x="1047" y="1127"/>
      <point x="1017" y="1127" type="qcurve"/>
      <point x="990" y="1127"/>
      <point x="925" y="1156"/>
      <point x="863" y="1204"/>
      <point x="812" y="1269"/>
      <point x="805" y="1305" type="qcurve"/>
      <point x="774" y="1305" type="line"/>
      <point x="765" y="1262"/>
      <point x="687" y="1169"/>
      <point x="643" y="1147" type="qcurve"/>
      <point x="643" y="1124" type="line"/>
      <point x="661" y="1124"/>
      <point x="699" y="1112"/>
      <point x="732" y="1096"/>
      <point x="756" y="1071"/>
      <point x="756" y="1059" type="qcurve"/>
      <point x="756" y="193" type="line"/>
      <point x="528" y="76" type="line"/>
      <point x="420" y="153" type="line"/>
      <point x="420" y="1074" type="line"/>
      <point x="420" y="1141"/>
      <point x="386" y="1231"/>
      <point x="324" y="1284"/>
      <point x="244" y="1305"/>
      <point x="198" y="1305" type="qcurve"/>
      <point x="164" y="1305"/>
      <point x="93" y="1275"/>
      <point x="36" y="1225"/>
      <point x="0" y="1160"/>
      <point x="0" y="1127" type="qcurve"/>
      <point x="0" y="1105"/>
      <point x="4" y="1098" type="qcurve"/>
      <point x="13" y="1098" type="line"/>
      <point x="13" y="1131"/>
      <point x="78" y="1176"/>
      <point x="116" y="1176" type="qcurve"/>
      <point x="151" y="1176"/>
      <point x="198" y="1120"/>
      <point x="198" y="1065" type="qcurve"/>
      <point x="198" y="191" type="line"/>
      <point x="198" y="153"/>
      <point x="170" y="153" type="qcurve"/>
      <point x="170" y="115" type="line"/>
      <point x="202" y="115"/>
      <point x="267" y="84"/>
      <point x="328" y="40"/>
      <point x="382" y="-7"/>
      <point x="402" y="-25" type="qcurve"/>
      <point x="756" y="160" type="line"/>
      <point x="756" y="147" type="line"/>
      <point x="756" y="109"/>
    </contour>
  </outline>
</glyph>
<glyph name="uni1202" format="2">
  <advance width="1280"/>
  <unicode hex="1202"/>
  <outline>
    <contour>
      <point x="674" y="151" type="qcurve"/>
      <point x="674" y="115" type="line"/>
      <point x="689" y="115"/>
      <point x="756" y="75"/>
      <point x="825" y="25"/>
      <point x="876" y="-21"/>
      <point x="876" y="-27" type="qcurve"/>
      <point x="905" y="-27" type="line"/>
      <point x="956" y="13"/>
      <point x="1056" y="84"/>
      <point x="1141" y="137"/>
      <point x="1204" y="168"/>
      <point x="1220" y="168" type="qcurve"/>
      <point x="1220" y="193" type="line"/>
      <point x="1202" y="206"/>
      <point x="1169" y="246"/>
      <point x="1147" y="288"/>
      <point x="1131" y="326"/>
      <point x="1131" y="337" type="qcurve"/>
      <point x="1131" y="388"/>
      <point x="1162" y="439"/>
      <point x="1181" y="439" type="qcurve"/>
      <point x="1202" y="439"/>
      <point x="1233" y="410"/>
      <point x="1233" y="389" type="qcurve"/>
      <point x="1233" y="388" type="line"/>
      <point x="1262" y="388" type="line"/>
      <point x="1262" y="389" type="line"/>
      <point x="1262" y="420"/>
      <point x="1235" y="450"/>
      <point x="1207" y="470"/>
      <point x="1162" y="483"/>
      <point x="1107" y="483" type="qcurve"/>
      <point x="1080" y="483"/>
      <point x="1034" y="456"/>
      <point x="1000" y="416"/>
      <point x="981" y="370"/>
      <point x="981" y="353" type="qcurve"/>
      <point x="981" y="322"/>
      <point x="1000" y="250"/>
      <point x="1029" y="185"/>
      <point x="1063" y="135"/>
      <point x="1080" y="128" type="qcurve"/>
      <point x="994" y="75" type="line"/>
      <point x="965" y="75"/>
      <point x="925" y="105"/>
      <point x="925" y="126" type="qcurve"/>
      <point x="925" y="1098" type="line"/>
      <point x="985" y="1098"/>
      <point x="1069" y="1178"/>
      <point x="1069" y="1231" type="qcurve"/>
      <point x="1069" y="1273"/>
      <point x="1027" y="1309"/>
      <point x="998" y="1318" type="qcurve"/>
      <point x="989" y="1305" type="line"/>
      <point x="1009" y="1302"/>
      <point x="1040" y="1271"/>
      <point x="1040" y="1254" type="qcurve"/>
      <point x="1040" y="1231"/>
      <point x="998" y="1198"/>
      <point x="967" y="1198" type="qcurve"/>
      <point x="941" y="1198"/>
      <point x="876" y="1227"/>
      <point x="812" y="1275"/>
      <point x="763" y="1340"/>
      <point x="756" y="1376" type="qcurve"/>
      <point x="725" y="1376" type="line"/>
      <point x="716" y="1332"/>
      <point x="637" y="1240"/>
      <point x="593" y="1218" type="qcurve"/>
      <point x="593" y="1193" type="line"/>
      <point x="610" y="1193"/>
      <point x="648" y="1181"/>
      <point x="683" y="1164"/>
      <point x="706" y="1139"/>
      <point x="706" y="1127" type="qcurve"/>
      <point x="706" y="717" type="line"/>
      <point x="526" y="648" type="line"/>
      <point x="420" y="734" type="line"/>
      <point x="420" y="1145" type="line"/>
      <point x="420" y="1211"/>
      <point x="386" y="1302"/>
      <point x="324" y="1355"/>
      <point x="244" y="1376"/>
      <point x="198" y="1376" type="qcurve"/>
      <point x="164" y="1376"/>
      <point x="93" y="1345"/>
      <point x="36" y="1296"/>
      <point x="0" y="1231"/>
      <point x="0" y="1198" type="qcurve"/>
      <point x="0" y="1176"/>
      <point x="4" y="1167" type="qcurve"/>
      <point x="13" y="1167" type="line"/>
      <point x="13" y="1202"/>
      <point x="78" y="1246"/>
      <point x="116" y="1246" type="qcurve"/>
      <point x="151" y="1246"/>
      <point x="198" y="1191"/>
      <point x="198" y="1136" type="qcurve"/>
      <point x="198" y="772" type="line"/>
      <point x="198" y="734"/>
      <point x="170" y="734" type="qcurve"/>
      <point x="170" y="697" type="line"/>
      <point x="202" y="697"/>
      <point x="267" y="666"/>
      <point x="328" y="622"/>
      <point x="382" y="574"/>
      <point x="402" y="557" type="qcurve"/>
      <point x="706" y="675" type="line"/>
      <point x="706" y="193" type="line"/>
      <point x="706" y="166"/>
      <point x="689" y="151"/>
    </contour>
  </outline>
</glyph>
<glyph name="uni1203" format="2">
  <advance width="570"/>
  <unicode hex="1203"/>
  <outline>
    <contour>
      <point x="355" y="60" type="line"/>
      <point x="355" y="40" type="line"/>
      <point x="368" y="40"/>
      <point x="403" y="28"/>
      <point x="436" y="11"/>
      <point x="462" y="-7"/>
      <point x="467" y="-13" type="qcurve"/>
      <point x="538" y="59" type="line"/>
      <point x="530" y="70" type="line"/>
      <point x="512" y="54" type="line"/>
      <point x="485" y="80" type="line"/>
      <point x="485" y="573" type="line"/>
      <point x="516" y="573"/>
      <point x="560" y="615"/>
      <point x="560" y="643" type="qcurve"/>
      <point x="560" y="665"/>
      <point x="538" y="684"/>
      <point x="523" y="689" type="qcurve"/>
      <point x="518" y="682" type="line"/>
      <point x="529" y="680"/>
      <point x="545" y="664"/>
      <point x="545" y="655" type="qcurve"/>
      <point x="545" y="643"/>
      <point x="523" y="626"/>
      <point x="507" y="626" type="qcurve"/>
      <point x="493" y="626"/>
      <point x="459" y="641"/>
      <point x="426" y="666"/>
      <point x="400" y="700"/>
      <point x="396" y="719" type="qcurve"/>
      <point x="380" y="719" type="line"/>
      <point x="375" y="696"/>
      <point x="334" y="648"/>
      <point x="311" y="636" type="qcurve"/>
      <point x="311" y="623" type="line"/>
      <point x="320" y="623"/>
      <point x="340" y="617"/>
      <point x="358" y="608"/>
      <point x="370" y="595"/>
      <point x="370" y="589" type="qcurve"/>
      <point x="370" y="374" type="line"/>
      <point x="276" y="340" type="line"/>
      <point x="220" y="383" type="line"/>
      <point x="220" y="598" type="line"/>
      <point x="220" y="633"/>
      <point x="202" y="680"/>
      <point x="170" y="708"/>
      <point x="128" y="719"/>
      <point x="104" y="719" type="qcurve"/>
      <point x="86" y="719"/>
      <point x="49" y="703"/>
      <point x="19" y="677"/>
      <point x="0" y="643"/>
      <point x="0" y="626" type="qcurve"/>
      <point x="0" y="614"/>
      <point x="2" y="610" type="qcurve"/>
      <point x="7" y="610" type="line"/>
      <point x="7" y="628"/>
      <point x="41" y="651"/>
      <point x="61" y="651" type="qcurve"/>
      <point x="79" y="651"/>
      <point x="104" y="622"/>
      <point x="104" y="593" type="qcurve"/>
      <point x="104" y="403" type="line"/>
      <point x="104" y="383"/>
      <point x="89" y="383" type="qcurve"/>
      <point x="89" y="363" type="line"/>
      <point x="106" y="363"/>
      <point x="140" y="347"/>
      <point x="172" y="324"/>
      <point x="200" y="299"/>
      <point x="211" y="290" type="qcurve"/>
      <point x="370" y="352" type="line"/>
      <point x="370" y="80" type="line"/>
      <point x="370" y="60"/>
      <point x="355" y="60" type="qcurve"/>
    </contour>
  </outline>
</glyph>
<glyph name="uni1204" format="2">
  <advance width="1187"/>
  <unicode hex="1204"/>
  <outline>
    <contour>
      <point x="677" y="151" type="qcurve"/>
      <point x="677" y="113" type="line"/>
      <point x="692" y="113"/>
      <point x="757" y="73"/>
      <point x="828" y="25"/>
      <point x="885" y="-21"/>
      <point x="891" y="-27" type="qcurve"/>
      <point x="1167" y="99" type="line"/>
      <point x="1167" y="124" type="line"/>
      <point x="1158" y="116"/>
      <point x="1139" y="115" type="qcurve"/>
      <point x="1139" y="408" type="line"/>
      <point x="1134" y="408"/>
      <point x="1103" y="416"/>
      <point x="1072" y="431"/>
      <point x="1047" y="454"/>
      <point x="1047" y="468" type="qcurve"/>
      <point x="1019" y="468" type="line"/>
      <point x="1019" y="462"/>
      <point x="998" y="443"/>
      <point x="967" y="420"/>
      <point x="935" y="401"/>
      <point x="925" y="397" type="qcurve"/>
      <point x="925" y="1096" type="line"/>
      <point x="985" y="1096"/>
      <point x="1069" y="1176"/>
      <point x="1069" y="1229" type="qcurve"/>
      <point x="1069" y="1271"/>
      <point x="1027" y="1307"/>
      <point x="998" y="1316" type="qcurve"/>
      <point x="989" y="1303" type="line"/>
      <point x="1009" y="1300"/>
      <point x="1040" y="1269"/>
      <point x="1040" y="1251" type="qcurve"/>
      <point x="1040" y="1229"/>
      <point x="998" y="1196"/>
      <point x="967" y="1196" type="qcurve"/>
      <point x="941" y="1196"/>
      <point x="876" y="1225"/>
      <point x="812" y="1273"/>
      <point x="763" y="1338"/>
      <point x="756" y="1374" type="qcurve"/>
      <point x="725" y="1374" type="line"/>
      <point x="716" y="1330"/>
      <point x="637" y="1238"/>
      <point x="593" y="1216" type="qcurve"/>
      <point x="593" y="1191" type="line"/>
      <point x="610" y="1191"/>
      <point x="648" y="1180"/>
      <point x="683" y="1162"/>
      <point x="706" y="1138"/>
      <point x="706" y="1125" type="qcurve"/>
      <point x="706" y="716" type="line"/>
      <point x="526" y="648" type="line"/>
      <point x="420" y="732" type="line"/>
      <point x="420" y="1143" type="line"/>
      <point x="420" y="1209"/>
      <point x="386" y="1300"/>
      <point x="324" y="1353"/>
      <point x="244" y="1374"/>
      <point x="198" y="1374" type="qcurve"/>
      <point x="164" y="1374"/>
      <point x="93" y="1344"/>
      <point x="36" y="1294"/>
      <point x="0" y="1229"/>
      <point x="0" y="1196" type="qcurve"/>
      <point x="0" y="1174"/>
      <point x="4" y="1166" type="qcurve"/>
      <point x="13" y="1166" type="line"/>
      <point x="13" y="1200"/>
      <point x="78" y="1244"/>
      <point x="116" y="1244" type="qcurve"/>
      <point x="151" y="1244"/>
      <point x="198" y="1189"/>
      <point x="198" y="1134" type="qcurve"/>
      <point x="198" y="771" type="line"/>
      <point x="198" y="732"/>
      <point x="170" y="732" type="qcurve"/>
      <point x="170" y="694" type="line"/>
      <point x="202" y="694"/>
      <point x="267" y="664"/>
      <point x="328" y="621"/>
      <point x="382" y="572"/>
      <point x="402" y="555" type="qcurve"/>
      <point x="706" y="674" type="line"/>
      <point x="706" y="191" type="line"/>
      <point x="706" y="173"/>
      <point x="692" y="151"/>
    </contour>
    <contour>
      <point x="1051" y="366" type="line"/>
      <point x="1051" y="105" type="line"/>
      <point x="1032" y="97" type="line"/>
      <point x="983" y="97"/>
      <point x="925" y="118"/>
      <point x="925" y="157" type="qcurve"/>
      <point x="925" y="366" type="line"/>
      <point x="952" y="378"/>
      <point x="989" y="401"/>
      <point x="1005" y="410" type="qcurve"/>
    </contour>
  </outline>
</glyph>
<glyph name="uni1205" format="2">
  <advance width="596"/>
  <unicode hex="1205"/>
  <outline>
    <contour>
      <point x="381" y="57" type="qcurve"/>
      <point x="381" y="37" type="line"/>
      <point x="394" y="37"/>
      <point x="429" y="25"/>
      <point x="462" y="8"/>
      <point x="488" y="-10"/>
      <point x="493" y="-16" type="qcurve"/>
      <point x="564" y="56" type="line"/>
      <point x="556" y="67" type="line"/>
      <point x="538" y="51" type="line"/>
      <point x="511" y="77" type="line"/>
      <point x="511" y="538" type="line"/>
      <point x="542" y="538"/>
      <point x="586" y="580"/>
      <point x="586" y="608" type="qcurve"/>
      <point x="586" y="630"/>
      <point x="564" y="649"/>
      <point x="549" y="654" type="qcurve"/>
      <point x="544" y="647" type="line"/>
      <point x="555" y="645"/>
      <point x="571" y="629"/>
      <point x="571" y="620" type="qcurve"/>
      <point x="571" y="608"/>
      <point x="549" y="591"/>
      <point x="533" y="591" type="qcurve"/>
      <point x="519" y="591"/>
      <point x="485" y="606"/>
      <point x="452" y="631"/>
      <point x="426" y="665"/>
      <point x="422" y="684" type="qcurve"/>
      <point x="406" y="684" type="line"/>
      <point x="401" y="661"/>
      <point x="360" y="613"/>
      <point x="337" y="601" type="qcurve"/>
      <point x="337" y="588" type="line"/>
      <point x="346" y="588"/>
      <point x="366" y="582"/>
      <point x="384" y="573"/>
      <point x="396" y="560"/>
      <point x="396" y="554" type="qcurve"/>
      <point x="396" y="99" type="line"/>
      <point x="277" y="39" type="line"/>
      <point x="220" y="80" type="line"/>
      <point x="220" y="563" type="line"/>
      <point x="220" y="598"/>
      <point x="202" y="645"/>
      <point x="170" y="673"/>
      <point x="128" y="684"/>
      <point x="104" y="684" type="qcurve"/>
      <point x="86" y="684"/>
      <point x="49" y="668"/>
      <point x="19" y="642"/>
      <point x="0" y="608"/>
      <point x="0" y="591" type="qcurve"/>
      <point x="0" y="579"/>
      <point x="2" y="575" type="qcurve"/>
      <point x="7" y="575" type="line"/>
      <point x="7" y="593"/>
      <point x="41" y="616"/>
      <point x="61" y="616" type="qcurve"/>
      <point x="79" y="616"/>
      <point x="104" y="587"/>
      <point x="104" y="558" type="qcurve"/>
      <point x="104" y="465" type="line"/>
      <point x="115" y="465"/>
      <point x="146" y="446"/>
      <point x="175" y="415"/>
      <point x="195" y="376"/>
      <point x="195" y="356" type="qcurve"/>
      <point x="187" y="369"/>
      <point x="162" y="388"/>
      <point x="136" y="401"/>
      <point x="111" y="408"/>
      <point x="104" y="408" type="qcurve"/>
      <point x="104" y="100" type="line"/>
      <point x="104" y="80"/>
      <point x="89" y="80" type="qcurve"/>
      <point x="89" y="60" type="line"/>
      <point x="106" y="60"/>
      <point x="140" y="44"/>
      <point x="172" y="21"/>
      <point x="200" y="-4"/>
      <point x="211" y="-13" type="qcurve"/>
      <point x="396" y="82" type="line"/>
      <point x="396" y="77" type="line"/>
      <point x="396" y="57"/>
    </contour>
  </outline>
</glyph>
<glyph name="uni1206" format="2">
  <advance width="1235"/>
  <unicode hex="1206"/>
  <outline>
    <contour>
      <point x="727" y="103" type="qcurve"/>
      <point x="727" y="65" type="line"/>
      <point x="752" y="65"/>
      <point x="819" y="42"/>
      <point x="881" y="9"/>
      <point x="931" y="-25"/>
      <point x="941" y="-36" type="qcurve"/>
      <point x="1076" y="102" type="line"/>
      <point x="1061" y="122" type="line"/>
      <point x="1027" y="91" type="line"/>
      <point x="975" y="142" type="line"/>
      <point x="975" y="683" type="line"/>
      <point x="985" y="690"/>
      <point x="1053" y="725"/>
      <point x="1134" y="759"/>
      <point x="1204" y="786"/>
      <point x="1216" y="786" type="qcurve"/>
      <point x="1216" y="805" type="line"/>
      <point x="1187" y="805"/>
      <point x="1187" y="843" type="qcurve"/>
      <point x="1187" y="1147" type="line"/>
      <point x="1153" y="1147"/>
      <point x="1030" y="1162"/>
      <point x="908" y="1198"/>
      <point x="812" y="1260"/>
      <point x="805" y="1305" type="qcurve"/>
      <point x="774" y="1305" type="line"/>
      <point x="771" y="1282"/>
      <point x="746" y="1231"/>
      <point x="710" y="1185"/>
      <point x="666" y="1151"/>
      <point x="643" y="1147" type="qcurve"/>
      <point x="643" y="1124" type="line"/>
      <point x="661" y="1124"/>
      <point x="699" y="1112"/>
      <point x="732" y="1096"/>
      <point x="756" y="1071"/>
      <point x="756" y="1059" type="qcurve"/>
      <point x="756" y="189" type="line"/>
      <point x="528" y="78" type="line"/>
      <point x="420" y="155" type="line"/>
      <point x="420" y="1076" type="line"/>
      <point x="420" y="1143"/>
      <point x="386" y="1233"/>
      <point x="324" y="1286"/>
      <point x="244" y="1307"/>
      <point x="198" y="1307" type="qcurve"/>
      <point x="164" y="1307"/>
      <point x="93" y="1276"/>
      <point x="36" y="1227"/>
      <point x="0" y="1162"/>
      <point x="0" y="1129" type="qcurve"/>
      <point x="0" y="1107"/>
      <point x="4" y="1099" type="qcurve"/>
      <point x="13" y="1099" type="line"/>
      <point x="13" y="1134"/>
      <point x="78" y="1178"/>
      <point x="116" y="1178" type="qcurve"/>
      <point x="151" y="1178"/>
      <point x="198" y="1122"/>
      <point x="198" y="1067" type="qcurve"/>
      <point x="198" y="193" type="line"/>
      <point x="198" y="155"/>
      <point x="170" y="155" type="qcurve"/>
      <point x="170" y="116" type="line"/>
      <point x="202" y="116"/>
      <point x="267" y="86"/>
      <point x="328" y="42"/>
      <point x="382" y="-6"/>
      <point x="402" y="-23" type="qcurve"/>
      <point x="756" y="157" type="line"/>
      <point x="756" y="142" type="line"/>
      <point x="756" y="103"/>
    </contour>
    <contour>
      <point x="1099" y="772" type="line"/>
      <point x="975" y="714" type="line"/>
      <point x="975" y="985" type="line"/>
      <point x="975" y="1057"/>
      <point x="1047" y="1107"/>
      <point x="1099" y="1107" type="qcurve"/>
    </contour>
  </outline>
</glyph>
<glyph name="uni1209" format="2">
  <advance width="1275"/>
  <unicode hex="1209"/>
  <outline>
    <contour>
      <point x="197" y="120" type="line"/>
      <point x="197" y="82"/>
      <point x="168" y="82" type="qcurve"/>
      <point x="168" y="44" type="line"/>
      <point x="193" y="44"/>
      <point x="260" y="21"/>
      <point x="322" y="-13"/>
      <point x="374" y="-48"/>
      <point x="384" y="-59" type="qcurve"/>
      <point x="519" y="40" type="line"/>
      <point x="504" y="61" type="line"/>
      <point x="468" y="33" type="line"/>
      <point x="418" y="80" type="line"/>
      <point x="418" y="641" type="line"/>
      <point x="418" y="654"/>
      <point x="454" y="708"/>
      <point x="512" y="759"/>
      <point x="580" y="798"/>
      <point x="612" y="798" type="qcurve"/>
      <point x="716" y="140" type="line"/>
      <point x="716" y="120"/>
      <point x="701" y="59"/>
      <point x="659" y="27" type="qcurve"/>
      <point x="743" y="42" type="line"/>
      <point x="774" y="9"/>
      <point x="889" y="-25"/>
      <point x="945" y="-25" type="qcurve"/>
      <point x="1005" y="-25"/>
      <point x="1085" y="63"/>
      <point x="1085" y="143" type="qcurve"/>
      <point x="1085" y="164"/>
      <point x="1076" y="195"/>
      <point x="1072" y="202" type="qcurve"/>
      <point x="1056" y="198" type="line"/>
      <point x="1057" y="189"/>
      <point x="1063" y="158"/>
      <point x="1063" y="155" type="qcurve"/>
      <point x="1063" y="126"/>
      <point x="1025" y="95"/>
      <point x="1009" y="95" type="qcurve"/>
      <point x="979" y="95"/>
      <point x="941" y="131"/>
      <point x="937" y="158" type="qcurve"/>
      <point x="910" y="332"/>
      <point x="866" y="643"/>
      <point x="853" y="737" type="qcurve"/>
      <point x="905" y="772" type="line"/>
      <point x="989" y="704" type="line"/>
      <point x="979" y="690"/>
      <point x="975" y="634"/>
      <point x="975" y="624" type="qcurve"/>
      <point x="975" y="595"/>
      <point x="998" y="546"/>
      <point x="1036" y="506"/>
      <point x="1085" y="483"/>
      <point x="1112" y="483" type="qcurve"/>
      <point x="1181" y="483"/>
      <point x="1256" y="521"/>
      <point x="1256" y="570" type="qcurve"/>
      <point x="1256" y="592"/>
      <point x="1248" y="608"/>
      <point x="1242" y="614" type="qcurve"/>
      <point x="1218" y="614" type="line"/>
      <point x="1221" y="608"/>
      <point x="1231" y="584"/>
      <point x="1231" y="576" type="qcurve"/>
      <point x="1231" y="555"/>
      <point x="1196" y="539"/>
      <point x="1176" y="539" type="qcurve"/>
      <point x="1156" y="539"/>
      <point x="1122" y="597"/>
      <point x="1122" y="634" type="qcurve"/>
      <point x="1122" y="654"/>
      <point x="1164" y="725"/>
      <point x="1198" y="752" type="qcurve"/>
      <point x="1198" y="777" type="line"/>
      <point x="1181" y="777"/>
      <point x="1124" y="801"/>
      <point x="1069" y="834"/>
      <point x="1027" y="868"/>
      <point x="1027" y="880" type="qcurve"/>
      <point x="1000" y="880" type="line"/>
      <point x="847" y="774" type="line"/>
      <point x="838" y="838" type="line"/>
      <point x="836" y="876"/>
      <point x="772" y="979"/>
      <point x="685" y="1082"/>
      <point x="588" y="1178"/>
      <point x="552" y="1206" type="qcurve"/>
      <point x="504" y="1242"/>
      <point x="420" y="1305"/>
      <point x="410" y="1309" type="qcurve"/>
      <point x="361" y="1309" type="line"/>
      <point x="361" y="1294"/>
      <point x="326" y="1238"/>
      <point x="273" y="1183"/>
      <point x="202" y="1141"/>
      <point x="168" y="1141" type="qcurve"/>
      <point x="149" y="1141"/>
      <point x="99" y="1153"/>
      <point x="99" y="1169" type="qcurve"/>
      <point x="99" y="1181"/>
      <point x="103" y="1193" type="qcurve"/>
      <point x="82" y="1193" type="line"/>
      <point x="80" y="1189"/>
      <point x="73" y="1178"/>
      <point x="73" y="1166" type="qcurve"/>
      <point x="73" y="1125"/>
      <point x="157" y="1078"/>
      <point x="220" y="1078" type="qcurve"/>
      <point x="279" y="1078"/>
      <point x="357" y="1089"/>
      <point x="410" y="1112"/>
      <point x="448" y="1145"/>
      <point x="470" y="1166" type="qcurve"/>
      <point x="477" y="1164"/>
      <point x="532" y="1112"/>
      <point x="552" y="1072" type="qcurve"/>
      <point x="563" y="1047"/>
      <point x="580" y="981"/>
      <point x="593" y="912"/>
      <point x="603" y="849"/>
      <point x="607" y="832" type="qcurve"/>
      <point x="586" y="832"/>
      <point x="525" y="811"/>
      <point x="466" y="777"/>
      <point x="422" y="734"/>
      <point x="418" y="714" type="qcurve"/>
      <point x="418" y="744"/>
      <point x="374" y="805"/>
      <point x="307" y="851"/>
      <point x="231" y="880"/>
      <point x="197" y="880" type="qcurve"/>
      <point x="162" y="880"/>
      <point x="93" y="853"/>
      <point x="36" y="807"/>
      <point x="0" y="746"/>
      <point x="0" y="714" type="qcurve"/>
      <point x="0" y="703"/>
      <point x="9" y="674"/>
      <point x="19" y="674" type="qcurve"/>
      <point x="19" y="677" type="line"/>
      <point x="13" y="679"/>
      <point x="11" y="694"/>
      <point x="11" y="697" type="qcurve"/>
      <point x="11" y="730"/>
      <point x="76" y="765"/>
      <point x="115" y="765" type="qcurve"/>
      <point x="149" y="765"/>
      <point x="197" y="706"/>
      <point x="197" y="664" type="qcurve"/>
    </contour>
  </outline>
</glyph>
<glyph name="uni120A" format="2">
  <advance width="1307"/>
  <unicode hex="120A"/>
  <outline>
    <contour>
      <point x="878" y="-25" type="qcurve"/>
      <point x="907" y="-25" type="line"/>
      <point x="958" y="15"/>
      <point x="1069" y="88"/>
      <point x="1167" y="143"/>
      <point x="1242" y="175"/>
      <point x="1258" y="175" type="qcurve"/>
      <point x="1258" y="200" type="line"/>
      <point x="1221" y="227"/>
      <point x="1162" y="311"/>
      <point x="1162" y="344" type="qcurve"/>
      <point x="1162" y="386"/>
      <point x="1193" y="446"/>
      <point x="1214" y="446" type="qcurve"/>
      <point x="1231" y="446"/>
      <point x="1262" y="418"/>
      <point x="1262" y="397" type="qcurve"/>
      <point x="1288" y="397" type="line"/>
      <point x="1288" y="452"/>
      <point x="1229" y="490"/>
      <point x="1147" y="490" type="qcurve"/>
      <point x="1096" y="490"/>
      <point x="1019" y="416"/>
      <point x="1019" y="361" type="qcurve"/>
      <point x="1019" y="284"/>
      <point x="1074" y="158"/>
      <point x="1116" y="142" type="qcurve"/>
      <point x="1032" y="91" type="line"/>
      <point x="1002" y="103"/>
      <point x="947" y="170"/>
      <point x="943" y="195" type="qcurve"/>
      <point x="941" y="208"/>
      <point x="935" y="239"/>
      <point x="925" y="292"/>
      <point x="912" y="378"/>
      <point x="891" y="512"/>
      <point x="859" y="704"/>
      <point x="838" y="838" type="qcurve"/>
      <point x="830" y="885"/>
      <point x="767" y="992"/>
      <point x="685" y="1091"/>
      <point x="592" y="1180"/>
      <point x="552" y="1206" type="qcurve"/>
      <point x="502" y="1244"/>
      <point x="420" y="1305"/>
      <point x="410" y="1309" type="qcurve"/>
      <point x="361" y="1309" type="line"/>
      <point x="361" y="1294"/>
      <point x="326" y="1238"/>
      <point x="273" y="1183"/>
      <point x="202" y="1141"/>
      <point x="168" y="1141" type="qcurve"/>
      <point x="149" y="1141"/>
      <point x="99" y="1153"/>
      <point x="99" y="1169" type="qcurve"/>
      <point x="99" y="1181"/>
      <point x="103" y="1193" type="qcurve"/>
      <point x="82" y="1193" type="line"/>
      <point x="80" y="1189"/>
      <point x="73" y="1178"/>
      <point x="73" y="1166" type="qcurve"/>
      <point x="73" y="1125"/>
      <point x="157" y="1091"/>
      <point x="220" y="1091" type="qcurve"/>
      <point x="279" y="1091"/>
      <point x="357" y="1099"/>
      <point x="410" y="1118"/>
      <point x="448" y="1145"/>
      <point x="470" y="1166" type="qcurve"/>
      <point x="477" y="1164"/>
      <point x="525" y="1111"/>
      <point x="552" y="1072" type="qcurve"/>
      <point x="559" y="1057"/>
      <point x="576" y="990"/>
      <point x="592" y="918"/>
      <point x="603" y="849"/>
      <point x="607" y="832" type="qcurve"/>
      <point x="586" y="832"/>
      <point x="525" y="811"/>
      <point x="466" y="777"/>
      <point x="422" y="734"/>
      <point x="418" y="714" type="qcurve"/>
      <point x="418" y="744"/>
      <point x="374" y="805"/>
      <point x="307" y="851"/>
      <point x="231" y="880"/>
      <point x="197" y="880" type="qcurve"/>
      <point x="162" y="880"/>
      <point x="93" y="853"/>
      <point x="36" y="807"/>
      <point x="0" y="746"/>
      <point x="0" y="714" type="qcurve"/>
      <point x="0" y="703"/>
      <point x="9" y="674"/>
      <point x="19" y="674" type="qcurve"/>
      <point x="19" y="677" type="line"/>
      <point x="13" y="679"/>
      <point x="11" y="694"/>
      <point x="11" y="697" type="qcurve"/>
      <point x="11" y="730"/>
      <point x="76" y="765"/>
      <point x="115" y="765" type="qcurve"/>
      <point x="149" y="765"/>
      <point x="197" y="706"/>
      <point x="197" y="664" type="qcurve"/>
      <point x="197" y="118" type="line"/>
      <point x="197" y="80"/>
      <point x="168" y="80" type="qcurve"/>
      <point x="168" y="42" type="line"/>
      <point x="193" y="42"/>
      <point x="260" y="19"/>
      <point x="322" y="-11"/>
      <point x="374" y="-46"/>
      <point x="384" y="-57" type="qcurve"/>
      <point x="519" y="42" type="line"/>
      <point x="504" y="63" type="line"/>
      <point x="468" y="34" type="line"/>
      <point x="418" y="82" type="line"/>
      <point x="418" y="641" type="line"/>
      <point x="418" y="654"/>
      <point x="454" y="708"/>
      <point x="512" y="759"/>
      <point x="580" y="798"/>
      <point x="612" y="798" type="qcurve"/>
      <point x="717" y="175" type="line"/>
      <point x="717" y="147"/>
      <point x="685" y="80"/>
      <point x="664" y="63" type="qcurve"/>
      <point x="786" y="36"/>
      <point x="878" y="-17"/>
    </contour>
  </outline>
</glyph>
<glyph name="uni120B" format="2">
  <advance width="579"/>
  <unicode hex="120B"/>
  <outline>
    <contour>
      <point x="103" y="178" type="line"/>
      <point x="103" y="158"/>
      <point x="88" y="158" type="qcurve"/>
      <point x="88" y="138" type="line"/>
      <point x="101" y="138"/>
      <point x="136" y="124"/>
      <point x="169" y="106"/>
      <point x="196" y="86"/>
      <point x="201" y="80" type="qcurve"/>
      <point x="272" y="132" type="line"/>
      <point x="264" y="143" type="line"/>
      <point x="242" y="128" type="line"/>
      <point x="219" y="153" type="line"/>
      <point x="219" y="336" type="line"/>
      <point x="219" y="343"/>
      <point x="238" y="371"/>
      <point x="268" y="398"/>
      <point x="304" y="418"/>
      <point x="321" y="418" type="qcurve"/>
      <point x="375" y="73" type="line"/>
      <point x="375" y="63"/>
      <point x="367" y="31"/>
      <point x="345" y="14" type="qcurve"/>
      <point x="389" y="22" type="line"/>
      <point x="406" y="5"/>
      <point x="466" y="-13"/>
      <point x="495" y="-13" type="qcurve"/>
      <point x="527" y="-13"/>
      <point x="569" y="33"/>
      <point x="569" y="75" type="qcurve"/>
      <point x="569" y="86"/>
      <point x="564" y="102"/>
      <point x="562" y="106" type="qcurve"/>
      <point x="553" y="104" type="line"/>
      <point x="554" y="99"/>
      <point x="557" y="83"/>
      <point x="557" y="81" type="qcurve"/>
      <point x="557" y="66"/>
      <point x="537" y="50"/>
      <point x="529" y="50" type="qcurve"/>
      <point x="513" y="50"/>
      <point x="493" y="69"/>
      <point x="491" y="83" type="qcurve"/>
      <point x="482" y="148"/>
      <point x="464" y="270"/>
      <point x="450" y="367"/>
      <point x="440" y="431"/>
      <point x="439" y="439" type="qcurve"/>
      <point x="434" y="463"/>
      <point x="402" y="519"/>
      <point x="358" y="572"/>
      <point x="310" y="618"/>
      <point x="289" y="632" type="qcurve"/>
      <point x="263" y="652"/>
      <point x="220" y="684"/>
      <point x="215" y="686" type="qcurve"/>
      <point x="189" y="686" type="line"/>
      <point x="189" y="678"/>
      <point x="171" y="649"/>
      <point x="143" y="620"/>
      <point x="106" y="598"/>
      <point x="88" y="598" type="qcurve"/>
      <point x="78" y="598"/>
      <point x="52" y="604"/>
      <point x="52" y="613" type="qcurve"/>
      <point x="52" y="619"/>
      <point x="54" y="625" type="qcurve"/>
      <point x="43" y="625" type="line"/>
      <point x="42" y="623"/>
      <point x="38" y="617"/>
      <point x="38" y="611" type="qcurve"/>
      <point x="38" y="590"/>
      <point x="82" y="572"/>
      <point x="115" y="572" type="qcurve"/>
      <point x="146" y="572"/>
      <point x="187" y="576"/>
      <point x="215" y="586"/>
      <point x="235" y="600"/>
      <point x="246" y="611" type="qcurve"/>
      <point x="250" y="610"/>
      <point x="275" y="582"/>
      <point x="289" y="562" type="qcurve"/>
      <point x="293" y="554"/>
      <point x="302" y="519"/>
      <point x="310" y="481"/>
      <point x="316" y="445"/>
      <point x="318" y="436" type="qcurve"/>
      <point x="307" y="436"/>
      <point x="275" y="425"/>
      <point x="244" y="407"/>
      <point x="221" y="385"/>
      <point x="219" y="374" type="qcurve"/>
      <point x="219" y="390"/>
      <point x="196" y="422"/>
      <point x="161" y="446"/>
      <point x="121" y="461"/>
      <point x="103" y="461" type="qcurve"/>
      <point x="85" y="461"/>
      <point x="49" y="447"/>
      <point x="19" y="423"/>
      <point x="0" y="391"/>
      <point x="0" y="374" type="qcurve"/>
      <point x="0" y="368"/>
      <point x="5" y="353"/>
      <point x="10" y="353" type="qcurve"/>
      <point x="10" y="355" type="line"/>
      <point x="7" y="356"/>
      <point x="6" y="364"/>
      <point x="6" y="365" type="qcurve"/>
      <point x="6" y="383"/>
      <point x="40" y="401"/>
      <point x="60" y="401" type="qcurve"/>
      <point x="78" y="401"/>
      <point x="103" y="370"/>
      <point x="103" y="348" type="qcurve"/>
    </contour>
  </outline>
</glyph>
<glyph name="uni120C" format="2">
  <advance width="635"/>
  <unicode hex="120C"/>
  <outline>
    <contour>
      <point x="487" y="-13" type="line"/>
      <point x="505" y="7"/>
      <point x="549" y="38"/>
      <point x="589" y="59"/>
      <point x="620" y="70"/>
      <point x="625" y="70" type="qcurve"/>
      <point x="625" y="80" type="line"/>
      <point x="618" y="80"/>
      <point x="604" y="97"/>
      <point x="604" y="106" type="qcurve"/>
      <point x="588" y="212" type="line"/>
      <point x="588" y="222"/>
      <point x="608" y="250"/>
      <point x="608" y="259" type="qcurve"/>
      <point x="608" y="271"/>
      <point x="606" y="280"/>
      <point x="604" y="283" type="qcurve"/>
      <point x="597" y="283" type="line"/>
      <point x="597" y="243"/>
      <point x="549" y="243" type="qcurve"/>
      <point x="523" y="243"/>
      <point x="490" y="252"/>
      <point x="471" y="266"/>
      <point x="463" y="284"/>
      <point x="462" y="293" type="qcurve"/>
      <point x="439" y="439" type="line"/>
      <point x="435" y="463"/>
      <point x="402" y="519"/>
      <point x="359" y="572"/>
      <point x="310" y="618"/>
      <point x="289" y="632" type="qcurve"/>
      <point x="263" y="652"/>
      <point x="220" y="684"/>
      <point x="215" y="686" type="qcurve"/>
      <point x="189" y="686" type="line"/>
      <point x="189" y="678"/>
      <point x="171" y="649"/>
      <point x="143" y="620"/>
      <point x="106" y="598"/>
      <point x="88" y="598" type="qcurve"/>
      <point x="78" y="598"/>
      <point x="52" y="604"/>
      <point x="52" y="613" type="qcurve"/>
      <point x="52" y="619"/>
      <point x="54" y="625" type="qcurve"/>
      <point x="43" y="625" type="line"/>
      <point x="42" y="623"/>
      <point x="38" y="617"/>
      <point x="38" y="611" type="qcurve"/>
      <point x="38" y="590"/>
      <point x="82" y="572"/>
      <point x="115" y="572" type="qcurve"/>
      <point x="146" y="572"/>
      <point x="187" y="576"/>
      <point x="215" y="586"/>
      <point x="235" y="600"/>
      <point x="246" y="611" type="qcurve"/>
      <point x="250" y="610"/>
      <point x="275" y="582"/>
      <point x="289" y="562" type="qcurve"/>
      <point x="293" y="554"/>
      <point x="302" y="519"/>
      <point x="310" y="481"/>
      <point x="316" y="445"/>
      <point x="318" y="436" type="qcurve"/>
      <point x="307" y="436"/>
      <point x="275" y="425"/>
      <point x="244" y="407"/>
      <point x="221" y="385"/>
      <point x="219" y="374" type="qcurve"/>
      <point x="219" y="390"/>
      <point x="196" y="422"/>
      <point x="161" y="446"/>
      <point x="121" y="461"/>
      <point x="103" y="461" type="qcurve"/>
      <point x="85" y="461"/>
      <point x="49" y="447"/>
      <point x="19" y="423"/>
      <point x="0" y="391"/>
      <point x="0" y="374" type="qcurve"/>
      <point x="0" y="368"/>
      <point x="5" y="353"/>
      <point x="10" y="353" type="qcurve"/>
      <point x="10" y="355" type="line"/>
      <point x="7" y="356"/>
      <point x="6" y="364"/>
      <point x="6" y="365" type="qcurve"/>
      <point x="6" y="383"/>
      <point x="40" y="401"/>
      <point x="60" y="401" type="qcurve"/>
      <point x="78" y="401"/>
      <point x="103" y="370"/>
      <point x="103" y="348" type="qcurve"/>
      <point x="103" y="63" type="line"/>
      <point x="103" y="43"/>
      <point x="88" y="43" type="qcurve"/>
      <point x="88" y="23" type="line"/>
      <point x="101" y="23"/>
      <point x="136" y="11"/>
      <point x="169" y="-6"/>
      <point x="196" y="-24"/>
      <point x="201" y="-30" type="qcurve"/>
      <point x="272" y="22" type="line"/>
      <point x="264" y="33" type="line"/>
      <point x="242" y="17" type="line"/>
      <point x="219" y="43" type="line"/>
      <point x="219" y="336" type="line"/>
      <point x="219" y="343"/>
      <point x="238" y="371"/>
      <point x="268" y="398"/>
      <point x="304" y="418"/>
      <point x="321" y="418" type="qcurve"/>
      <point x="377" y="89" type="line"/>
      <point x="377" y="79"/>
      <point x="365" y="46"/>
      <point x="343" y="29" type="qcurve"/>
      <point x="353" y="29"/>
      <point x="388" y="22"/>
      <point x="424" y="11"/>
      <point x="456" y="-4"/>
      <point x="462" y="-13" type="qcurve"/>
    </contour>
    <contour>
      <point x="503" y="24" type="qcurve"/>
      <point x="477" y="192" type="line"/>
      <point x="477" y="204"/>
      <point x="493" y="217"/>
      <point x="514" y="224"/>
      <point x="537" y="225"/>
      <point x="544" y="225" type="qcurve"/>
      <point x="566" y="65" type="line"/>
      <point x="549" y="57"/>
      <point x="518" y="35"/>
    </contour>
  </outline>
</glyph>
<glyph name="uni120D" format="2">
  <advance width="594"/>
  <unicode hex="120D"/>
  <outline>
    <contour>
      <point x="103" y="63" type="line"/>
      <point x="103" y="43"/>
      <point x="88" y="43" type="qcurve"/>
      <point x="88" y="23" type="line"/>
      <point x="101" y="23"/>
      <point x="136" y="11"/>
      <point x="169" y="-7"/>
      <point x="196" y="-25"/>
      <point x="201" y="-31" type="qcurve"/>
      <point x="330" y="54" type="line"/>
      <point x="322" y="68" type="line"/>
      <point x="307" y="58" type="line"/>
      <point x="307" y="232" type="line"/>
      <point x="296" y="227"/>
      <point x="283" y="222"/>
      <point x="267" y="222" type="qcurve"/>
      <point x="247" y="222"/>
      <point x="219" y="252"/>
      <point x="219" y="263" type="qcurve"/>
      <point x="219" y="338" type="line"/>
      <point x="219" y="345"/>
      <point x="243" y="373"/>
      <point x="278" y="400"/>
      <point x="319" y="420"/>
      <point x="336" y="420" type="qcurve"/>
      <point x="390" y="75" type="line"/>
      <point x="390" y="65"/>
      <point x="382" y="33"/>
      <point x="360" y="16" type="qcurve"/>
      <point x="404" y="24" type="line"/>
      <point x="421" y="7"/>
      <point x="481" y="-11"/>
      <point x="510" y="-11" type="qcurve"/>
      <point x="542" y="-11"/>
      <point x="584" y="35"/>
      <point x="584" y="77" type="qcurve"/>
      <point x="584" y="88"/>
      <point x="579" y="104"/>
      <point x="577" y="108" type="qcurve"/>
      <point x="568" y="106" type="line"/>
      <point x="569" y="101"/>
      <point x="572" y="85"/>
      <point x="572" y="83" type="qcurve"/>
      <point x="572" y="68"/>
      <point x="552" y="52"/>
      <point x="544" y="52" type="qcurve"/>
      <point x="528" y="52"/>
      <point x="508" y="71"/>
      <point x="506" y="85" type="qcurve"/>
      <point x="497" y="150"/>
      <point x="479" y="272"/>
      <point x="465" y="369"/>
      <point x="455" y="433"/>
      <point x="454" y="441" type="qcurve"/>
      <point x="449" y="465"/>
      <point x="417" y="521"/>
      <point x="373" y="574"/>
      <point x="325" y="620"/>
      <point x="304" y="634" type="qcurve"/>
      <point x="278" y="654"/>
      <point x="235" y="686"/>
      <point x="230" y="688" type="qcurve"/>
      <point x="204" y="688" type="line"/>
      <point x="204" y="680"/>
      <point x="186" y="651"/>
      <point x="158" y="622"/>
      <point x="121" y="600"/>
      <point x="103" y="600" type="qcurve"/>
      <point x="93" y="600"/>
      <point x="67" y="606"/>
      <point x="67" y="615" type="qcurve"/>
      <point x="67" y="621"/>
      <point x="69" y="627" type="qcurve"/>
      <point x="58" y="627" type="line"/>
      <point x="57" y="625"/>
      <point x="53" y="619"/>
      <point x="53" y="613" type="qcurve"/>
      <point x="53" y="592"/>
      <point x="97" y="574"/>
      <point x="130" y="574" type="qcurve"/>
      <point x="161" y="574"/>
      <point x="202" y="578"/>
      <point x="230" y="588"/>
      <point x="250" y="602"/>
      <point x="261" y="613" type="qcurve"/>
      <point x="265" y="612"/>
      <point x="290" y="584"/>
      <point x="304" y="564" type="qcurve"/>
      <point x="308" y="556"/>
      <point x="317" y="521"/>
      <point x="325" y="483"/>
      <point x="331" y="447"/>
      <point x="333" y="438" type="qcurve"/>
      <point x="322" y="438"/>
      <point x="285" y="427"/>
      <point x="249" y="409"/>
      <point x="221" y="387"/>
      <point x="219" y="376" type="qcurve"/>
      <point x="219" y="392"/>
      <point x="196" y="424"/>
      <point x="161" y="448"/>
      <point x="121" y="463"/>
      <point x="103" y="463" type="qcurve"/>
      <point x="85" y="463"/>
      <point x="49" y="449"/>
      <point x="19" y="425"/>
      <point x="0" y="393"/>
      <point x="0" y="376" type="qcurve"/>
      <point x="0" y="370"/>
      <point x="5" y="355"/>
      <point x="10" y="355" type="qcurve"/>
      <point x="10" y="357" type="line"/>
      <point x="7" y="358"/>
      <point x="6" y="366"/>
      <point x="6" y="367" type="qcurve"/>
      <point x="6" y="385"/>
      <point x="40" y="403"/>
      <point x="60" y="403" type="qcurve"/>
      <point x="78" y="403"/>
      <point x="103" y="372"/>
      <point x="103" y="350" type="qcurve"/>
    </contour>
    <contour>
      <point x="243" y="16" type="line"/>
      <point x="219" y="42" type="line"/>
      <point x="219" y="150" type="line"/>
      <point x="219" y="170"/>
      <point x="228" y="192"/>
      <point x="243" y="203"/>
      <point x="259" y="206"/>
      <point x="267" y="206" type="qcurve"/>
      <point x="267" y="32" type="line"/>
    </contour>
  </outline>
</glyph>
<glyph name="uni120E" format="2">
  <advance width="699"/>
  <unicode hex="120E"/>
  <outline>
    <contour>
      <point x="103" y="63" type="line"/>
      <point x="103" y="43"/>
      <point x="88" y="43" type="qcurve"/>
      <point x="88" y="23" type="line"/>
      <point x="101" y="23"/>
      <point x="136" y="11"/>
      <point x="169" y="-6"/>
      <point x="196" y="-24"/>
      <point x="201" y="-30" type="qcurve"/>
      <point x="272" y="22" type="line"/>
      <point x="264" y="33" type="line"/>
      <point x="242" y="18" type="line"/>
      <point x="219" y="43" type="line"/>
      <point x="219" y="336" type="line"/>
      <point x="219" y="343"/>
      <point x="238" y="371"/>
      <point x="268" y="398"/>
      <point x="304" y="418"/>
      <point x="321" y="418" type="qcurve"/>
      <point x="375" y="73" type="line"/>
      <point x="375" y="63"/>
      <point x="367" y="31"/>
      <point x="345" y="14" type="qcurve"/>
      <point x="389" y="22" type="line"/>
      <point x="406" y="5"/>
      <point x="466" y="-13"/>
      <point x="495" y="-13" type="qcurve"/>
      <point x="527" y="-13"/>
      <point x="569" y="33"/>
      <point x="569" y="75" type="qcurve"/>
      <point x="569" y="86"/>
      <point x="564" y="102"/>
      <point x="562" y="106" type="qcurve"/>
      <point x="553" y="104" type="line"/>
      <point x="554" y="99"/>
      <point x="557" y="83"/>
      <point x="557" y="81" type="qcurve"/>
      <point x="557" y="66"/>
      <point x="537" y="50"/>
      <point x="529" y="50" type="qcurve"/>
      <point x="513" y="50"/>
      <point x="493" y="69"/>
      <point x="491" y="83" type="qcurve"/>
      <point x="482" y="148"/>
      <point x="464" y="270"/>
      <point x="450" y="367"/>
      <point x="440" y="431"/>
      <point x="439" y="439" type="qcurve"/>
      <point x="437" y="452"/>
      <point x="424" y="480"/>
      <point x="416" y="495" type="qcurve"/>
      <point x="454" y="507" type="line"/>
      <point x="477" y="507"/>
      <point x="510" y="485"/>
      <point x="510" y="471" type="qcurve"/>
      <point x="510" y="363" type="line"/>
      <point x="510" y="349"/>
      <point x="502" y="339"/>
      <point x="497" y="339" type="qcurve"/>
      <point x="497" y="319" type="line"/>
      <point x="504" y="319"/>
      <point x="529" y="308"/>
      <point x="551" y="295"/>
      <point x="568" y="282"/>
      <point x="568" y="280" type="qcurve"/>
      <point x="587" y="280" type="line"/>
      <point x="689" y="325" type="line"/>
      <point x="689" y="460" type="line"/>
      <point x="676" y="460"/>
      <point x="651" y="480"/>
      <point x="648" y="491" type="qcurve"/>
      <point x="635" y="491" type="line"/>
      <point x="635" y="483"/>
      <point x="614" y="464"/>
      <point x="593" y="457" type="qcurve"/>
      <point x="593" y="511" type="line"/>
      <point x="584" y="511"/>
      <point x="555" y="522"/>
      <point x="527" y="538"/>
      <point x="507" y="554"/>
      <point x="507" y="559" type="qcurve"/>
      <point x="493" y="559" type="line"/>
      <point x="493" y="551"/>
      <point x="444" y="522"/>
      <point x="408" y="507" type="qcurve"/>
      <point x="384" y="545"/>
      <point x="315" y="612"/>
      <point x="263" y="652"/>
      <point x="220" y="684"/>
      <point x="215" y="686" type="qcurve"/>
      <point x="189" y="686" type="line"/>
      <point x="189" y="678"/>
      <point x="171" y="649"/>
      <point x="143" y="620"/>
      <point x="106" y="598"/>
      <point x="88" y="598" type="qcurve"/>
      <point x="78" y="598"/>
      <point x="52" y="604"/>
      <point x="52" y="613" type="qcurve"/>
      <point x="52" y="619"/>
      <point x="54" y="625" type="qcurve"/>
      <point x="43" y="625" type="line"/>
      <point x="42" y="623"/>
      <point x="38" y="617"/>
      <point x="38" y="611" type="qcurve"/>
      <point x="38" y="590"/>
      <point x="82" y="572"/>
      <point x="115" y="572" type="qcurve"/>
      <point x="146" y="572"/>
      <point x="187" y="576"/>
      <point x="215" y="586"/>
      <point x="235" y="600"/>
      <point x="246" y="611" type="qcurve"/>
      <point x="250" y="610"/>
      <point x="278" y="585"/>
      <point x="289" y="562" type="qcurve"/>
      <point x="293" y="554"/>
      <point x="301" y="520"/>
      <point x="309" y="481"/>
      <point x="316" y="445"/>
      <point x="318" y="436" type="qcurve"/>
      <point x="307" y="436"/>
      <point x="275" y="425"/>
      <point x="244" y="407"/>
      <point x="221" y="385"/>
      <point x="219" y="374" type="qcurve"/>
      <point x="219" y="390"/>
      <point x="196" y="422"/>
      <point x="161" y="446"/>
      <point x="121" y="461"/>
      <point x="103" y="461" type="qcurve"/>
      <point x="85" y="461"/>
      <point x="49" y="447"/>
      <point x="19" y="423"/>
      <point x="0" y="391"/>
      <point x="0" y="374" type="qcurve"/>
      <point x="0" y="368"/>
      <point x="5" y="353"/>
      <point x="10" y="353" type="qcurve"/>
      <point x="10" y="355" type="line"/>
      <point x="7" y="356"/>
      <point x="6" y="364"/>
      <point x="6" y="365" type="qcurve"/>
      <point x="6" y="383"/>
      <point x="40" y="401"/>
      <point x="60" y="401" type="qcurve"/>
      <point x="78" y="401"/>
      <point x="103" y="370"/>
      <point x="103" y="348" type="qcurve"/>
    </contour>
    <contour>
      <point x="640" y="446" type="line"/>
      <point x="640" y="321" type="line"/>
      <point x="619" y="311" type="line"/>
      <point x="603" y="311"/>
      <point x="593" y="341"/>
      <point x="593" y="355" type="qcurve"/>
      <point x="593" y="440" type="line"/>
      <point x="601" y="440"/>
      <point x="627" y="455"/>
      <point x="632" y="459" type="qcurve"/>
    </contour>
  </outline>
</glyph>
<glyph name="uni120F" format="2">
  <advance width="716"/>
  <unicode hex="120F"/>
  <outline>
    <contour>
      <point x="586" y="-67" type="line"/>
      <point x="586" y="-55"/>
      <point x="601" y="-16"/>
      <point x="623" y="21"/>
      <point x="648" y="48"/>
      <point x="659" y="48" type="qcurve"/>
      <point x="673" y="48"/>
      <point x="687" y="33"/>
      <point x="687" y="27" type="qcurve"/>
      <point x="687" y="21"/>
      <point x="680" y="6"/>
      <point x="672" y="-7"/>
      <point x="668" y="-11" type="qcurve"/>
      <point x="665" y="-14"/>
      <point x="664" y="-15" type="qcurve"/>
      <point x="665" y="-28" type="line"/>
      <point x="668" y="-28"/>
      <point x="682" y="-19"/>
      <point x="695" y="-6"/>
      <point x="706" y="13"/>
      <point x="706" y="24" type="qcurve"/>
      <point x="706" y="44"/>
      <point x="688" y="71"/>
      <point x="662" y="88"/>
      <point x="632" y="95"/>
      <point x="621" y="95" type="qcurve"/>
      <point x="609" y="95"/>
      <point x="576" y="79"/>
      <point x="547" y="50"/>
      <point x="527" y="11"/>
      <point x="527" y="-12" type="qcurve"/>
      <point x="503" y="1" type="line"/>
      <point x="473" y="202"/>
      <point x="441" y="424"/>
      <point x="439" y="439" type="qcurve"/>
      <point x="434" y="463"/>
      <point x="402" y="519"/>
      <point x="358" y="572"/>
      <point x="310" y="618"/>
      <point x="289" y="632" type="qcurve"/>
      <point x="263" y="652"/>
      <point x="220" y="684"/>
      <point x="215" y="686" type="qcurve"/>
      <point x="189" y="686" type="line"/>
      <point x="189" y="678"/>
      <point x="171" y="649"/>
      <point x="143" y="620"/>
      <point x="106" y="598"/>
      <point x="88" y="598" type="qcurve"/>
      <point x="78" y="598"/>
      <point x="52" y="604"/>
      <point x="52" y="613" type="qcurve"/>
      <point x="52" y="619"/>
      <point x="54" y="625" type="qcurve"/>
      <point x="43" y="625" type="line"/>
      <point x="42" y="623"/>
      <point x="38" y="617"/>
      <point x="38" y="611" type="qcurve"/>
      <point x="38" y="590"/>
      <point x="82" y="572"/>
      <point x="115" y="572" type="qcurve"/>
      <point x="146" y="572"/>
      <point x="187" y="576"/>
      <point x="215" y="586"/>
      <point x="235" y="600"/>
      <point x="246" y="611" type="qcurve"/>
      <point x="250" y="610"/>
      <point x="275" y="582"/>
      <point x="289" y="562" type="qcurve"/>
      <point x="293" y="554"/>
      <point x="302" y="519"/>
      <point x="310" y="481"/>
      <point x="316" y="445"/>
      <point x="318" y="436" type="qcurve"/>
      <point x="307" y="436"/>
      <point x="275" y="425"/>
      <point x="244" y="407"/>
      <point x="221" y="385"/>
      <point x="219" y="374" type="qcurve"/>
      <point x="219" y="390"/>
      <point x="196" y="422"/>
      <point x="161" y="446"/>
      <point x="121" y="461"/>
      <point x="103" y="461" type="qcurve"/>
      <point x="85" y="461"/>
      <point x="49" y="447"/>
      <point x="19" y="423"/>
      <point x="0" y="391"/>
      <point x="0" y="374" type="qcurve"/>
      <point x="0" y="368"/>
      <point x="5" y="353"/>
      <point x="10" y="353" type="qcurve"/>
      <point x="10" y="355" type="line"/>
      <point x="7" y="356"/>
      <point x="6" y="364"/>
      <point x="6" y="365" type="qcurve"/>
      <point x="6" y="383"/>
      <point x="40" y="401"/>
      <point x="60" y="401" type="qcurve"/>
      <point x="78" y="401"/>
      <point x="103" y="370"/>
      <point x="103" y="348" type="qcurve"/>
      <point x="103" y="175" type="line"/>
      <point x="103" y="155"/>
      <point x="88" y="155" type="qcurve"/>
      <point x="88" y="135" type="line"/>
      <point x="101" y="135"/>
      <point x="136" y="122"/>
      <point x="169" y="105"/>
      <point x="196" y="86"/>
      <point x="201" y="80" type="qcurve"/>
      <point x="272" y="132" type="line"/>
      <point x="264" y="143" type="line"/>
      <point x="241" y="128" type="line"/>
      <point x="219" y="153" type="line"/>
      <point x="219" y="336" type="line"/>
      <point x="219" y="343"/>
      <point x="238" y="371"/>
      <point x="268" y="398"/>
      <point x="304" y="418"/>
      <point x="321" y="418" type="qcurve"/>
      <point x="381" y="46" type="line"/>
      <point x="343" y="62"/>
      <point x="291" y="87"/>
      <point x="291" y="95" type="qcurve"/>
      <point x="275" y="95" type="line"/>
      <point x="275" y="82"/>
      <point x="264" y="39"/>
      <point x="247" y="-3"/>
      <point x="226" y="-33"/>
      <point x="216" y="-33" type="qcurve"/>
      <point x="205" y="-33"/>
      <point x="189" y="-18"/>
      <point x="187" y="1" type="qcurve"/>
      <point x="180" y="0" type="line"/>
      <point x="180" y="-4"/>
      <point x="180" y="-7" type="qcurve"/>
      <point x="180" y="-11"/>
      <point x="181" y="-16" type="qcurve"/>
      <point x="186" y="-51"/>
      <point x="226" y="-77"/>
      <point x="250" y="-77" type="qcurve"/>
      <point x="262" y="-77"/>
      <point x="295" y="-57"/>
      <point x="326" y="-25"/>
      <point x="348" y="15"/>
      <point x="348" y="34" type="qcurve"/>
      <point x="369" y="23"/>
      <point x="445" y="-7"/>
      <point x="520" y="-37"/>
      <point x="575" y="-62"/>
      <point x="575" y="-68" type="qcurve"/>
    </contour>
  </outline>
</glyph>
<glyph name="uni1211" format="2">
  <advance width="837"/>
  <unicode hex="1211"/>
  <outline>
    <contour>
      <point x="486" y="59" type="qcurve"/>
      <point x="486" y="39" type="line"/>
      <point x="499" y="39"/>
      <point x="534" y="27"/>
      <point x="567" y="10"/>
      <point x="593" y="-8"/>
      <point x="598" y="-14" type="qcurve"/>
      <point x="669" y="58" type="line"/>
      <point x="661" y="69" type="line"/>
      <point x="643" y="53" type="line"/>
      <point x="616" y="79" type="line"/>
      <point x="616" y="284" type="line"/>
      <point x="643" y="303" type="line"/>
      <point x="687" y="267" type="line"/>
      <point x="682" y="260"/>
      <point x="680" y="230"/>
      <point x="680" y="225" type="qcurve"/>
      <point x="680" y="210"/>
      <point x="692" y="183"/>
      <point x="712" y="162"/>
      <point x="738" y="150"/>
      <point x="752" y="150" type="qcurve"/>
      <point x="788" y="150"/>
      <point x="827" y="171"/>
      <point x="827" y="197" type="qcurve"/>
      <point x="827" y="208"/>
      <point x="823" y="217"/>
      <point x="820" y="220" type="qcurve"/>
      <point x="807" y="220" type="line"/>
      <point x="809" y="217"/>
      <point x="814" y="204"/>
      <point x="814" y="200" type="qcurve"/>
      <point x="814" y="189"/>
      <point x="796" y="180"/>
      <point x="785" y="180" type="qcurve"/>
      <point x="775" y="180"/>
      <point x="757" y="211"/>
      <point x="757" y="230" type="qcurve"/>
      <point x="757" y="241"/>
      <point x="779" y="278"/>
      <point x="797" y="292" type="qcurve"/>
      <point x="797" y="305" type="line"/>
      <point x="788" y="305"/>
      <point x="758" y="318"/>
      <point x="729" y="335"/>
      <point x="707" y="353"/>
      <point x="707" y="359" type="qcurve"/>
      <point x="693" y="359" type="line"/>
      <point x="616" y="307" type="line"/>
      <point x="616" y="368" type="line"/>
      <point x="616" y="388"/>
      <point x="637" y="412"/>
      <point x="650" y="412" type="qcurve"/>
      <point x="650" y="426" type="line"/>
      <point x="634" y="426"/>
      <point x="589" y="435"/>
      <point x="548" y="449"/>
      <point x="519" y="467"/>
      <point x="519" y="475" type="qcurve"/>
      <point x="505" y="475" type="line"/>
      <point x="505" y="465"/>
      <point x="480" y="444"/>
      <point x="446" y="427"/>
      <point x="411" y="416"/>
      <point x="401" y="416" type="qcurve"/>
      <point x="401" y="569" type="line"/>
      <point x="401" y="582"/>
      <point x="423" y="602"/>
      <point x="436" y="602" type="qcurve"/>
      <point x="436" y="625" type="line"/>
      <point x="422" y="625"/>
      <point x="380" y="642"/>
      <point x="341" y="666"/>
      <point x="312" y="690"/>
      <point x="312" y="697" type="qcurve"/>
      <point x="296" y="697" type="line"/>
      <point x="296" y="690"/>
      <point x="279" y="668"/>
      <point x="256" y="647"/>
      <point x="233" y="632"/>
      <point x="227" y="632" type="qcurve"/>
      <point x="227" y="619" type="line"/>
      <point x="233" y="619"/>
      <point x="253" y="613"/>
      <point x="272" y="604"/>
      <point x="286" y="591"/>
      <point x="286" y="585" type="qcurve"/>
      <point x="286" y="416" type="line"/>
      <point x="186" y="416" type="line"/>
      <point x="186" y="430"/>
      <point x="170" y="457"/>
      <point x="142" y="478"/>
      <point x="104" y="491"/>
      <point x="83" y="491" type="qcurve"/>
      <point x="45" y="491"/>
      <point x="0" y="463"/>
      <point x="0" y="440" type="qcurve"/>
      <point x="0" y="435"/>
      <point x="0" y="430" type="qcurve"/>
      <point x="0" y="425"/>
      <point x="2" y="420" type="qcurve"/>
      <point x="11" y="420" type="line"/>
      <point x="12" y="434"/>
      <point x="27" y="453"/>
      <point x="40" y="453" type="qcurve"/>
      <point x="52" y="453"/>
      <point x="70" y="430"/>
      <point x="70" y="400" type="qcurve"/>
      <point x="70" y="78" type="line"/>
      <point x="70" y="58"/>
      <point x="55" y="58" type="qcurve"/>
      <point x="55" y="38" type="line"/>
      <point x="68" y="38"/>
      <point x="103" y="26"/>
      <point x="136" y="9"/>
      <point x="163" y="-9"/>
      <point x="168" y="-15" type="qcurve"/>
      <point x="239" y="57" type="line"/>
      <point x="231" y="68" type="line"/>
      <point x="213" y="52" type="line"/>
      <point x="186" y="78" type="line"/>
      <point x="186" y="402" type="line"/>
      <point x="286" y="402" type="line"/>
      <point x="286" y="26" type="line"/>
      <point x="390" y="-13" type="line"/>
      <point x="451" y="70" type="line"/>
      <point x="440" y="78" type="line"/>
      <point x="429" y="63" type="line"/>
      <point x="401" y="80" type="line"/>
      <point x="401" y="402" type="line"/>
      <point x="410" y="402"/>
      <point x="432" y="406"/>
      <point x="453" y="413"/>
      <point x="468" y="420"/>
      <point x="471" y="423" type="qcurve"/>
      <point x="501" y="405" type="line"/>
      <point x="501" y="79" type="line"/>
      <point x="501" y="59"/>
    </contour>
  </outline>
</glyph>
<glyph name="uni1212" format="2">
  <advance width="1530"/>
  <unicode hex="1212"/>
  <outline>
    <contour>
      <point x="923" y="116" type="qcurve"/>
      <point x="923" y="80" type="line"/>
      <point x="939" y="80"/>
      <point x="1013" y="51"/>
      <point x="1091" y="15"/>
      <point x="1151" y="-19"/>
      <point x="1151" y="-25" type="qcurve"/>
      <point x="1276" y="55"/>
      <point x="1439" y="170"/>
      <point x="1469" y="170" type="qcurve"/>
      <point x="1469" y="195" type="line"/>
      <point x="1453" y="208"/>
      <point x="1420" y="248"/>
      <point x="1397" y="290"/>
      <point x="1382" y="328"/>
      <point x="1382" y="340" type="qcurve"/>
      <point x="1382" y="389"/>
      <point x="1412" y="441"/>
      <point x="1431" y="441" type="qcurve"/>
      <point x="1453" y="441"/>
      <point x="1482" y="412"/>
      <point x="1482" y="391" type="qcurve"/>
      <point x="1482" y="389" type="line"/>
      <point x="1511" y="389" type="line"/>
      <point x="1511" y="391" type="line"/>
      <point x="1511" y="422"/>
      <point x="1484" y="452"/>
      <point x="1458" y="471"/>
      <point x="1412" y="484"/>
      <point x="1357" y="484" type="qcurve"/>
      <point x="1330" y="484"/>
      <point x="1284" y="458"/>
      <point x="1249" y="418"/>
      <point x="1231" y="372"/>
      <point x="1231" y="355" type="qcurve"/>
      <point x="1231" y="324"/>
      <point x="1249" y="252"/>
      <point x="1278" y="187"/>
      <point x="1313" y="137"/>
      <point x="1330" y="130" type="qcurve"/>
      <point x="1244" y="76" type="line"/>
      <point x="1216" y="76"/>
      <point x="1176" y="107"/>
      <point x="1176" y="128" type="qcurve"/>
      <point x="1176" y="703" type="line"/>
      <point x="1176" y="741"/>
      <point x="1216" y="786"/>
      <point x="1240" y="786" type="qcurve"/>
      <point x="1240" y="812" type="line"/>
      <point x="1209" y="812"/>
      <point x="1124" y="830"/>
      <point x="1045" y="857"/>
      <point x="990" y="891"/>
      <point x="990" y="907" type="qcurve"/>
      <point x="963" y="907" type="line"/>
      <point x="963" y="887"/>
      <point x="916" y="847"/>
      <point x="851" y="814"/>
      <point x="784" y="794"/>
      <point x="765" y="794" type="qcurve"/>
      <point x="765" y="1085" type="line"/>
      <point x="765" y="1111"/>
      <point x="807" y="1149"/>
      <point x="832" y="1149" type="qcurve"/>
      <point x="832" y="1193" type="line"/>
      <point x="805" y="1193"/>
      <point x="725" y="1225"/>
      <point x="650" y="1271"/>
      <point x="595" y="1316"/>
      <point x="595" y="1330" type="qcurve"/>
      <point x="565" y="1330" type="line"/>
      <point x="565" y="1316"/>
      <point x="532" y="1275"/>
      <point x="488" y="1235"/>
      <point x="444" y="1206"/>
      <point x="433" y="1206" type="qcurve"/>
      <point x="433" y="1181" type="line"/>
      <point x="444" y="1181"/>
      <point x="483" y="1169"/>
      <point x="519" y="1153"/>
      <point x="546" y="1127"/>
      <point x="546" y="1116" type="qcurve"/>
      <point x="546" y="794" type="line"/>
      <point x="355" y="794" type="line"/>
      <point x="355" y="821"/>
      <point x="324" y="872"/>
      <point x="271" y="912"/>
      <point x="198" y="937"/>
      <point x="158" y="937" type="qcurve"/>
      <point x="86" y="937"/>
      <point x="0" y="883"/>
      <point x="0" y="839" type="qcurve"/>
      <point x="0" y="830"/>
      <point x="0" y="821" type="qcurve"/>
      <point x="0" y="811"/>
      <point x="4" y="801" type="qcurve"/>
      <point x="21" y="801" type="line"/>
      <point x="23" y="828"/>
      <point x="51" y="865"/>
      <point x="76" y="865" type="qcurve"/>
      <point x="99" y="865"/>
      <point x="133" y="821"/>
      <point x="133" y="763" type="qcurve"/>
      <point x="133" y="149" type="line"/>
      <point x="133" y="111"/>
      <point x="105" y="111" type="qcurve"/>
      <point x="105" y="73" type="line"/>
      <point x="130" y="73"/>
      <point x="197" y="49"/>
      <point x="260" y="17"/>
      <point x="311" y="-17"/>
      <point x="321" y="-29" type="qcurve"/>
      <point x="456" y="109" type="line"/>
      <point x="441" y="130" type="line"/>
      <point x="406" y="99" type="line"/>
      <point x="355" y="149" type="line"/>
      <point x="355" y="767" type="line"/>
      <point x="546" y="767" type="line"/>
      <point x="546" y="49" type="line"/>
      <point x="744" y="-25" type="line"/>
      <point x="861" y="133" type="line"/>
      <point x="839" y="149" type="line"/>
      <point x="819" y="120" type="line"/>
      <point x="765" y="153" type="line"/>
      <point x="765" y="767" type="line"/>
      <point x="783" y="767"/>
      <point x="825" y="774"/>
      <point x="865" y="788"/>
      <point x="893" y="801"/>
      <point x="899" y="807" type="qcurve"/>
      <point x="956" y="772" type="line"/>
      <point x="956" y="158" type="line"/>
      <point x="956" y="131"/>
      <point x="939" y="116"/>
    </contour>
  </outline>
</glyph>
<glyph name="uni1213" format="2">
  <advance width="1296"/>
  <unicode hex="1213"/>
  <outline>
    <contour>
      <point x="927" y="113" type="qcurve"/>
      <point x="927" y="75" type="line"/>
      <point x="952" y="75"/>
      <point x="1019" y="51"/>
      <point x="1082" y="19"/>
      <point x="1131" y="-15"/>
      <point x="1141" y="-27" type="qcurve"/>
      <point x="1276" y="111" type="line"/>
      <point x="1262" y="131" type="line"/>
      <point x="1227" y="102" type="line"/>
      <point x="1176" y="151" type="line"/>
      <point x="1176" y="703" type="line"/>
      <point x="1176" y="741"/>
      <point x="1216" y="786"/>
      <point x="1240" y="786" type="qcurve"/>
      <point x="1240" y="812" type="line"/>
      <point x="1209" y="812"/>
      <point x="1124" y="830"/>
      <point x="1045" y="857"/>
      <point x="990" y="891"/>
      <point x="990" y="907" type="qcurve"/>
      <point x="963" y="907" type="line"/>
      <point x="963" y="887"/>
      <point x="916" y="847"/>
      <point x="851" y="814"/>
      <point x="784" y="794"/>
      <point x="765" y="794" type="qcurve"/>
      <point x="765" y="1085" type="line"/>
      <point x="765" y="1111"/>
      <point x="807" y="1149"/>
      <point x="832" y="1149" type="qcurve"/>
      <point x="832" y="1193" type="line"/>
      <point x="805" y="1193"/>
      <point x="725" y="1225"/>
      <point x="650" y="1271"/>
      <point x="595" y="1316"/>
      <point x="595" y="1330" type="qcurve"/>
      <point x="565" y="1330" type="line"/>
      <point x="565" y="1316"/>
      <point x="532" y="1275"/>
      <point x="488" y="1235"/>
      <point x="444" y="1206"/>
      <point x="433" y="1206" type="qcurve"/>
      <point x="433" y="1181" type="line"/>
      <point x="444" y="1181"/>
      <point x="483" y="1169"/>
      <point x="519" y="1153"/>
      <point x="546" y="1127"/>
      <point x="546" y="1116" type="qcurve"/>
      <point x="546" y="794" type="line"/>
      <point x="355" y="794" type="line"/>
      <point x="355" y="821"/>
      <point x="324" y="872"/>
      <point x="271" y="912"/>
      <point x="198" y="937"/>
      <point x="158" y="937" type="qcurve"/>
      <point x="86" y="937"/>
      <point x="0" y="883"/>
      <point x="0" y="839" type="qcurve"/>
      <point x="0" y="830"/>
      <point x="0" y="821" type="qcurve"/>
      <point x="0" y="811"/>
      <point x="4" y="801" type="qcurve"/>
      <point x="21" y="801" type="line"/>
      <point x="23" y="828"/>
      <point x="51" y="865"/>
      <point x="76" y="865" type="qcurve"/>
      <point x="99" y="865"/>
      <point x="133" y="821"/>
      <point x="133" y="763" type="qcurve"/>
      <point x="133" y="408" type="line"/>
      <point x="133" y="370"/>
      <point x="105" y="370" type="qcurve"/>
      <point x="105" y="332" type="line"/>
      <point x="130" y="332"/>
      <point x="197" y="309"/>
      <point x="260" y="277"/>
      <point x="311" y="242"/>
      <point x="321" y="231" type="qcurve"/>
      <point x="456" y="368" type="line"/>
      <point x="441" y="389" type="line"/>
      <point x="406" y="359" type="line"/>
      <point x="355" y="408" type="line"/>
      <point x="355" y="767" type="line"/>
      <point x="546" y="767" type="line"/>
      <point x="546" y="309" type="line"/>
      <point x="744" y="235" type="line"/>
      <point x="861" y="393" type="line"/>
      <point x="839" y="408" type="line"/>
      <point x="819" y="380" type="line"/>
      <point x="765" y="412" type="line"/>
      <point x="765" y="767" type="line"/>
      <point x="783" y="767"/>
      <point x="825" y="774"/>
      <point x="865" y="788"/>
      <point x="893" y="801"/>
      <point x="899" y="807" type="qcurve"/>
      <point x="956" y="772" type="line"/>
      <point x="956" y="151" type="line"/>
      <point x="956" y="113"/>
    </contour>
  </outline>
</glyph>
<glyph name="uni1214" format="2">
  <advance width="1437"/>
  <unicode hex="1214"/>
  <outline>
    <contour>
      <point x="927" y="120" type="qcurve"/>
      <point x="927" y="82" type="line"/>
      <point x="943" y="82"/>
      <point x="1007" y="51"/>
      <point x="1078" y="15"/>
      <point x="1136" y="-21"/>
      <point x="1141" y="-27" type="qcurve"/>
      <point x="1418" y="99" type="line"/>
      <point x="1418" y="124" type="line"/>
      <point x="1408" y="116"/>
      <point x="1389" y="115" type="qcurve"/>
      <point x="1389" y="408" type="line"/>
      <point x="1384" y="408"/>
      <point x="1353" y="416"/>
      <point x="1322" y="431"/>
      <point x="1298" y="454"/>
      <point x="1298" y="468" type="qcurve"/>
      <point x="1269" y="468" type="line"/>
      <point x="1269" y="462"/>
      <point x="1248" y="443"/>
      <point x="1218" y="420"/>
      <point x="1185" y="401"/>
      <point x="1176" y="397" type="qcurve"/>
      <point x="1176" y="703" type="line"/>
      <point x="1176" y="741"/>
      <point x="1216" y="786"/>
      <point x="1240" y="786" type="qcurve"/>
      <point x="1240" y="812" type="line"/>
      <point x="1209" y="812"/>
      <point x="1124" y="830"/>
      <point x="1045" y="857"/>
      <point x="990" y="891"/>
      <point x="990" y="907" type="qcurve"/>
      <point x="963" y="907" type="line"/>
      <point x="963" y="887"/>
      <point x="916" y="847"/>
      <point x="851" y="814"/>
      <point x="784" y="794"/>
      <point x="765" y="794" type="qcurve"/>
      <point x="765" y="1085" type="line"/>
      <point x="765" y="1111"/>
      <point x="807" y="1149"/>
      <point x="832" y="1149" type="qcurve"/>
      <point x="832" y="1193" type="line"/>
      <point x="805" y="1193"/>
      <point x="725" y="1225"/>
      <point x="650" y="1271"/>
      <point x="595" y="1316"/>
      <point x="595" y="1330" type="qcurve"/>
      <point x="565" y="1330" type="line"/>
      <point x="565" y="1316"/>
      <point x="532" y="1275"/>
      <point x="488" y="1235"/>
      <point x="444" y="1206"/>
      <point x="433" y="1206" type="qcurve"/>
      <point x="433" y="1181" type="line"/>
      <point x="444" y="1181"/>
      <point x="483" y="1169"/>
      <point x="519" y="1153"/>
      <point x="546" y="1127"/>
      <point x="546" y="1116" type="qcurve"/>
      <point x="546" y="794" type="line"/>
      <point x="355" y="794" type="line"/>
      <point x="355" y="821"/>
      <point x="324" y="872"/>
      <point x="271" y="912"/>
      <point x="198" y="937"/>
      <point x="158" y="937" type="qcurve"/>
      <point x="86" y="937"/>
      <point x="0" y="883"/>
      <point x="0" y="839" type="qcurve"/>
      <point x="0" y="830"/>
      <point x="0" y="821" type="qcurve"/>
      <point x="0" y="811"/>
      <point x="4" y="801" type="qcurve"/>
      <point x="21" y="801" type="line"/>
      <point x="23" y="828"/>
      <point x="51" y="865"/>
      <point x="76" y="865" type="qcurve"/>
      <point x="99" y="865"/>
      <point x="133" y="821"/>
      <point x="133" y="763" type="qcurve"/>
      <point x="133" y="149" type="line"/>
      <point x="133" y="111"/>
      <point x="105" y="111" type="qcurve"/>
      <point x="105" y="73" type="line"/>
      <point x="130" y="73"/>
      <point x="197" y="49"/>
      <point x="260" y="17"/>
      <point x="311" y="-17"/>
      <point x="321" y="-29" type="qcurve"/>
      <point x="456" y="109" type="line"/>
      <point x="441" y="130" type="line"/>
      <point x="406" y="99" type="line"/>
      <point x="355" y="149" type="line"/>
      <point x="355" y="767" type="line"/>
      <point x="546" y="767" type="line"/>
      <point x="546" y="49" type="line"/>
      <point x="744" y="-25" type="line"/>
      <point x="861" y="133" type="line"/>
      <point x="839" y="149" type="line"/>
      <point x="819" y="120" type="line"/>
      <point x="765" y="153" type="line"/>
      <point x="765" y="767" type="line"/>
      <point x="783" y="767"/>
      <point x="825" y="774"/>
      <point x="865" y="788"/>
      <point x="893" y="801"/>
      <point x="899" y="807" type="qcurve"/>
      <point x="956" y="772" type="line"/>
      <point x="956" y="160" type="line"/>
      <point x="956" y="143"/>
      <point x="943" y="120"/>
    </contour>
    <contour>
      <point x="1302" y="366" type="line"/>
      <point x="1302" y="105" type="line"/>
      <point x="1258" y="82" type="line"/>
      <point x="1207" y="82"/>
      <point x="1176" y="118"/>
      <point x="1176" y="157" type="qcurve"/>
      <point x="1176" y="366" type="line"/>
      <point x="1202" y="378"/>
      <point x="1238" y="401"/>
      <point x="1256" y="410" type="qcurve"/>
    </contour>
  </outline>
</glyph>
<glyph name="uni1215" format="2">
  <advance width="1296"/>
  <unicode hex="1215"/>
  <outline>
    <contour>
      <point x="927" y="113" type="qcurve"/>
      <point x="927" y="75" type="line"/>
      <point x="952" y="75"/>
      <point x="1019" y="51"/>
      <point x="1082" y="19"/>
      <point x="1131" y="-15"/>
      <point x="1141" y="-27" type="qcurve"/>
      <point x="1276" y="111" type="line"/>
      <point x="1262" y="131" type="line"/>
      <point x="1227" y="102" type="line"/>
      <point x="1176" y="151" type="line"/>
      <point x="1176" y="703" type="line"/>
      <point x="1176" y="741"/>
      <point x="1216" y="786"/>
      <point x="1240" y="786" type="qcurve"/>
      <point x="1240" y="812" type="line"/>
      <point x="1209" y="812"/>
      <point x="1124" y="830"/>
      <point x="1045" y="857"/>
      <point x="990" y="891"/>
      <point x="990" y="907" type="qcurve"/>
      <point x="963" y="907" type="line"/>
      <point x="963" y="887"/>
      <point x="916" y="847"/>
      <point x="851" y="814"/>
      <point x="784" y="794"/>
      <point x="765" y="794" type="qcurve"/>
      <point x="765" y="1187" type="line"/>
      <point x="756" y="1187"/>
      <point x="704" y="1207"/>
      <point x="637" y="1240"/>
      <point x="565" y="1278"/>
      <point x="506" y="1318"/>
      <point x="468" y="1351"/>
      <point x="468" y="1360" type="qcurve"/>
      <point x="441" y="1360" type="line"/>
      <point x="441" y="1345"/>
      <point x="414" y="1288"/>
      <point x="368" y="1231"/>
      <point x="307" y="1187"/>
      <point x="273" y="1187" type="qcurve"/>
      <point x="235" y="1187"/>
      <point x="177" y="1211"/>
      <point x="177" y="1225" type="qcurve"/>
      <point x="177" y="1242"/>
      <point x="185" y="1254"/>
      <point x="187" y="1258" type="qcurve"/>
      <point x="164" y="1258" type="line"/>
      <point x="155" y="1244"/>
      <point x="155" y="1221" type="qcurve"/>
      <point x="155" y="1181"/>
      <point x="239" y="1120"/>
      <point x="302" y="1120" type="qcurve"/>
      <point x="370" y="1120"/>
      <point x="477" y="1136"/>
      <point x="546" y="1171" type="qcurve"/>
      <point x="546" y="794" type="line"/>
      <point x="355" y="794" type="line"/>
      <point x="355" y="821"/>
      <point x="324" y="872"/>
      <point x="271" y="912"/>
      <point x="198" y="937"/>
      <point x="158" y="937" type="qcurve"/>
      <point x="86" y="937"/>
      <point x="0" y="883"/>
      <point x="0" y="839" type="qcurve"/>
      <point x="0" y="830"/>
      <point x="0" y="821" type="qcurve"/>
      <point x="0" y="811"/>
      <point x="4" y="801" type="qcurve"/>
      <point x="21" y="801" type="line"/>
      <point x="23" y="828"/>
      <point x="51" y="865"/>
      <point x="76" y="865" type="qcurve"/>
      <point x="99" y="865"/>
      <point x="133" y="821"/>
      <point x="133" y="763" type="qcurve"/>
      <point x="133" y="149" type="line"/>
      <point x="133" y="111"/>
      <point x="105" y="111" type="qcurve"/>
      <point x="105" y="73" type="line"/>
      <point x="130" y="73"/>
      <point x="197" y="49"/>
      <point x="260" y="17"/>
      <point x="311" y="-17"/>
      <point x="321" y="-29" type="qcurve"/>
      <point x="456" y="109" type="line"/>
      <point x="441" y="130" type="line"/>
      <point x="406" y="99" type="line"/>
      <point x="355" y="149" type="line"/>
      <point x="355" y="767" type="line"/>
      <point x="546" y="767" type="line"/>
      <point x="546" y="49" type="line"/>
      <point x="744" y="-25" type="line"/>
      <point x="861" y="133" type="line"/>
      <point x="839" y="149" type="line"/>
      <point x="819" y="120" type="line"/>
      <point x="765" y="153" type="line"/>
      <point x="765" y="767" type="line"/>
      <point x="783" y="767"/>
      <point x="825" y="774"/>
      <point x="865" y="788"/>
      <point x="893" y="801"/>
      <point x="899" y="807" type="qcurve"/>
      <point x="956" y="772" type="line"/>
      <point x="956" y="151" type="line"/>
      <point x="956" y="113"/>
    </contour>
  </outline>
</glyph>
<glyph name="uni1216" format="2">
  <advance width="679"/>
  <unicode hex="1216"/>
  <outline>
    <contour>
      <point x="486" y="193" type="qcurve"/>
      <point x="486" y="173" type="line"/>
      <point x="499" y="173"/>
      <point x="534" y="161"/>
      <point x="567" y="144"/>
      <point x="593" y="126"/>
      <point x="598" y="120" type="qcurve"/>
      <point x="669" y="192" type="line"/>
      <point x="661" y="203" type="line"/>
      <point x="643" y="187" type="line"/>
      <point x="616" y="213" type="line"/>
      <point x="616" y="368" type="line"/>
      <point x="616" y="388"/>
      <point x="637" y="412"/>
      <point x="650" y="412" type="qcurve"/>
      <point x="650" y="426" type="line"/>
      <point x="634" y="426"/>
      <point x="589" y="435"/>
      <point x="548" y="449"/>
      <point x="519" y="467"/>
      <point x="519" y="475" type="qcurve"/>
      <point x="505" y="475" type="line"/>
      <point x="505" y="465"/>
      <point x="480" y="444"/>
      <point x="446" y="427"/>
      <point x="411" y="416"/>
      <point x="401" y="416" type="qcurve"/>
      <point x="401" y="569" type="line"/>
      <point x="401" y="582"/>
      <point x="423" y="602"/>
      <point x="436" y="602" type="qcurve"/>
      <point x="436" y="625" type="line"/>
      <point x="422" y="625"/>
      <point x="380" y="642"/>
      <point x="341" y="666"/>
      <point x="312" y="690"/>
      <point x="312" y="697" type="qcurve"/>
      <point x="296" y="697" type="line"/>
      <point x="296" y="690"/>
      <point x="279" y="668"/>
      <point x="256" y="647"/>
      <point x="233" y="632"/>
      <point x="227" y="632" type="qcurve"/>
      <point x="227" y="619" type="line"/>
      <point x="233" y="619"/>
      <point x="253" y="613"/>
      <point x="272" y="604"/>
      <point x="286" y="591"/>
      <point x="286" y="585" type="qcurve"/>
      <point x="286" y="416" type="line"/>
      <point x="186" y="416" type="line"/>
      <point x="186" y="430"/>
      <point x="170" y="457"/>
      <point x="142" y="478"/>
      <point x="104" y="491"/>
      <point x="83" y="491" type="qcurve"/>
      <point x="45" y="491"/>
      <point x="0" y="463"/>
      <point x="0" y="440" type="qcurve"/>
      <point x="0" y="435"/>
      <point x="0" y="430" type="qcurve"/>
      <point x="0" y="425"/>
      <point x="2" y="420" type="qcurve"/>
      <point x="11" y="420" type="line"/>
      <point x="12" y="434"/>
      <point x="27" y="453"/>
      <point x="40" y="453" type="qcurve"/>
      <point x="52" y="453"/>
      <point x="70" y="430"/>
      <point x="70" y="400" type="qcurve"/>
      <point x="70" y="78" type="line"/>
      <point x="70" y="58"/>
      <point x="55" y="58" type="qcurve"/>
      <point x="55" y="38" type="line"/>
      <point x="68" y="38"/>
      <point x="103" y="26"/>
      <point x="136" y="9"/>
      <point x="163" y="-9"/>
      <point x="168" y="-15" type="qcurve"/>
      <point x="239" y="57" type="line"/>
      <point x="231" y="68" type="line"/>
      <point x="213" y="52" type="line"/>
      <point x="186" y="78" type="line"/>
      <point x="186" y="402" type="line"/>
      <point x="286" y="402" type="line"/>
      <point x="286" y="160" type="line"/>
      <point x="390" y="121" type="line"/>
      <point x="451" y="204" type="line"/>
      <point x="440" y="212" type="line"/>
      <point x="429" y="197" type="line"/>
      <point x="401" y="214" type="line"/>
      <point x="401" y="402" type="line"/>
      <point x="410" y="402"/>
      <point x="432" y="406"/>
      <point x="453" y="413"/>
      <point x="468" y="420"/>
      <point x="471" y="423" type="qcurve"/>
      <point x="501" y="405" type="line"/>
      <point x="501" y="213" type="line"/>
      <point x="501" y="193"/>
    </contour>
  </outline>
</glyph>
<glyph name="uni1217" format="2">
  <advance width="836"/>
  <unicode hex="1217"/>
  <outline>
    <contour>
      <point x="706" y="-63" type="line"/>
      <point x="706" y="-51"/>
      <point x="721" y="-12"/>
      <point x="743" y="25"/>
      <point x="768" y="52"/>
      <point x="779" y="52" type="qcurve"/>
      <point x="793" y="52"/>
      <point x="807" y="37"/>
      <point x="807" y="31" type="qcurve"/>
      <point x="807" y="25"/>
      <point x="800" y="10"/>
      <point x="792" y="-3"/>
      <point x="788" y="-7" type="qcurve"/>
      <point x="785" y="-10"/>
      <point x="784" y="-11" type="qcurve"/>
      <point x="785" y="-24" type="line"/>
      <point x="788" y="-24"/>
      <point x="802" y="-15"/>
      <point x="815" y="-2"/>
      <point x="826" y="17"/>
      <point x="826" y="28" type="qcurve"/>
      <point x="826" y="48"/>
      <point x="808" y="75"/>
      <point x="782" y="92"/>
      <point x="752" y="99"/>
      <point x="741" y="99" type="qcurve"/>
      <point x="729" y="99"/>
      <point x="696" y="83"/>
      <point x="667" y="54"/>
      <point x="647" y="15"/>
      <point x="647" y="-8" type="qcurve"/>
      <point x="616" y="5" type="line"/>
      <point x="616" y="368" type="line"/>
      <point x="616" y="388"/>
      <point x="637" y="412"/>
      <point x="650" y="412" type="qcurve"/>
      <point x="650" y="426" type="line"/>
      <point x="634" y="426"/>
      <point x="589" y="435"/>
      <point x="548" y="449"/>
      <point x="519" y="467"/>
      <point x="519" y="475" type="qcurve"/>
      <point x="505" y="475" type="line"/>
      <point x="505" y="465"/>
      <point x="480" y="444"/>
      <point x="446" y="427"/>
      <point x="411" y="416"/>
      <point x="401" y="416" type="qcurve"/>
      <point x="401" y="569" type="line"/>
      <point x="401" y="582"/>
      <point x="423" y="602"/>
      <point x="436" y="602" type="qcurve"/>
      <point x="436" y="625" type="line"/>
      <point x="422" y="625"/>
      <point x="380" y="642"/>
      <point x="341" y="666"/>
      <point x="312" y="690"/>
      <point x="312" y="697" type="qcurve"/>
      <point x="296" y="697" type="line"/>
      <point x="296" y="690"/>
      <point x="279" y="668"/>
      <point x="256" y="647"/>
      <point x="233" y="632"/>
      <point x="227" y="632" type="qcurve"/>
      <point x="227" y="619" type="line"/>
      <point x="233" y="619"/>
      <point x="253" y="613"/>
      <point x="272" y="604"/>
      <point x="286" y="591"/>
      <point x="286" y="585" type="qcurve"/>
      <point x="286" y="416" type="line"/>
      <point x="186" y="416" type="line"/>
      <point x="186" y="430"/>
      <point x="170" y="457"/>
      <point x="142" y="478"/>
      <point x="104" y="491"/>
      <point x="83" y="491" type="qcurve"/>
      <point x="45" y="491"/>
      <point x="0" y="463"/>
      <point x="0" y="440" type="qcurve"/>
      <point x="0" y="435"/>
      <point x="0" y="430" type="qcurve"/>
      <point x="0" y="425"/>
      <point x="2" y="420" type="qcurve"/>
      <point x="11" y="420" type="line"/>
      <point x="12" y="434"/>
      <point x="27" y="453"/>
      <point x="40" y="453" type="qcurve"/>
      <point x="52" y="453"/>
      <point x="70" y="430"/>
      <point x="70" y="400" type="qcurve"/>
      <point x="70" y="214" type="line"/>
      <point x="70" y="194"/>
      <point x="55" y="194" type="qcurve"/>
      <point x="55" y="174" type="line"/>
      <point x="68" y="174"/>
      <point x="103" y="162"/>
      <point x="136" y="145"/>
      <point x="163" y="127"/>
      <point x="168" y="121" type="qcurve"/>
      <point x="239" y="193" type="line"/>
      <point x="231" y="204" type="line"/>
      <point x="213" y="188" type="line"/>
      <point x="186" y="214" type="line"/>
      <point x="186" y="402" type="line"/>
      <point x="286" y="402" type="line"/>
      <point x="286" y="162" type="line"/>
      <point x="390" y="123" type="line"/>
      <point x="451" y="206" type="line"/>
      <point x="440" y="214" type="line"/>
      <point x="429" y="199" type="line"/>
      <point x="401" y="216" type="line"/>
      <point x="401" y="402" type="line"/>
      <point x="410" y="402"/>
      <point x="432" y="406"/>
      <point x="453" y="413"/>
      <point x="468" y="420"/>
      <point x="471" y="423" type="qcurve"/>
      <point x="501" y="405" type="line"/>
      <point x="501" y="50" type="line"/>
      <point x="463" y="66"/>
      <point x="411" y="91"/>
      <point x="411" y="99" type="qcurve"/>
      <point x="395" y="99" type="line"/>
      <point x="395" y="86"/>
      <point x="384" y="43"/>
      <point x="367" y="1"/>
      <point x="346" y="-29"/>
      <point x="336" y="-29" type="qcurve"/>
      <point x="325" y="-29"/>
      <point x="309" y="-14"/>
      <point x="307" y="5" type="qcurve"/>
      <point x="300" y="4" type="line"/>
      <point x="300" y="0"/>
      <point x="300" y="-3" type="qcurve"/>
      <point x="300" y="-7"/>
      <point x="301" y="-12" type="qcurve"/>
      <point x="306" y="-47"/>
      <point x="346" y="-73"/>
      <point x="370" y="-73" type="qcurve"/>
      <point x="382" y="-73"/>
      <point x="415" y="-53"/>
      <point x="446" y="-21"/>
      <point x="468" y="19"/>
      <point x="468" y="38" type="qcurve"/>
      <point x="489" y="27"/>
      <point x="565" y="-3"/>
      <point x="640" y="-33"/>
      <point x="695" y="-58"/>
      <point x="695" y="-64" type="qcurve"/>
    </contour>
  </outline>
</glyph>
<glyph name="uni1218" format="2">
  <advance width="1511"/>
  <unicode hex="1218"/>
  <outline>
    <contour>
      <point x="158" y="1167" type="qcurve"/>
      <point x="86" y="1167"/>
      <point x="0" y="1114"/>
      <point x="0" y="1071" type="qcurve"/>
      <point x="0" y="1061"/>
      <point x="0" y="1051" type="qcurve"/>
      <point x="0" y="1042"/>
      <point x="4" y="1032" type="qcurve"/>
      <point x="21" y="1032" type="line"/>
      <point x="23" y="1059"/>
      <point x="51" y="1096"/>
      <point x="76" y="1096" type="qcurve"/>
      <point x="99" y="1096"/>
      <point x="133" y="1051"/>
      <point x="133" y="994" type="qcurve"/>
      <point x="133" y="164" type="line"/>
      <point x="133" y="126"/>
      <point x="105" y="126" type="qcurve"/>
      <point x="105" y="88" type="line"/>
      <point x="130" y="88"/>
      <point x="197" y="65"/>
      <point x="260" y="33"/>
      <point x="311" y="-2"/>
      <point x="321" y="-13" type="qcurve"/>
      <point x="484" y="118" type="line"/>
      <point x="484" y="82" type="line"/>
      <point x="502" y="71"/>
      <point x="553" y="44"/>
      <point x="605" y="17"/>
      <point x="647" y="-7"/>
      <point x="657" y="-13" type="qcurve"/>
      <point x="756" y="71" type="line"/>
      <point x="706" y="105" type="line"/>
      <point x="706" y="1009" type="line"/>
      <point x="712" y="1009"/>
      <point x="730" y="1019"/>
      <point x="754" y="1032"/>
      <point x="772" y="1045"/>
      <point x="777" y="1049" type="qcurve"/>
      <point x="857" y="994" type="line"/>
      <point x="857" y="164" type="line"/>
      <point x="857" y="143"/>
      <point x="845" y="128"/>
      <point x="834" y="128" type="qcurve"/>
      <point x="834" y="89" type="line"/>
      <point x="845" y="89"/>
      <point x="916" y="65"/>
      <point x="990" y="31"/>
      <point x="1049" y="-4"/>
      <point x="1049" y="-13" type="qcurve"/>
      <point x="1207" y="84" type="line"/>
      <point x="1262" y="76"/>
      <point x="1353" y="34"/>
      <point x="1372" y="13" type="qcurve"/>
      <point x="1482" y="122" type="line"/>
      <point x="1467" y="143" type="line"/>
      <point x="1450" y="124" type="line"/>
      <point x="1427" y="143" type="line"/>
      <point x="1427" y="962" type="line"/>
      <point x="1427" y="1000"/>
      <point x="1467" y="1045"/>
      <point x="1493" y="1045" type="qcurve"/>
      <point x="1493" y="1072" type="line"/>
      <point x="1462" y="1072"/>
      <point x="1376" y="1089"/>
      <point x="1298" y="1116"/>
      <point x="1242" y="1151"/>
      <point x="1242" y="1166" type="qcurve"/>
      <point x="1216" y="1166" type="line"/>
      <point x="1216" y="1154"/>
      <point x="1183" y="1112"/>
      <point x="1138" y="1071"/>
      <point x="1091" y="1040"/>
      <point x="1078" y="1040" type="qcurve"/>
      <point x="1069" y="1040"/>
      <point x="1019" y="1071"/>
      <point x="958" y="1114"/>
      <point x="899" y="1164"/>
      <point x="881" y="1181" type="qcurve"/>
      <point x="870" y="1162"/>
      <point x="823" y="1112"/>
      <point x="769" y="1069"/>
      <point x="719" y="1038"/>
      <point x="706" y="1038" type="qcurve"/>
      <point x="689" y="1038"/>
      <point x="634" y="1067"/>
      <point x="570" y="1109"/>
      <point x="508" y="1160"/>
      <point x="483" y="1181" type="qcurve"/>
      <point x="454" y="1138"/>
      <point x="395" y="1057"/>
      <point x="355" y="1025" type="qcurve"/>
      <point x="355" y="1051"/>
      <point x="324" y="1103"/>
      <point x="271" y="1143"/>
      <point x="198" y="1167"/>
    </contour>
    <contour>
      <point x="1078" y="130" type="line"/>
      <point x="1078" y="1011" type="line"/>
      <point x="1084" y="1011"/>
      <point x="1109" y="1023"/>
      <point x="1134" y="1036"/>
      <point x="1154" y="1051"/>
      <point x="1156" y="1056" type="qcurve"/>
      <point x="1207" y="1032" type="line"/>
      <point x="1207" y="131" type="line"/>
      <point x="1138" y="86" type="line"/>
    </contour>
    <contour>
      <point x="355" y="164" type="line"/>
      <point x="355" y="979" type="line"/>
      <point x="404" y="1029" type="line"/>
      <point x="484" y="985" type="line"/>
      <point x="484" y="157" type="line"/>
      <point x="420" y="109" type="line"/>
    </contour>
  </outline>
</glyph>
<glyph name="uni1219" format="2">
  <advance width="977"/>
  <unicode hex="1219"/>
  <outline>
    <contour>
      <point x="640" y="43" type="line"/>
      <point x="668" y="39"/>
      <point x="716" y="17"/>
      <point x="726" y="6" type="qcurve"/>
      <point x="784" y="63" type="line"/>
      <point x="776" y="74" type="line"/>
      <point x="767" y="64" type="line"/>
      <point x="755" y="74" type="line"/>
      <point x="755" y="360" type="line"/>
      <point x="783" y="380" type="line"/>
      <point x="827" y="343" type="line"/>
      <point x="822" y="336"/>
      <point x="820" y="306"/>
      <point x="820" y="301" type="qcurve"/>
      <point x="820" y="286"/>
      <point x="832" y="260"/>
      <point x="852" y="239"/>
      <point x="878" y="227"/>
      <point x="892" y="227" type="qcurve"/>
      <point x="928" y="227"/>
      <point x="967" y="247"/>
      <point x="967" y="273" type="qcurve"/>
      <point x="967" y="284"/>
      <point x="963" y="293"/>
      <point x="960" y="296" type="qcurve"/>
      <point x="947" y="296" type="line"/>
      <point x="949" y="293"/>
      <point x="954" y="280"/>
      <point x="954" y="276" type="qcurve"/>
      <point x="954" y="265"/>
      <point x="936" y="256"/>
      <point x="925" y="256" type="qcurve"/>
      <point x="915" y="256"/>
      <point x="897" y="287"/>
      <point x="897" y="306" type="qcurve"/>
      <point x="897" y="317"/>
      <point x="919" y="354"/>
      <point x="937" y="368" type="qcurve"/>
      <point x="937" y="381" type="line"/>
      <point x="928" y="381"/>
      <point x="898" y="394"/>
      <point x="869" y="411"/>
      <point x="847" y="429"/>
      <point x="847" y="435" type="qcurve"/>
      <point x="833" y="435" type="line"/>
      <point x="755" y="382" type="line"/>
      <point x="755" y="505" type="line"/>
      <point x="755" y="525"/>
      <point x="776" y="549"/>
      <point x="789" y="549" type="qcurve"/>
      <point x="789" y="563" type="line"/>
      <point x="773" y="563"/>
      <point x="728" y="572"/>
      <point x="687" y="586"/>
      <point x="658" y="604"/>
      <point x="658" y="612" type="qcurve"/>
      <point x="644" y="612" type="line"/>
      <point x="644" y="606"/>
      <point x="627" y="584"/>
      <point x="603" y="562"/>
      <point x="579" y="546"/>
      <point x="572" y="546" type="qcurve"/>
      <point x="567" y="546"/>
      <point x="541" y="562"/>
      <point x="509" y="585"/>
      <point x="478" y="611"/>
      <point x="469" y="620" type="qcurve"/>
      <point x="463" y="610"/>
      <point x="436" y="584"/>
      <point x="405" y="561"/>
      <point x="377" y="545"/>
      <point x="370" y="545" type="qcurve"/>
      <point x="361" y="545"/>
      <point x="332" y="560"/>
      <point x="299" y="582"/>
      <point x="266" y="609"/>
      <point x="253" y="620" type="qcurve"/>
      <point x="238" y="597"/>
      <point x="207" y="555"/>
      <point x="186" y="538" type="qcurve"/>
      <point x="186" y="552"/>
      <point x="170" y="579"/>
      <point x="142" y="600"/>
      <point x="104" y="613"/>
      <point x="83" y="613" type="qcurve"/>
      <point x="45" y="613"/>
      <point x="0" y="585"/>
      <point x="0" y="562" type="qcurve"/>
      <point x="0" y="557"/>
      <point x="0" y="552" type="qcurve"/>
      <point x="0" y="547"/>
      <point x="2" y="542" type="qcurve"/>
      <point x="11" y="542" type="line"/>
      <point x="12" y="556"/>
      <point x="27" y="575"/>
      <point x="40" y="575" type="qcurve"/>
      <point x="52" y="575"/>
      <point x="70" y="552"/>
      <point x="70" y="522" type="qcurve"/>
      <point x="70" y="85" type="line"/>
      <point x="70" y="65"/>
      <point x="55" y="65" type="qcurve"/>
      <point x="55" y="45" type="line"/>
      <point x="68" y="45"/>
      <point x="103" y="33"/>
      <point x="136" y="16"/>
      <point x="163" y="-2"/>
      <point x="168" y="-8" type="qcurve"/>
      <point x="254" y="61" type="line"/>
      <point x="254" y="42" type="line"/>
      <point x="263" y="36"/>
      <point x="290" y="22"/>
      <point x="317" y="8"/>
      <point x="339" y="-5"/>
      <point x="344" y="-8" type="qcurve"/>
      <point x="396" y="36" type="line"/>
      <point x="370" y="54" type="line"/>
      <point x="370" y="530" type="line"/>
      <point x="373" y="530"/>
      <point x="386" y="535"/>
      <point x="400" y="542"/>
      <point x="412" y="549"/>
      <point x="414" y="551" type="qcurve"/>
      <point x="456" y="522" type="line"/>
      <point x="456" y="85" type="line"/>
      <point x="456" y="74"/>
      <point x="450" y="66"/>
      <point x="444" y="66" type="qcurve"/>
      <point x="444" y="46" type="line"/>
      <point x="450" y="46"/>
      <point x="487" y="33"/>
      <point x="526" y="15"/>
      <point x="557" y="-3"/>
      <point x="557" y="-8" type="qcurve"/>
    </contour>
    <contour>
      <point x="613" y="554" type="line"/>
      <point x="640" y="542" type="line"/>
      <point x="640" y="68" type="line"/>
      <point x="603" y="44" type="line"/>
      <point x="572" y="67" type="line"/>
      <point x="572" y="531" type="line"/>
      <point x="575" y="531"/>
      <point x="588" y="537"/>
      <point x="601" y="544"/>
      <point x="612" y="552"/>
      <point x="613" y="554" type="qcurve"/>
    </contour>
    <contour>
      <point x="186" y="85" type="line"/>
      <point x="186" y="514" type="line"/>
      <point x="212" y="540" type="line"/>
      <point x="254" y="517" type="line"/>
      <point x="254" y="81" type="line"/>
      <point x="220" y="56" type="line"/>
    </contour>
  </outline>
</glyph>
